BasicallyASansSerif-ExtraLight.ufo
<glyph name="exclamation" format="2">
  <advance width="360.6409495548961"/>
  <unicode hex="0021"/>
  <outline>
    <contour>
      <point x="153.08012" y="269.1543" type="line"/>
      <point x="207.56083" y="269.1543" type="line"/>
      <point x="207.56083" y="1080.0" type="line"/>
      <point x="153.08012" y="1080.0" type="line"/>
    </contour>
    <contour>
      <point x="246.0178" y="50.69733" type="curve" smooth="yes"/>
      <point x="246.0178" y="86.95667"/>
      <point x="216.57982" y="116.39466"/>
      <point x="180.32047" y="116.39466" type="curve" smooth="yes"/>
      <point x="144.06113" y="116.39466"/>
      <point x="114.62315" y="86.95667"/>
      <point x="114.62315" y="50.69733" type="curve" smooth="yes"/>
      <point x="114.62315" y="14.43799"/>
      <point x="144.06113" y="-15.0"/>
      <point x="180.32047" y="-15.0" type="curve" smooth="yes"/>
      <point x="216.57982" y="-15.0"/>
      <point x="246.0178" y="14.43799"/>
    </contour>
  </outline>
</glyph>
<glyph name="quote_dbl" format="2">
  <advance width="455.2344213649852"/>
  <unicode hex="0022"/>
  <outline>
    <contour>
      <point x="284.90208" y="813.45512" type="line"/>
      <point x="339.38279" y="813.45512" type="line"/>
      <point x="339.38279" y="1075.39318" type="line"/>
      <point x="284.90208" y="1075.39318" type="line"/>
    </contour>
    <contour>
      <point x="115.85163" y="813.45512" type="line"/>
      <point x="170.33234" y="813.45512" type="line"/>
      <point x="170.33234" y="1075.39318" type="line"/>
      <point x="115.85163" y="1075.39318" type="line"/>
    </contour>
  </outline>
</glyph>
<glyph name="quotedbl" format="2">
  <advance width="466.39762611275967"/>
  <unicode hex="0022"/>
  <outline>
    <contour>
      <point x="297.2937685459941" y="777.9525222551929" type="line"/>
      <point x="351.77448071216617" y="777.9525222551929" type="line"/>
      <point x="351.77448071216617" y="1061.572700296736" type="line"/>
      <point x="297.2937685459941" y="1061.572700296736" type="line"/>
    </contour>
    <contour>
      <point x="114.62314540059347" y="777.9525222551929" type="line"/>
      <point x="169.10385756676558" y="777.9525222551929" type="line"/>
      <point x="169.10385756676558" y="1061.572700296736" type="line"/>
      <point x="114.62314540059347" y="1061.572700296736" type="line"/>
    </contour>
  </outline>
</glyph>
<glyph name="numbersign" format="2">
  <advance width="936.0729214861261"/>
  <unicode hex="0023"/>
  <outline>
    <contour>
      <point x="170.13561248779297" y="0" type="line"/>
      <point x="227.22383880615234" y="0" type="line"/>
      <point x="289.9317855834961" y="322.6044006347656" type="line"/>
      <point x="562.4941024780273" y="322.6044006347656" type="line"/>
      <point x="499.7861633300781" y="0" type="line"/>
      <point x="556.874382019043" y="0" type="line"/>
      <point x="619.5823211669922" y="322.6044006347656" type="line"/>
      <point x="843.6900329589844" y="322.6044006347656" type="line"/>
      <point x="843.6900329589844" y="378.30873107910156" type="line"/>
      <point x="630.4101486206055" y="378.30873107910156" type="line"/>
      <point x="692.4015426635742" y="697.226806640625" type="line"/>
      <point x="916.5092468261719" y="697.226806640625" type="line"/>
      <point x="916.5092468261719" y="752.9311370849609" type="line"/>
      <point x="703.2293701171875" y="752.9311370849609" type="line"/>
      <point x="765.9373092651367" y="1075.5355377197266" type="line"/>
      <point x="708.8490905761719" y="1075.5355377197266" type="line"/>
      <point x="646.1411514282227" y="752.9311370849609" type="line"/>
      <point x="373.5788269042969" y="752.9311370849609" type="line"/>
      <point x="436.2867736816406" y="1075.5355377197266" type="line"/>
      <point x="379.1985397338867" y="1075.5355377197266" type="line"/>
      <point x="316.4906005859375" y="752.9311370849609" type="line"/>
      <point x="92.38288879394531" y="752.9311370849609" type="line"/>
      <point x="92.38288879394531" y="697.226806640625" type="line"/>
      <point x="305.6627731323242" y="697.226806640625" type="line"/>
      <point x="243.67137908935547" y="378.30873107910156" type="line"/>
      <point x="19.56366729736328" y="378.30873107910156" type="line"/>
      <point x="19.56366729736328" y="322.6044006347656" type="line"/>
      <point x="232.8435516357422" y="322.6044006347656" type="line"/>
    </contour>
    <contour>
      <point x="300.75960540771484" y="378.30873107910156" type="line"/>
      <point x="362.7510070800781" y="697.226806640625" type="line"/>
      <point x="635.3133239746094" y="697.226806640625" type="line"/>
      <point x="573.3219299316406" y="378.30873107910156" type="line"/>
    </contour>
  </outline>
</glyph>
<glyph name="dollar" format="2">
  <advance width="900.4242053307009"/>
  <unicode hex="0024"/>
  <outline>
    <contour>
      <point x="365.43941469978984" y="601.4165952420062" type="line"/>
      <point x="273.55216902937406" y="621.4972107371243"/>
      <point x="134.46614" y="684.3155331406674"/>
      <point x="134.46614" y="811.36505" type="curve"/>
      <point x="134.46614" y="927.40584506482"/>
      <point x="261.9056561332761" y="1023.0740678453768"/>
      <point x="424.3828430175781" y="1032.287208557129" type="curve"/>
      <point x="424.3828430175781" y="588.5353698730469" type="line"/>
    </contour>
    <contour>
      <point x="62.20928192138672" y="285.65864181518555" type="line"/>
      <point x="62.20928192138673" y="106.50198344078169"/>
      <point x="238.06719235544654" y="-3.246763496319394"/>
      <point x="422.3685302734375" y="-12.789291381835938" type="curve"/>
      <point x="422.3685302734375" y="-130.6613998413086" type="line"/>
      <point x="477.91127014160156" y="-130.6613998413086" type="line"/>
      <point x="477.91127014160156" y="-12.785942077636719" type="line"/>
      <point x="679.3974511573682" y="-2.359266573341957"/>
      <point x="838.2149300000001" y="120.94372008240995"/>
      <point x="838.2149300000001" y="280.16259" type="curve"/>
      <point x="838.21493" y="387.59297006252353"/>
      <point x="763.9171211750854" y="513.9745930282692"/>
      <point x="550.8160434578022" y="560.7944476040926" type="curve"/>
      <point x="475.89695739746094" y="577.2547149658203" type="line"/>
      <point x="475.89695739746094" y="1032.2930145263672" type="line"/>
      <point x="619.0396077014889" y="1024.1711083707721"/>
      <point x="765.813662717758" y="942.2643544498812"/>
      <point x="765.8136598858899" y="805.8689988464355" type="curve"/>
      <point x="765.8136596679688" y="795.3729476928711" type="line"/>
      <point x="822.0784225463867" y="795.3729476928711" type="line"/>
      <point x="822.0784225463867" y="805.8689994812012" type="line"/>
      <point x="822.0784225463867" y="976.5379049676895"/>
      <point x="652.5418005119025" y="1079.0041775701975"/>
      <point x="477.91127014160156" y="1088.3005142211914" type="curve"/>
      <point x="477.91127014160156" y="1206.1969375610352" type="line"/>
      <point x="422.3685302734375" y="1206.1969375610352" type="line"/>
      <point x="422.3685302734375" y="1088.3023681640625" type="line"/>
      <point x="229.6815843335043" y="1078.0649528493389"/>
      <point x="78.05697999999997" y="961.84743255954"/>
      <point x="78.05697999999995" y="811.3650500000001" type="curve"/>
      <point x="78.05697999999998" y="709.1927331622084"/>
      <point x="149.11759575356817" y="591.1230863949598"/>
      <point x="352.62780104140813" y="546.3848565419586" type="curve"/>
      <point x="424.3828430175781" y="530.6107406616211" type="line"/>
      <point x="424.3828430175781" y="43.220741271972656" type="line"/>
      <point x="271.60635289172757" y="51.632155496614715"/>
      <point x="118.47406467124031" y="140.72717850790067"/>
      <point x="118.47403902754682" y="285.6586418017579" type="curve"/>
      <point x="118.47403717041016" y="296.1546936035156" type="line"/>
      <point x="62.20928192138672" y="296.1546936035156" type="line"/>
    </contour>
    <contour>
      <point x="537.9227991335802" y="505.7646320368767" type="line"/>
      <point x="634.2732741612687" y="484.69861751983353"/>
      <point x="781.8057713839818" y="416.99586581637465"/>
      <point x="781.8057654370117" y="280.16259001342775" type="curve"/>
      <point x="781.80577" y="155.41927963671992"/>
      <point x="647.2442932711899" y="52.654610402388805"/>
      <point x="475.89695739746094" y="43.22589874267578" type="curve"/>
      <point x="475.89695739746094" y="519.325927734375" type="line"/>
    </contour>
  </outline>
</glyph>
<glyph name="percent" format="2">
  <advance width="1209.288681644765"/>
  <unicode hex="0025"/>
  <outline>
    <contour>
      <point x="527.9593047901653" y="856.2844425604069" type="curve" smooth="yes"/>
      <point x="527.9593047901653" y="988.035144218991"/>
      <point x="420.9944490091565" y="1094.9999999999998"/>
      <point x="289.24374735057233" y="1094.9999999999998" type="curve" smooth="yes"/>
      <point x="157.49304569198816" y="1094.9999999999998"/>
      <point x="50.528189910979236" y="988.035144218991"/>
      <point x="50.528189910979236" y="856.2844425604069" type="curve" smooth="yes"/>
      <point x="50.52818991097921" y="724.5337409018227"/>
      <point x="157.4930456919881" y="617.5688851208139"/>
      <point x="289.2437473505723" y="617.5688851208139" type="curve" smooth="yes"/>
      <point x="420.99444900915637" y="617.5688851208138"/>
      <point x="527.9593047901653" y="724.5337409018227"/>
    </contour>
    <contour>
      <point x="166.5157653757315" y="0.0" type="line"/>
      <point x="228.93454215801546" y="0.0" type="line"/>
      <point x="1042.7729162690334" y="1080.0" type="line"/>
      <point x="980.3541394867493" y="1080.0" type="line"/>
    </contour>
    <contour>
      <point x="473.4785926239932" y="856.2844425604069" type="curve" smooth="yes"/>
      <point x="473.4785926239932" y="754.6024642466298"/>
      <point x="390.92572566434933" y="672.0495972869859"/>
      <point x="289.2437473505723" y="672.049597286986" type="curve" smooth="yes"/>
      <point x="187.56176903679525" y="672.049597286986"/>
      <point x="105.00890207715135" y="754.6024642466298"/>
      <point x="105.00890207715135" y="856.2844425604069" type="curve" smooth="yes"/>
      <point x="105.00890207715135" y="957.9664208741839"/>
      <point x="187.56176903679528" y="1040.5192878338278"/>
      <point x="289.24374735057233" y="1040.5192878338278" type="curve" smooth="yes"/>
      <point x="390.92572566434933" y="1040.5192878338278"/>
      <point x="473.4785926239932" y="957.9664208741839"/>
    </contour>
    <contour>
      <point x="1158.7604917337856" y="223.71555743959308" type="curve" smooth="yes"/>
      <point x="1158.7604917337856" y="355.4662590981772"/>
      <point x="1051.7956359527766" y="462.43111487918617"/>
      <point x="920.0449342941924" y="462.43111487918617" type="curve" smooth="yes"/>
      <point x="788.2942326356083" y="462.43111487918617"/>
      <point x="681.3293768545994" y="355.46625909817726"/>
      <point x="681.3293768545994" y="223.71555743959308" type="curve" smooth="yes"/>
      <point x="681.3293768545993" y="91.96485578100894"/>
      <point x="788.2942326356083" y="-14.99999999999996"/>
      <point x="920.0449342941924" y="-14.999999999999991" type="curve" smooth="yes"/>
      <point x="1051.7956359527766" y="-15.000000000000021"/>
      <point x="1158.7604917337856" y="91.96485578100886"/>
    </contour>
    <contour>
      <point x="1104.2797795676133" y="223.71555743959308" type="curve" smooth="yes"/>
      <point x="1104.2797795676133" y="122.033579125816"/>
      <point x="1021.7269126079694" y="39.48071216617209"/>
      <point x="920.0449342941924" y="39.48071216617212" type="curve" smooth="yes"/>
      <point x="818.3629559804154" y="39.48071216617212"/>
      <point x="735.8100890207716" y="122.03357912581605"/>
      <point x="735.8100890207716" y="223.71555743959308" type="curve" smooth="yes"/>
      <point x="735.8100890207716" y="325.3975357533701"/>
      <point x="818.3629559804154" y="407.95040271301406"/>
      <point x="920.0449342941924" y="407.95040271301406" type="curve" smooth="yes"/>
      <point x="1021.7269126079696" y="407.95040271301406"/>
      <point x="1104.2797795676133" y="325.3975357533701"/>
    </contour>
  </outline>
</glyph>
<glyph name="ampersand" format="2">
  <advance width="950.8490263540892"/>
  <unicode hex="0026"/>
  <outline>
    <contour>
      <point x="275.28589630126953" y="758.0141448974609" type="line"/>
      <point x="248.15219109348413" y="789.0633576444551"/>
      <point x="233.19881305637983" y="828.898942706878"/>
      <point x="233.19881305637983" y="870.13353115727" type="curve"/>
      <point x="233.19881305637983" y="964.1719894611275"/>
      <point x="309.54611142908016" y="1040.5192878338278"/>
      <point x="403.58456973293767" y="1040.5192878338278" type="curve" smooth="yes"/>
      <point x="497.6230280367953" y="1040.5192878338278"/>
      <point x="573.9703264094956" y="964.1719894611275"/>
      <point x="573.9703264094956" y="870.13353115727" type="curve"/>
      <point x="573.9703264094956" y="808.791398459539"/>
      <point x="541.5088522166463" y="754.9366128612841"/>
      <point x="492.79214414149436" y="724.9878473027169" type="curve"/>
      <point x="370.0747299194336" y="649.5468902587891" type="line"/>
    </contour>
    <contour>
      <point x="234.07172083642433" y="501.9969598334338" type="curve"/>
      <point x="359.3598175048828" y="579.0146865844727" type="line"/>
      <point x="718.9428482055664" y="167.54232788085938" type="line"/>
      <point x="641.4703202359735" y="88.52521475626891"/>
      <point x="533.5509757670399" y="39.480712166172125"/>
      <point x="414.26706231454" y="39.480712166172154" type="curve"/>
      <point x="252.4265807821958" y="39.48071216617212"/>
      <point x="121.0326409495549" y="158.90799081186947"/>
      <point x="121.0326409495549" y="306.0089020771514" type="curve"/>
      <point x="121.0326409495549" y="387.9208718350131"/>
      <point x="165.96878775921488" y="460.1323857670192"/>
    </contour>
    <contour>
      <point x="66.55192878338279" y="306.00890207715133" type="curve"/>
      <point x="66.55192878338279" y="128.83926746706234"/>
      <point x="222.3578574373887" y="-15.000000000000021"/>
      <point x="414.26706231454" y="-15.000000000000021" type="curve"/>
      <point x="547.2679364635374" y="-15.000000000000021"/>
      <point x="667.7397015304475" y="39.07014764190424"/>
      <point x="754.8810501098633" y="126.4180908203125" type="curve"/>
      <point x="865.3570022583008" y="0" type="line"/>
      <point x="937.7095642089844" y="0" type="line"/>
      <point x="791.4022903442383" y="167.42001342773438" type="line"/>
      <point x="856.5717641321924" y="249.52772426844814"/>
      <point x="895.5133531157271" y="353.3752442284197"/>
      <point x="895.5133531157271" y="466.2462908011869" type="curve"/>
      <point x="841.0326385498047" y="466.2462921142578" type="line"/>
      <point x="841.0326409495549" y="369.766492121935"/>
      <point x="808.9478396917974" y="280.7213684411287"/>
      <point x="754.8754577636719" y="209.2178192138672" type="curve"/>
      <point x="406.4274444580078" y="607.9483337402344" type="line"/>
      <point x="521.3068389892578" y="678.5675659179688" type="line"/>
      <point x="585.6068068296368" y="718.094357985456"/>
      <point x="628.4510385756677" y="789.1734522805799"/>
      <point x="628.4510385756678" y="870.1335311572699" type="curve"/>
      <point x="628.4510385756677" y="994.2407128059348"/>
      <point x="527.6917513816024" y="1094.9999999999998"/>
      <point x="403.58456973293767" y="1094.9999999999998" type="curve" smooth="yes"/>
      <point x="279.477388084273" y="1094.9999999999998"/>
      <point x="178.71810089020772" y="994.2407128059348"/>
      <point x="178.71810089020772" y="870.13353115727" type="curve"/>
      <point x="178.71810089020772" y="815.7142153653733"/>
      <point x="198.4528098357278" y="763.1412331983512"/>
      <point x="234.26249388786238" y="722.1640632211008" type="curve"/>
      <point x="323.0078659057617" y="620.6123733520508" type="line"/>
      <point x="205.56912231445312" y="548.4164962768555" type="line"/>
      <point x="121.86246204050789" y="496.95753641185433"/>
      <point x="66.5519287833828" y="407.5176959149878"/>
    </contour>
  </outline>
</glyph>
<glyph name="quote" format="2">
  <advance width="286.81599210266535"/>
  <unicode hex="0027"/>
  <outline>
    <contour>
      <point x="115.51629" y="724.59218" type="line"/>
      <point x="171.2997" y="724.59218" type="line"/>
      <point x="171.2997" y="1075.53554" type="line"/>
      <point x="115.51629" y="1075.53554" type="line"/>
    </contour>
  </outline>
</glyph>
<glyph name="parenleft" format="2">
  <advance width="444.4069373534675"/>
  <unicode hex="0028"/>
  <outline>
    <contour>
      <point x="152.83119482299804" y="537.7677694299316" type="curve" smooth="yes"/>
      <point x="152.83119" y="334.62774"/>
      <point x="216.1263" y="136.9016"/>
      <point x="333.34567" y="-28.13238" type="curve"/>
      <point x="403.52044677734375" y="-28.13237762451172" type="line"/>
      <point x="278.0126" y="132.95914"/>
      <point x="209.48103" y="332.43256"/>
      <point x="209.48103" y="537.76777" type="curve"/>
      <point x="209.48103" y="742.73009"/>
      <point x="277.76392" y="941.85189"/>
      <point x="403.52046" y="1103.66792" type="curve"/>
      <point x="333.347900390625" y="1103.6679229736328" type="line"/>
      <point x="216.12712" y="938.63648"/>
      <point x="152.83119" y="740.9091"/>
    </contour>
  </outline>
</glyph>
<glyph name="parenright" format="2">
  <advance width="388.2453633345997"/>
  <unicode hex="0029"/>
  <outline>
    <contour>
      <point x="39.8457" y="-27.24036" type="curve"/>
      <point x="100.50057" y="-27.24036" type="line"/>
      <point x="281.4782" y="351.74347"/>
      <point x="281.4778" y="792.35415"/>
      <point x="100.49937" y="1171.33531" type="curve"/>
      <point x="39.8457" y="1171.33531" type="line"/>
      <point x="229.05514" y="794.21181"/>
      <point x="229.05514" y="349.88314"/>
    </contour>
  </outline>
</glyph>
<glyph name="asterisk" format="2">
  <advance width="741.3892133803478"/>
  <unicode hex="002A"/>
  <outline>
    <contour>
      <point x="343.66612243652344" y="444.057861328125" type="line"/>
      <point x="397.7230911254883" y="444.057861328125" type="line"/>
      <point x="397.7230911254883" y="712.9108123779297" type="line"/>
      <point x="630.5565719604492" y="578.4843368530273" type="line"/>
      <point x="657.5850601196289" y="625.2990493774414" type="line"/>
      <point x="424.75157928466797" y="759.7255172729492" type="line"/>
      <point x="657.5850601196289" y="894.1519927978516" type="line"/>
      <point x="630.5565719604492" y="940.9666976928711" type="line"/>
      <point x="397.7230911254883" y="806.5402297973633" type="line"/>
      <point x="397.7230911254883" y="1075.393180847168" type="line"/>
      <point x="343.66612243652344" y="1075.393180847168" type="line"/>
      <point x="343.66612243652344" y="806.5402297973633" type="line"/>
      <point x="110.8326416015625" y="940.9666976928711" type="line"/>
      <point x="83.80415344238281" y="894.1519927978516" type="line"/>
      <point x="316.63763427734375" y="759.7255172729492" type="line"/>
      <point x="83.80415344238281" y="625.2990493774414" type="line"/>
      <point x="110.8326416015625" y="578.4843368530273" type="line"/>
      <point x="343.66612243652344" y="712.9108123779297" type="line"/>
    </contour>
  </outline>
</glyph>
<glyph name="plus" format="2">
  <advance width="991.2284866468843"/>
  <unicode hex="002B"/>
  <outline>
    <contour>
      <point x="115.85163116455078" y="459.34718322753906" type="line"/>
      <point x="468.37389373779297" y="459.34718322753906" type="line"/>
      <point x="468.37389373779297" y="106.8249282836914" type="line"/>
      <point x="522.8545989990234" y="106.8249282836914" type="line"/>
      <point x="522.8545989990234" y="459.34718322753906" type="line"/>
      <point x="875.3768463134766" y="459.34718322753906" type="line"/>
      <point x="875.3768463134766" y="513.8278884887695" type="line"/>
      <point x="522.8545989990234" y="513.8278884887695" type="line"/>
      <point x="522.8545989990234" y="866.3501510620117" type="line"/>
      <point x="468.37389373779297" y="866.3501510620117" type="line"/>
      <point x="468.37389373779297" y="513.8278884887695" type="line"/>
      <point x="115.85163116455078" y="513.8278884887695" type="line"/>
    </contour>
  </outline>
</glyph>
<glyph name="comma" format="2">
  <advance width="338.86882038144694"/>
  <unicode hex="002C"/>
  <outline>
    <contour>
      <point x="124.41609954833984" y="-228.7388687133789" type="line"/>
      <point x="202.68743429477567" y="-93.16896801322693"/>
      <point x="202.88068929678727" y="22.069639936786224"/>
      <point x="202.8806906693229" y="104.09495999999999" type="curve"/>
      <point x="202.8806915283203" y="155.43026733398438" type="line"/>
      <point x="148.3999786376953" y="155.43026733398438" type="line"/>
      <point x="148.3999786376953" y="104.09496307373047" type="line"/>
      <point x="148.3999786376953" y="25.63847490429354"/>
      <point x="148.39998000420377" y="-78.23614852230153"/>
      <point x="77.23442" y="-201.49852" type="curve"/>
    </contour>
  </outline>
</glyph>
<glyph name="hyphen" format="2">
  <advance width="695.5370919881306"/>
  <unicode hex="002D"/>
  <outline>
    <contour>
      <point x="114.62314540059347" y="459.3471810089021" type="line"/>
      <point x="580.9139465875371" y="459.3471810089021" type="line"/>
      <point x="580.9139465875371" y="513.8278931750742" type="line"/>
      <point x="114.62314540059347" y="513.8278931750742" type="line"/>
    </contour>
  </outline>
</glyph>
<glyph name="period" format="2">
  <advance width="328.593471810089"/>
  <unicode hex="002E"/>
  <outline>
    <contour>
      <point x="229.9940652818991" y="50.697329376854604" type="curve" smooth="yes"/>
      <point x="229.9940652818991" y="86.9566722338279"/>
      <point x="200.55607876201782" y="116.39465875370921"/>
      <point x="164.2967359050445" y="116.39465875370921" type="curve" smooth="yes"/>
      <point x="128.03739304807124" y="116.39465875370921"/>
      <point x="98.59940652818992" y="86.9566722338279"/>
      <point x="98.59940652818992" y="50.69732937685461" type="curve" smooth="yes"/>
      <point x="98.5994065281899" y="14.437986519881317"/>
      <point x="128.0373930480712" y="-14.999999999999991"/>
      <point x="164.2967359050445" y="-14.999999999999998" type="curve" smooth="yes"/>
      <point x="200.5560787620178" y="-15.000000000000005"/>
      <point x="229.9940652818991" y="14.437986519881294"/>
    </contour>
  </outline>
</glyph>
<glyph name="slash" format="2">
  <advance width="697.8302386059813"/>
  <unicode hex="002F"/>
  <outline>
    <contour>
      <point x="115.85163" y="-64.09496" type="line"/>
      <point x="173.82879" y="-64.09496" type="line"/>
      <point x="630.04982" y="1189.36202" type="line"/>
      <point x="572.07266" y="1189.36202" type="line"/>
    </contour>
  </outline>
</glyph>
<glyph name="zero" format="2">
  <advance width="898.8249258160238"/>
  <unicode hex="0030"/>
  <outline>
    <contour>
      <point x="744.5163193108733" y="356.1178970336914" type="line"/>
      <point x="744.5163189259536" y="142.1008985271506"/>
      <point x="588.9194703930286" y="41.01405"/>
      <point x="449.41246" y="41.01405" type="curve" smooth="yes"/>
      <point x="309.9055251494047" y="41.01405000000001"/>
      <point x="154.30861047701433" y="142.1008341705079"/>
      <point x="154.3086099508276" y="356.1179" type="curve"/>
      <point x="154.30860905796146" y="719.2752685546875" type="line"/>
      <point x="154.30860853177543" y="933.292054834692"/>
      <point x="309.90518763664664" y="1034.37913"/>
      <point x="449.41246" y="1034.37913" type="curve" smooth="yes"/>
      <point x="588.9193948505954" y="1034.37913"/>
      <point x="744.5163203489489" y="933.2923358294921"/>
      <point x="744.516319964029" y="719.27527" type="curve"/>
    </contour>
    <contour>
      <point x="99.82788856373928" y="356.1178970336914" type="line"/>
      <point x="99.82788764284278" y="110.44642326605825"/>
      <point x="281.54124786084424" y="-13.46666999999998"/>
      <point x="449.41246" y="-13.46667" type="curve" smooth="yes"/>
      <point x="617.2836771391558" y="-13.46667"/>
      <point x="798.9970287878239" y="110.44642474921261"/>
      <point x="798.9970301074284" y="356.1179" type="curve"/>
      <point x="798.997032058099" y="719.2752685546875" type="line"/>
      <point x="798.9970333777036" y="964.9467423223207"/>
      <point x="617.2836721391558" y="1088.85984"/>
      <point x="449.41246" y="1088.85984" type="curve" smooth="yes"/>
      <point x="281.54124286084425" y="1088.85984"/>
      <point x="99.82789084592676" y="964.9467452507874"/>
      <point x="99.82788992503023" y="719.27527" type="curve"/>
    </contour>
  </outline>
</glyph>
<glyph name="one" format="2">
  <advance width="655.3563672260611"/>
  <unicode hex="0031"/>
  <outline>
    <contour>
      <point x="344.7364273071289" y="0" type="line"/>
      <point x="401.24185943603516" y="0" type="line"/>
      <point x="401.24185943603516" y="1075.5355377197266" type="line"/>
      <point x="344.7364273071289" y="1075.5355377197266" type="line"/>
      <point x="152.83119201660156" y="964.7389984130859" type="line"/>
      <point x="152.83119201660156" y="899.7700500488281" type="line"/>
      <point x="344.7364273071289" y="1010.5665893554688" type="line"/>
    </contour>
  </outline>
</glyph>
<glyph name="two" format="2">
  <advance width="895.0860534124629"/>
  <unicode hex="0032"/>
  <outline>
    <contour>
      <point x="110.51039123535156" y="0" type="line"/>
      <point x="789.9169082641602" y="0" type="line"/>
      <point x="789.9169082641602" y="54.480712890625" type="line"/>
      <point x="191.4662628173828" y="54.480712890625" type="line"/>
      <point x="664.0296582760272" y="484.4283727883836" type="line"/>
      <point x="698.5827047682114" y="515.8654278468582"/>
      <point x="789.91691" y="603.3885096421154"/>
      <point x="789.91691" y="749.15658" type="curve"/>
      <point x="789.91691" y="936.6439100000001"/>
      <point x="637.70099" y="1088.85984"/>
      <point x="450.21365" y="1088.85984" type="curve" smooth="yes"/>
      <point x="262.72632" y="1088.85984"/>
      <point x="110.51039" y="936.64391"/>
      <point x="110.51039" y="749.15658" type="curve"/>
      <point x="164.99109649658203" y="749.1565780639648" type="line"/>
      <point x="164.9911" y="906.57519"/>
      <point x="292.79504" y="1034.37913"/>
      <point x="450.21365" y="1034.37913" type="curve" smooth="yes"/>
      <point x="607.6322600000001" y="1034.37913"/>
      <point x="735.4362" y="906.57519"/>
      <point x="735.4362" y="749.15658" type="curve"/>
      <point x="735.4362" y="645.3518850414497"/>
      <point x="681.8825196727869" y="574.3265327045357"/>
      <point x="627.3658785720673" y="524.7261994436045" type="curve"/>
      <point x="110.51039123535156" y="54.480712890625" type="line"/>
    </contour>
  </outline>
</glyph>
<glyph name="three" format="2">
  <advance width="903.3115727002967"/>
  <unicode hex="0033"/>
  <outline>
    <contour>
      <point x="98.59941101074219" y="284.9900894165039" type="line"/>
      <point x="98.59941" y="119.42105"/>
      <point x="257.99533" y="-15.0"/>
      <point x="454.32641" y="-15.0" type="curve" smooth="yes"/>
      <point x="650.65749" y="-15.0"/>
      <point x="810.05341" y="119.42105"/>
      <point x="810.05341" y="284.99009" type="curve"/>
      <point x="810.05341" y="406.782668468"/>
      <point x="723.8031045340288" y="511.7208511199408"/>
      <point x="600.0463943481445" y="558.6875152587891" type="curve"/>
      <point x="711.6645606141442" y="604.4276102487712"/>
      <point x="788.68843" y="701.05554305472"/>
      <point x="788.6884299999999" y="812.74973" type="curve"/>
      <point x="788.68843" y="968.52789"/>
      <point x="638.86583" y="1095.0"/>
      <point x="454.32641" y="1095.0" type="curve" smooth="yes"/>
      <point x="269.78699" y="1095.0"/>
      <point x="119.96439" y="968.52789"/>
      <point x="119.96439" y="812.74973" type="curve"/>
      <point x="174.44509887695312" y="812.7497329711914" type="line"/>
      <point x="174.4451" y="938.45917"/>
      <point x="299.85571" y="1040.51929"/>
      <point x="454.32641" y="1040.51929" type="curve" smooth="yes"/>
      <point x="608.79711" y="1040.51929"/>
      <point x="734.20772" y="938.45917"/>
      <point x="734.20772" y="812.74973" type="curve"/>
      <point x="734.20772" y="687.04029"/>
      <point x="608.79711" y="584.98018"/>
      <point x="454.32641" y="584.98018" type="curve"/>
      <point x="390.23145294189453" y="584.9801788330078" type="line"/>
      <point x="390.23145294189453" y="530.4994583129883" type="line"/>
      <point x="454.32640838623047" y="530.4994583129883" type="line"/>
      <point x="620.58876" y="530.49946"/>
      <point x="755.5727" y="420.4904"/>
      <point x="755.5727" y="284.99009" type="curve"/>
      <point x="755.5727" y="149.48978"/>
      <point x="620.58876" y="39.48071"/>
      <point x="454.32641" y="39.48071" type="curve" smooth="yes"/>
      <point x="288.06406" y="39.48071"/>
      <point x="153.08012" y="149.48978"/>
      <point x="153.08012" y="284.99009" type="curve"/>
    </contour>
  </outline>
</glyph>
<glyph name="four" format="2">
  <advance width="953.839762611276"/>
  <unicode hex="0034"/>
  <outline>
    <contour>
      <point x="162.44840240478516" y="334.4955520629883" type="line"/>
      <point x="647.0004196166992" y="984.2593383789062" type="line"/>
      <point x="647.0004196166992" y="334.4955520629883" type="line"/>
    </contour>
    <contour>
      <point x="94.48664855957031" y="280.0148391723633" type="line"/>
      <point x="647.0004196166992" y="280.0148391723633" type="line"/>
      <point x="647.0004196166992" y="0" type="line"/>
      <point x="701.4811401367188" y="0" type="line"/>
      <point x="701.4811401367188" y="280.0148391723633" type="line"/>
      <point x="891.4005889892578" y="280.0148391723633" type="line"/>
      <point x="891.4005889892578" y="334.4955520629883" type="line"/>
      <point x="701.4811401367188" y="334.4955520629883" type="line"/>
      <point x="701.4811401367188" y="1075.393180847168" type="line"/>
      <point x="647.0004196166992" y="1075.393180847168" type="line"/>
      <point x="94.48664855957031" y="334.4955520629883" type="line"/>
    </contour>
  </outline>
</glyph>
<glyph name="five" format="2">
  <advance width="884.4787051416133"/>
  <unicode hex="0035"/>
  <outline>
    <contour>
      <point x="109.86705017089844" y="467.85118103027344" type="line"/>
      <point x="173.59683990478516" y="467.85118103027344" type="line"/>
      <point x="221.44465" y="567.90013"/>
      <point x="323.62761" y="637.07507"/>
      <point x="441.83976" y="637.07507" type="curve" smooth="yes"/>
      <point x="605.8472200000001" y="637.07507"/>
      <point x="739.00047" y="503.92182000000014"/>
      <point x="739.00047" y="339.91436" type="curve"/>
      <point x="739.00047" y="172.3763899999999"/>
      <point x="602.9808900000002" y="42.75365"/>
      <point x="435.44292" y="42.75365" type="curve"/>
      <point x="314.08092" y="42.75365"/>
      <point x="209.25769" y="110.77106"/>
      <point x="160.69515" y="211.97754" type="curve"/>
      <point x="99.5241928100586" y="211.9775390625" type="line"/>
      <point x="151.37297" y="78.67062"/>
      <point x="282.29504" y="-13.51111"/>
      <point x="435.44292" y="-13.51111" type="curve"/>
      <point x="634.2278100000001" y="-13.51111"/>
      <point x="795.61592" y="141.1294699999999"/>
      <point x="795.61592" y="339.91436" type="curve"/>
      <point x="795.61592" y="534.8689200000001"/>
      <point x="639.5189000000001" y="693.14729"/>
      <point x="444.56434" y="693.14729" type="curve" smooth="yes"/>
      <point x="341.9451905758999" y="693.14729"/>
      <point x="249.41832993398356" y="650.2590489216183"/>
      <point x="184.47653198242188" y="581.2597122192383" type="curve"/>
      <point x="254.02518463134766" y="1019.2707824707031" type="line"/>
      <point x="753.803108215332" y="1019.2707824707031" type="line"/>
      <point x="753.803108215332" y="1075.5355377197266" type="line"/>
      <point x="206.1147918701172" y="1075.5355377197266" type="line"/>
    </contour>
  </outline>
</glyph>
<glyph name="six" format="2">
  <advance width="865.9228486646884"/>
  <unicode hex="0036"/>
  <outline>
    <contour>
      <point x="788.6884272997033" y="340.72700296735906" type="curve" smooth="yes"/>
      <point x="788.6884272997033" y="537.0580789246291"/>
      <point x="629.2925002896143" y="696.4540059347181"/>
      <point x="432.9614243323442" y="696.4540059347181" type="curve" smooth="yes"/>
      <point x="375.129160942991" y="696.4540059347181"/>
      <point x="320.50170647384243" y="682.623454189638"/>
      <point x="272.2091751098633" y="658.0913391113281" type="curve"/>
      <point x="525.7174682617188" y="1080" type="line"/>
      <point x="462.15845489501953" y="1080" type="line"/>
      <point x="128.0438690185547" y="523.9399566650391" type="line"/>
      <point x="128.0539321899414" y="523.9339065551758" type="line"/>
      <point x="95.79643490932557" y="470.4221739560022"/>
      <point x="77.23442136498517" y="407.7251789688534"/>
      <point x="77.23442136498517" y="340.72700296735906" type="curve" smooth="yes"/>
      <point x="77.23442136498517" y="144.39592701008905"/>
      <point x="236.63034837507416" y="-15.0"/>
      <point x="432.96142433234417" y="-15.0" type="curve" smooth="yes"/>
      <point x="629.2925002896143" y="-15.00000000000006"/>
      <point x="788.6884272997033" y="144.39592701008897"/>
    </contour>
    <contour>
      <point x="734.2077151335311" y="340.72700296735906" type="curve" smooth="yes"/>
      <point x="734.2077151335311" y="174.4646503548961"/>
      <point x="599.223776944807" y="39.48071216617205"/>
      <point x="432.96142433234417" y="39.48071216617211" type="curve" smooth="yes"/>
      <point x="266.6990717198813" y="39.48071216617211"/>
      <point x="131.71513353115728" y="174.46465035489618"/>
      <point x="131.71513353115728" y="340.72700296735906" type="curve" smooth="yes"/>
      <point x="131.71513353115728" y="506.989355579822"/>
      <point x="266.6990717198813" y="641.973293768546"/>
      <point x="432.9614243323442" y="641.973293768546" type="curve" smooth="yes"/>
      <point x="599.2237769448072" y="641.973293768546"/>
      <point x="734.2077151335311" y="506.98935557982196"/>
    </contour>
  </outline>
</glyph>
<glyph name="seven" format="2">
  <advance width="836.3323442136831"/>
  <unicode hex="0037"/>
  <outline>
    <contour>
      <point x="162.85459899902344" y="0" type="line"/>
      <point x="224.19837951660156" y="0" type="line"/>
      <point x="752.528190612793" y="1020.9124603271484" type="line"/>
      <point x="752.528190612793" y="1075.393180847168" type="line"/>
      <point x="89.14540100097656" y="1075.393180847168" type="line"/>
      <point x="89.14540100097656" y="1020.9124603271484" type="line"/>
      <point x="691.1844100952148" y="1020.9124603271484" type="line"/>
    </contour>
  </outline>
</glyph>
<glyph name="eight" format="2">
  <advance width="913.9940652818991"/>
  <unicode hex="0038"/>
  <outline>
    <contour>
      <point x="820.7359050445104" y="289.31416913946583" type="curve" smooth="yes"/>
      <point x="820.7359050445104" y="413.5949017808573"/>
      <point x="731.4939784070855" y="520.574920279999"/>
      <point x="603.7442626953125" y="567.7996597290039" type="curve"/>
      <point x="713.2864600476723" y="613.2015803663934"/>
      <point x="788.6884272997033" y="707.8177051438555"/>
      <point x="788.6884272997033" y="817.0738130563798" type="curve" smooth="yes"/>
      <point x="788.6884272997033" y="970.4654500818917"/>
      <point x="640.0624953578636" y="1094.9999999999998"/>
      <point x="456.99703264094956" y="1094.9999999999998" type="curve" smooth="yes"/>
      <point x="273.93156992403567" y="1094.9999999999998"/>
      <point x="125.30563798219585" y="970.4654500818917"/>
      <point x="125.30563798219585" y="817.0738130563798" type="curve" smooth="yes"/>
      <point x="125.30563798219585" y="707.8141771362039"/>
      <point x="200.7124749484702" y="613.1954698507501"/>
      <point x="310.2607192993164" y="567.8053970336914" type="curve"/>
      <point x="182.5051522891253" y="520.5809924167656"/>
      <point x="93.25816023738872" y="413.598428847633"/>
      <point x="93.25816023738875" y="289.3141691394658" type="curve" smooth="yes"/>
      <point x="93.25816023738872" y="121.3586083925742"/>
      <point x="256.2440856035608" y="-15.0"/>
      <point x="456.9970326409495" y="-15.0" type="curve" smooth="yes"/>
      <point x="657.7499796783384" y="-15.00000000000006"/>
      <point x="820.7359050445104" y="121.35860839257411"/>
    </contour>
    <contour>
      <point x="734.2077151335311" y="817.0738130563798" type="curve" smooth="yes"/>
      <point x="734.2077151335311" y="693.750899375675"/>
      <point x="609.9937720130563" y="593.6283382789317"/>
      <point x="456.9970326409495" y="593.6283382789317" type="curve" smooth="yes"/>
      <point x="304.0002932688427" y="593.6283382789317"/>
      <point x="179.78635014836794" y="693.7508993756751"/>
      <point x="179.78635014836794" y="817.0738130563798" type="curve" smooth="yes"/>
      <point x="179.78635014836794" y="940.3967267370845"/>
      <point x="304.00029326884277" y="1040.5192878338278"/>
      <point x="456.99703264094956" y="1040.5192878338278" type="curve" smooth="yes"/>
      <point x="609.9937720130563" y="1040.5192878338278"/>
      <point x="734.2077151335311" y="940.3967267370845"/>
    </contour>
    <contour>
      <point x="766.2551928783382" y="289.31416913946583" type="curve" smooth="yes"/>
      <point x="766.2551928783382" y="151.42733173738125"/>
      <point x="627.6812563335311" y="39.48071216617205"/>
      <point x="456.9970326409495" y="39.48071216617208" type="curve" smooth="yes"/>
      <point x="286.3128089483679" y="39.48071216617208"/>
      <point x="147.73887240356083" y="151.4273317373813"/>
      <point x="147.73887240356083" y="289.31416913946583" type="curve" smooth="yes"/>
      <point x="147.73887240356083" y="427.20100654155044"/>
      <point x="286.312808948368" y="539.1476261127597"/>
      <point x="456.99703264094956" y="539.1476261127597" type="curve" smooth="yes"/>
      <point x="627.6812563335311" y="539.1476261127597"/>
      <point x="766.2551928783382" y="427.20100654155044"/>
    </contour>
  </outline>
</glyph>
<glyph name="nine" format="2">
  <advance width="884.4035608308606"/>
  <unicode hex="0039"/>
  <outline>
    <contour>
      <point x="805.94065" y="725.12097" type="curve" smooth="yes"/>
      <point x="805.94065" y="925.8739200000001"/>
      <point x="642.9547300000002" y="1088.85984"/>
      <point x="442.20178" y="1088.85984" type="curve" smooth="yes"/>
      <point x="241.44883" y="1088.85984"/>
      <point x="78.46291" y="925.87392"/>
      <point x="78.46291" y="725.12097" type="curve" smooth="yes"/>
      <point x="78.46291" y="524.36802"/>
      <point x="241.44883" y="361.3821"/>
      <point x="442.20178" y="361.3821" type="curve" smooth="yes"/>
      <point x="492.79172415295" y="361.3821"/>
      <point x="540.9832917981591" y="371.73244000874666"/>
      <point x="584.7725296020508" y="390.43421173095703" type="curve"/>
      <point x="309.86144256591797" y="0" type="line"/>
      <point x="376.4924774169922" y="0" type="line"/>
      <point x="728.082740992661" y="499.36711019627626" type="line"/>
      <point x="760.4885740660864" y="545.3934337093464"/>
      <point x="805.9406500000001" y="618.3767247294147"/>
    </contour>
    <contour>
      <point x="751.45994" y="725.12097" type="curve" smooth="yes"/>
      <point x="751.45994" y="554.43675"/>
      <point x="612.886" y="415.86281"/>
      <point x="442.20178" y="415.86281" type="curve" smooth="yes"/>
      <point x="271.51756" y="415.86281"/>
      <point x="132.94362" y="554.43675"/>
      <point x="132.94362" y="725.12097" type="curve" smooth="yes"/>
      <point x="132.94362" y="895.80519"/>
      <point x="271.51756" y="1034.37913"/>
      <point x="442.20178" y="1034.37913" type="curve" smooth="yes"/>
      <point x="612.886" y="1034.37913"/>
      <point x="751.45994" y="895.80519"/>
    </contour>
  </outline>
</glyph>
<glyph name="colon" format="2">
  <advance width="328.593471810089"/>
  <unicode hex="003A"/>
  <outline>
    <contour>
      <point x="229.9940652818991" y="708.8278931750743" type="curve" smooth="yes"/>
      <point x="229.9940652818991" y="745.0872360320476"/>
      <point x="200.55607876201782" y="774.5252225519289"/>
      <point x="164.2967359050445" y="774.5252225519289" type="curve" smooth="yes"/>
      <point x="128.03739304807124" y="774.5252225519289"/>
      <point x="98.59940652818992" y="745.0872360320476"/>
      <point x="98.59940652818992" y="708.8278931750743" type="curve" smooth="yes"/>
      <point x="98.5994065281899" y="672.568550318101"/>
      <point x="128.0373930480712" y="643.1305637982197"/>
      <point x="164.2967359050445" y="643.1305637982197" type="curve" smooth="yes"/>
      <point x="200.5560787620178" y="643.1305637982197"/>
      <point x="229.9940652818991" y="672.568550318101"/>
    </contour>
    <contour>
      <point x="229.9940652818991" y="50.697329376854604" type="curve" smooth="yes"/>
      <point x="229.9940652818991" y="86.9566722338279"/>
      <point x="200.55607876201782" y="116.39465875370921"/>
      <point x="164.2967359050445" y="116.39465875370921" type="curve" smooth="yes"/>
      <point x="128.03739304807124" y="116.39465875370921"/>
      <point x="98.59940652818992" y="86.9566722338279"/>
      <point x="98.59940652818992" y="50.69732937685461" type="curve" smooth="yes"/>
      <point x="98.5994065281899" y="14.437986519881317"/>
      <point x="128.0373930480712" y="-14.999999999999991"/>
      <point x="164.2967359050445" y="-14.999999999999998" type="curve" smooth="yes"/>
      <point x="200.5560787620178" y="-15.000000000000005"/>
      <point x="229.9940652818991" y="14.437986519881294"/>
    </contour>
  </outline>
</glyph>
<glyph name="semicolon" format="2">
  <advance width="339.9252528962878"/>
  <unicode hex="003B"/>
  <outline>
    <contour>
      <point x="240.09736" y="742.79716" type="curve" smooth="yes"/>
      <point x="240.09736" y="779.0565"/>
      <point x="210.65937" y="808.49449"/>
      <point x="174.40003" y="808.49449" type="curve" smooth="yes"/>
      <point x="138.14069" y="808.49449"/>
      <point x="108.7027" y="779.0565"/>
      <point x="108.7027" y="742.79716" type="curve" smooth="yes"/>
      <point x="108.7027" y="706.53781"/>
      <point x="138.14069" y="677.09983"/>
      <point x="174.40003" y="677.09983" type="curve" smooth="yes"/>
      <point x="210.65937" y="677.09983"/>
      <point x="240.09736" y="706.53781"/>
    </contour>
    <contour>
      <point x="125.64459228515625" y="-244.09496307373047" type="line"/>
      <point x="188.53145017239748" y="-135.17171005196008"/>
      <point x="201.64039115769148" y="-30.443002225202733"/>
      <point x="201.64038966908078" y="59.52521999999999" type="curve"/>
      <point x="201.64038848876953" y="130.86052703857422" type="line"/>
      <point x="147.15966796875" y="130.86052703857422" type="line"/>
      <point x="147.15966796875" y="59.52522277832031" type="line"/>
      <point x="147.15966796875" y="-24.226548803954472"/>
      <point x="135.31332033197293" y="-118.38679893720106"/>
      <point x="78.46291" y="-216.8546" type="curve"/>
    </contour>
  </outline>
</glyph>
<glyph name="less" format="2">
  <advance width="927.086762709773"/>
  <unicode hex="003C"/>
  <outline>
    <contour>
      <point x="811.5704727172852" y="106.61402130126953" type="line"/>
      <point x="811.5704727172852" y="169.64695739746094" type="line"/>
      <point x="184.19751739501953" y="486.6929931640625" type="line"/>
      <point x="811.5704727172852" y="803.7390213012695" type="line"/>
      <point x="811.5704727172852" y="866.7719573974609" type="line"/>
      <point x="115.51628875732422" y="514.8735122680664" type="line"/>
      <point x="115.51628875732422" y="458.51246643066406" type="line"/>
    </contour>
  </outline>
</glyph>
<glyph name="equal" format="2">
  <advance width="991.2284866468843"/>
  <unicode hex="003D"/>
  <outline>
    <contour>
      <point x="115.85163" y="582.72997" type="line"/>
      <point x="875.37685" y="582.72997" type="line"/>
      <point x="875.37685" y="637.21068" type="line"/>
      <point x="115.85163" y="637.21068" type="line"/>
    </contour>
    <contour>
      <point x="115.85163" y="335.96439" type="line"/>
      <point x="875.37685" y="335.96439" type="line"/>
      <point x="875.37685" y="390.4451" type="line"/>
      <point x="115.85163" y="390.4451" type="line"/>
    </contour>
  </outline>
</glyph>
<glyph name="greater" format="2">
  <advance width="927.086762709773"/>
  <unicode hex="003E"/>
  <outline>
    <contour>
      <point x="115.51628875732422" y="106.61402130126953" type="line"/>
      <point x="811.5704727172852" y="458.51246643066406" type="line"/>
      <point x="811.5704727172852" y="514.8735122680664" type="line"/>
      <point x="115.51628875732422" y="866.7719573974609" type="line"/>
      <point x="115.51628875732422" y="803.7390213012695" type="line"/>
      <point x="742.8892517089844" y="486.6929931640625" type="line"/>
      <point x="115.51628875732422" y="169.64695739746094" type="line"/>
    </contour>
  </outline>
</glyph>
<glyph name="question" format="2">
  <advance width="796.486646884273"/>
  <unicode hex="003F"/>
  <outline>
    <contour>
      <point x="371.00296783447266" y="269.15430450439453" type="line"/>
      <point x="425.48368072509766" y="269.15430450439453" type="line"/>
      <point x="425.48368072509766" y="464.8293991088867" type="line"/>
      <point x="586.9725695591987" y="478.6555274976893"/>
      <point x="713.9109792284867" y="614.2868816786934"/>
      <point x="713.9109792284867" y="779.3323442136498" type="curve"/>
      <point x="713.9109792284867" y="953.5540647703265"/>
      <point x="572.4650439988131" y="1094.9999999999998"/>
      <point x="398.2433234421365" y="1094.9999999999998" type="curve" smooth="yes"/>
      <point x="224.02160288545997" y="1094.9999999999998"/>
      <point x="82.57566765578635" y="953.5540647703265"/>
      <point x="82.57566765578635" y="779.3323442136498" type="curve"/>
      <point x="137.05638122558594" y="779.3323440551758" type="line"/>
      <point x="137.05637982195844" y="923.4853414255193"/>
      <point x="254.09032623026707" y="1040.5192878338278"/>
      <point x="398.2433234421365" y="1040.5192878338278" type="curve" smooth="yes"/>
      <point x="542.396320654006" y="1040.5192878338278"/>
      <point x="659.4302670623146" y="923.4853414255192"/>
      <point x="659.4302670623146" y="779.3323442136498" type="curve"/>
      <point x="659.4302670623146" y="635.1793470017805"/>
      <point x="542.396320654006" y="518.1454005934718"/>
      <point x="398.2433234421365" y="518.1454005934718" type="curve"/>
      <point x="371.00296783447266" y="518.1454010009766" type="line"/>
    </contour>
    <contour>
      <point x="463.9406528189911" y="50.697329376854604" type="curve" smooth="yes"/>
      <point x="463.9406528189911" y="86.9566722338279"/>
      <point x="434.50266629910976" y="116.39465875370921"/>
      <point x="398.2433234421365" y="116.39465875370921" type="curve" smooth="yes"/>
      <point x="361.9839805851632" y="116.39465875370921"/>
      <point x="332.5459940652819" y="86.9566722338279"/>
      <point x="332.5459940652819" y="50.69732937685461" type="curve" smooth="yes"/>
      <point x="332.5459940652819" y="14.437986519881317"/>
      <point x="361.9839805851632" y="-14.999999999999991"/>
      <point x="398.2433234421365" y="-14.999999999999998" type="curve" smooth="yes"/>
      <point x="434.50266629910976" y="-15.000000000000005"/>
      <point x="463.9406528189911" y="14.437986519881294"/>
    </contour>
  </outline>
</glyph>
<glyph name="at" format="2">
  <advance width="1395.151335311573"/>
  <unicode hex="0040"/>
  <outline>
    <contour>
      <point x="1258.0949554896144" y="480.00000000000006" type="curve" smooth="yes"/>
      <point x="1258.0949554896144" y="335.7206636144129"/>
      <point x="1196.8272172752377" y="218.5841458245019"/>
      <point x="1121.362547689699" y="218.5841458245019" type="curve"/>
      <point x="1062.995428671804" y="218.5841458245019"/>
      <point x="1015.608732513777" y="271.2360304445316"/>
      <point x="1015.608732513777" y="336.0883849088597" type="curve"/>
      <point x="1015.6087341308594" y="784.1013107299805" type="line"/>
      <point x="961.1280212402344" y="784.1013107299805" type="line"/>
      <point x="961.1280212402344" y="653.8165893554688" type="line"/>
      <point x="902.7591203730149" y="741.3783527364379"/>
      <point x="803.1162902891986" y="799.1013141161509"/>
      <point x="690.0979228486648" y="799.101314116151" type="curve" smooth="yes"/>
      <point x="510.4436178221281" y="799.1013141161509"/>
      <point x="364.5871131835524" y="653.2448094775754"/>
      <point x="364.5871131835524" y="473.5905044510386" type="curve" smooth="yes"/>
      <point x="364.5871131835524" y="293.936199424502"/>
      <point x="510.44361782212803" y="148.07969478592628"/>
      <point x="690.0979228486648" y="148.07969478592628" type="curve" smooth="yes"/>
      <point x="805.570008787251" y="148.07969478592625"/>
      <point x="907.0794656214463" y="208.3362870302178"/>
      <point x="964.8709716796875" y="299.09798431396484" type="curve"/>
      <point x="980.6904212694023" y="221.87846227583304"/>
      <point x="1044.7900198365837" y="164.1034336583298"/>
      <point x="1121.362547689699" y="164.10343365832975" type="curve"/>
      <point x="1226.8959406200445" y="164.10343365832978"/>
      <point x="1312.5756676557864" y="305.65194026960575"/>
      <point x="1312.5756676557864" y="480.00000000000006" type="curve"/>
      <point x="1312.5756676557864" y="819.4277373000001"/>
      <point x="1037.0034049557864" y="1095.0"/>
      <point x="697.5756676557863" y="1095.0" type="curve" smooth="yes"/>
      <point x="358.1479303557864" y="1095.0"/>
      <point x="82.57566765578635" y="819.4277373000001"/>
      <point x="82.57566765578635" y="480.00000000000006" type="curve" smooth="yes"/>
      <point x="82.57566765578635" y="140.57226270000004"/>
      <point x="358.14793035578623" y="-135.0"/>
      <point x="697.5756676557862" y="-135.0" type="curve" smooth="yes"/>
      <point x="880.4970089918666" y="-135.00000000000006"/>
      <point x="1044.8731199078252" y="-54.96690743935346"/>
      <point x="1157.5672386463743" y="71.96693669440839" type="curve"/>
      <point x="1081.7160339355469" y="71.96693420410156" type="line"/>
      <point x="981.3578884365418" y="-22.563438115971405"/>
      <point x="846.1815291124005" y="-80.51928783382793"/>
      <point x="697.5756676557862" y="-80.51928783382792" type="curve" smooth="yes"/>
      <point x="388.2166537005934" y="-80.51928783382789"/>
      <point x="137.05637982195844" y="170.6409860448072"/>
      <point x="137.05637982195844" y="480.00000000000006" type="curve" smooth="yes"/>
      <point x="137.05637982195844" y="789.3590139551931"/>
      <point x="388.21665370059355" y="1040.519287833828"/>
      <point x="697.5756676557863" y="1040.519287833828" type="curve" smooth="yes"/>
      <point x="1006.9346816109793" y="1040.519287833828"/>
      <point x="1258.0949554896144" y="789.359013955193"/>
    </contour>
    <contour>
      <point x="961.1280203476049" y="473.5905044510386" type="curve" smooth="yes"/>
      <point x="961.1280203476049" y="324.004922769309"/>
      <point x="839.6835045303943" y="202.56040695209833"/>
      <point x="690.0979228486648" y="202.5604069520984" type="curve" smooth="yes"/>
      <point x="540.5123411669352" y="202.56040695209845"/>
      <point x="419.06782534972444" y="324.0049227693091"/>
      <point x="419.0678253497245" y="473.5905044510386" type="curve" smooth="yes"/>
      <point x="419.0678253497245" y="623.1760861327682"/>
      <point x="540.5123411669352" y="744.6206019499788"/>
      <point x="690.0979228486648" y="744.6206019499788" type="curve" smooth="yes"/>
      <point x="839.6835045303943" y="744.6206019499788"/>
      <point x="961.1280203476049" y="623.1760861327682"/>
    </contour>
  </outline>
</glyph>
<glyph name="A" format="2">
  <advance width="1048.3130563799266"/>
  <unicode hex="0041"/>
  <anchor x="524.156528189911" y="1203.5830860534124" name="above" identifier="above"/>
  <anchor x="524.156528189911" y="-128.1899109792285" name="below" identifier="below"/>
  <anchor x="1028.6038575667656" y="0" name="ogonek" identifier="ogonek"/>
  <outline>
    <contour>
      <point x="19.709197998046875" y="0" type="line"/>
      <point x="79.26107788085938" y="0" type="line"/>
      <point x="236.0408477783203" y="355.19287872314453" type="line"/>
      <point x="812.2722091674805" y="355.19287872314453" type="line"/>
      <point x="969.0519790649414" y="0" type="line"/>
      <point x="1028.603858947754" y="0" type="line"/>
      <point x="553.9324722290039" y="1075.393180847168" type="line"/>
      <point x="494.3805923461914" y="1075.393180847168" type="line"/>
    </contour>
    <contour>
      <point x="260.08827209472656" y="409.67359161376953" type="line"/>
      <point x="524.1565322875977" y="1007.934211730957" type="line"/>
      <point x="788.2247848510742" y="409.67359161376953" type="line"/>
    </contour>
  </outline>
</glyph>
<glyph name="B" format="2">
  <advance width="972.7477744807121"/>
  <unicode hex="0042"/>
  <anchor x="495.40949554896144" y="1208.1899109792284" name="above" identifier="above"/>
  <anchor x="495.40949554896144" y="-128.1899109792285" name="below" identifier="below"/>
  <outline>
    <contour>
      <point x="114.62315368652344" y="0" type="line"/>
      <point x="602.5756683349609" y="0.0" type="line"/>
      <point x="809.8827975343398" y="0.0"/>
      <point x="906.19585" y="150.0508565891368"/>
      <point x="906.19585" y="283.62018" type="curve" smooth="yes"/>
      <point x="906.19585" y="407.07543998217005"/>
      <point x="827.1465380879279" y="512.2134408889344"/>
      <point x="716.945930480957" y="551.1267929077148" type="curve"/>
      <point x="801.3458597692381" y="600.2778480835259"/>
      <point x="858.12463" y="691.7504622572401"/>
      <point x="858.12463" y="796.3798200000001" type="curve" smooth="yes"/>
      <point x="858.12463" y="929.9491434108631"/>
      <point x="761.8115833668593" y="1080.0"/>
      <point x="554.50445" y="1080.0" type="curve"/>
      <point x="114.62315368652344" y="1080" type="line"/>
    </contour>
    <contour>
      <point x="554.5044479370117" y="1025.519287109375" type="line"/>
      <point x="730.7005125962178" y="1025.519287109375"/>
      <point x="803.64392" y="900.881266372559"/>
      <point x="803.64392" y="796.37982" type="curve" smooth="yes"/>
      <point x="803.64392" y="691.878373627441"/>
      <point x="730.700513627712" y="567.2403613695792"/>
      <point x="554.50445" y="567.2403598246333" type="curve"/>
      <point x="169.1038589477539" y="567.2403564453125" type="line"/>
      <point x="169.1038589477539" y="1025.519287109375" type="line"/>
    </contour>
    <contour>
      <point x="602.5756683349609" y="512.7596435546875" type="line"/>
      <point x="778.771732994167" y="512.7596435546875"/>
      <point x="851.71513" y="388.1216263725591"/>
      <point x="851.71513" y="283.62018" type="curve" smooth="yes"/>
      <point x="851.71513" y="179.11873362744092"/>
      <point x="778.7717336277119" y="54.48070900433889"/>
      <point x="602.57567" y="54.480710127488635" type="curve"/>
      <point x="169.1038589477539" y="54.480712890625" type="line"/>
      <point x="169.1038589477539" y="512.7596435546875" type="line"/>
    </contour>
  </outline>
</glyph>
<glyph name="C" format="2">
  <advance width="1215.122367157073"/>
  <unicode hex="0043"/>
  <outline>
    <contour>
      <point x="632.2344213649851" y="39.48071216617217" type="curve" smooth="yes"/>
      <point x="355.9903086097922" y="39.48071216617217"/>
      <point x="131.71513353115722" y="263.7558872448071"/>
      <point x="131.71513353115728" y="540.0" type="curve" smooth="yes"/>
      <point x="131.71513353115728" y="816.244112755193"/>
      <point x="355.9903086097923" y="1040.5192878338278"/>
      <point x="632.2344213649851" y="1040.5192878338278" type="curve" smooth="yes"/>
      <point x="821.3961687475692" y="1040.5192878338278"/>
      <point x="986.1896622242014" y="935.3565761168394"/>
      <point x="1071.2897456590783" y="780.3560803693551" type="curve"/>
      <point x="1132.5466995012866" y="780.3560803693551" type="line"/>
      <point x="1042.8976854707084" y="966.4548846953877"/>
      <point x="852.4592601304246" y="1094.9999999999998"/>
      <point x="632.2344213649851" y="1094.9999999999998" type="curve" smooth="yes"/>
      <point x="325.9215852649852" y="1094.9999999999998"/>
      <point x="77.23442136498517" y="846.3128361"/>
      <point x="77.23442136498517" y="540.0" type="curve" smooth="yes"/>
      <point x="77.23442136498517" y="233.68716390000006"/>
      <point x="325.9215852649851" y="-15.0"/>
      <point x="632.2344213649851" y="-15.0" type="curve" smooth="yes"/>
      <point x="852.457728566244" y="-15.0"/>
      <point x="1042.8950366429822" y="113.543327364517"/>
      <point x="1132.5447027279997" y="299.64391419724825" type="curve"/>
      <point x="1071.282940329713" y="299.64391419724825" type="line"/>
      <point x="986.1805172125714" y="144.63758810113882"/>
      <point x="821.3909201094268" y="39.48071216617208"/>
    </contour>
  </outline>
</glyph>
<glyph name="D" format="2">
  <advance width="1109.4703264094956"/>
  <unicode hex="0044"/>
  <anchor x="546.4961918892186" y="1203.5830860534124" name="above" identifier="above"/>
  <anchor x="546.4961918892186" y="-128.1899109792285" name="below" identifier="below"/>
  <anchor x="115.85163204747775" y="537.696587537092" name="stroke" identifier="stroke"/>
  <outline>
    <contour>
      <point x="115.85163116455078" y="0" type="line"/>
      <point x="473.31082916259766" y="0.0" type="line"/>
      <point x="828.6234330584684" y="0.0"/>
      <point x="1031.00742" y="272.4576128628288"/>
      <point x="1031.00742" y="537.69659" type="curve" smooth="yes"/>
      <point x="1031.00742" y="802.9355621371711"/>
      <point x="828.6234334771698" y="1075.3931792474257"/>
      <point x="473.31083" y="1075.393180044888" type="curve"/>
      <point x="115.85163116455078" y="1075.393180847168" type="line"/>
    </contour>
    <contour>
      <point x="473.31082916259766" y="1020.9124603271484" type="line"/>
      <point x="796.7758477399889" y="1020.9124603271484"/>
      <point x="976.52671" y="774.8681685710696"/>
      <point x="976.52671" y="537.69659" type="curve" smooth="yes"/>
      <point x="976.52671" y="300.52501142893016"/>
      <point x="796.77584815869" y="54.48070728401864"/>
      <point x="473.31083" y="54.48071017899799" type="curve"/>
      <point x="170.33233642578125" y="54.480712890625" type="line"/>
      <point x="170.33233642578125" y="1020.9124603271484" type="line"/>
    </contour>
  </outline>
</glyph>
<glyph name="E" format="2">
  <advance width="952.3709198813058"/>
  <unicode hex="0045"/>
  <anchor x="484.19732937685467" y="1203.5830860534124" name="above" identifier="above"/>
  <anchor x="484.19732937685467" y="-128.1899109792285" name="below" identifier="below"/>
  <anchor x="484.19732937685467" y="0" name="cedilla" identifier="cedilla"/>
  <anchor x="852.5430267062316" y="0" name="ogonek" identifier="ogonek"/>
  <outline>
    <contour>
      <point x="115.85163116455078" y="0" type="line"/>
      <point x="852.5430297851562" y="0" type="line"/>
      <point x="852.5430297851562" y="54.480712890625" type="line"/>
      <point x="170.33233642578125" y="54.480712890625" type="line"/>
      <point x="170.33233642578125" y="510.4562301635742" type="line"/>
      <point x="820.4955520629883" y="510.4562301635742" type="line"/>
      <point x="820.4955520629883" y="564.9369430541992" type="line"/>
      <point x="170.33233642578125" y="564.9369430541992" type="line"/>
      <point x="170.33233642578125" y="1020.9124603271484" type="line"/>
      <point x="847.2017822265625" y="1020.9124603271484" type="line"/>
      <point x="847.2017822265625" y="1075.393180847168" type="line"/>
      <point x="115.85163116455078" y="1075.393180847168" type="line"/>
    </contour>
  </outline>
</glyph>
<glyph name="F" format="2">
  <advance width="911.1097922848666"/>
  <unicode hex="0046"/>
  <anchor x="471.5786350148368" y="1203.5830860534124" name="above" identifier="above"/>
  <anchor x="115.85163204747775" y="0" name="hookleft" identifier="hookleft"/>
  <outline>
    <contour>
      <point x="115.85163116455078" y="0" type="line"/>
      <point x="170.33233642578125" y="0" type="line"/>
      <point x="170.33233642578125" y="501.37610626220703" type="line"/>
      <point x="731.163200378418" y="501.37610626220703" type="line"/>
      <point x="731.163200378418" y="555.856819152832" type="line"/>
      <point x="170.33233642578125" y="555.856819152832" type="line"/>
      <point x="170.33233642578125" y="1020.9124603271484" type="line"/>
      <point x="827.3056411743164" y="1020.9124603271484" type="line"/>
      <point x="827.3056411743164" y="1075.393180847168" type="line"/>
      <point x="115.85163116455078" y="1075.393180847168" type="line"/>
    </contour>
  </outline>
</glyph>
<glyph name="G" format="2">
  <advance width="1258.8590584140857"/>
  <unicode hex="0047"/>
  <anchor x="629.626162215628" y="1203.5830860534124" name="above" identifier="above"/>
  <anchor x="629.626162215628" y="-128.1899109792285" name="below" identifier="below"/>
  <outline>
    <contour>
      <point x="629.62616" y="41.01405" type="curve" smooth="yes"/>
      <point x="355.49961" y="41.01405"/>
      <point x="132.94362" y="263.57003"/>
      <point x="132.94362" y="537.69659" type="curve" smooth="yes"/>
      <point x="132.94362" y="811.82314"/>
      <point x="355.49961" y="1034.37913"/>
      <point x="629.62616" y="1034.37913" type="curve" smooth="yes"/>
      <point x="809.96964" y="1034.37913"/>
      <point x="967.99278" y="938.05437"/>
      <point x="1055.00925" y="794.07641" type="curve"/>
      <point x="1117.5614013671875" y="794.0764083862305" type="line"/>
      <point x="1025.22837" y="969.29988"/>
      <point x="841.27946" y="1088.85984"/>
      <point x="629.62616" y="1088.85984" type="curve" smooth="yes"/>
      <point x="325.43088" y="1088.85984"/>
      <point x="78.46291" y="841.89187"/>
      <point x="78.46291" y="537.69659" type="curve" smooth="yes"/>
      <point x="78.46291" y="233.50131"/>
      <point x="325.43088" y="-13.46667"/>
      <point x="629.62616" y="-13.46667" type="curve" smooth="yes"/>
      <point x="926.7924" y="-13.46667"/>
      <point x="1169.34548" y="222.2198"/>
      <point x="1180.39615" y="516.86572" type="curve"/>
      <point x="1126.3087005615234" y="516.8657264709473" type="line"/>
      <point x="629.6261596679688" y="516.8657302856445" type="line"/>
      <point x="629.6261596679688" y="462.385009765625" type="line"/>
      <point x="1120.598503112793" y="462.385009765625" type="line"/>
      <point x="1084.1907114299347" y="223.85407045988396"/>
      <point x="878.09223959522" y="41.01405000000011"/>
    </contour>
  </outline>
</glyph>
<glyph name="H" format="2">
  <advance width="1036.8961424332344"/>
  <unicode hex="0048"/>
  <anchor x="518.4480712166172" y="1203.5830860534124" name="above" identifier="above"/>
  <anchor x="518.4480712166172" y="-128.1899109792285" name="below" identifier="below"/>
  <anchor x="143.0919881305638" y="0" name="cedilla" identifier="cedilla"/>
  <anchor x="518.4480712166172" y="820.165059347181" name="stroke" identifier="stroke"/>
  <outline>
    <contour>
      <point x="115.85163116455078" y="0" type="line"/>
      <point x="170.33233642578125" y="0" type="line"/>
      <point x="170.33233642578125" y="510.4562301635742" type="line"/>
      <point x="866.5637969970703" y="510.4562301635742" type="line"/>
      <point x="866.5637969970703" y="0" type="line"/>
      <point x="921.0445098876953" y="0" type="line"/>
      <point x="921.0445098876953" y="1075.393180847168" type="line"/>
      <point x="866.5637969970703" y="1075.393180847168" type="line"/>
      <point x="866.5637969970703" y="564.9369430541992" type="line"/>
      <point x="170.33233642578125" y="564.9369430541992" type="line"/>
      <point x="170.33233642578125" y="1075.393180847168" type="line"/>
      <point x="115.85163116455078" y="1075.393180847168" type="line"/>
    </contour>
  </outline>
</glyph>
<glyph name="I" format="2">
  <advance width="286.1839762611276"/>
  <unicode hex="0049"/>
  <anchor x="143.0919881305638" y="1203.5830860534124" name="above" identifier="above"/>
  <anchor x="143.0919881305638" y="-128.1899109792285" name="below" identifier="below"/>
  <anchor x="170.33234421364986" y="0" name="ogonek" identifier="ogonek"/>
  <anchor x="143.0919881305638" y="537.696587537092" name="stroke" identifier="stroke"/>
  <outline>
    <contour>
      <point x="115.85163" y="0.0" type="line"/>
      <point x="170.33234" y="0.0" type="line"/>
      <point x="170.33234" y="1075.39318" type="line"/>
      <point x="115.85163" y="1075.39318" type="line"/>
    </contour>
  </outline>
</glyph>
<glyph name="J" format="2">
  <advance width="860.5816023738872"/>
  <unicode hex="004A"/>
  <outline>
    <contour>
      <point x="66.55192565917969" y="347.7151336669922" type="line"/>
      <point x="66.55192878338279" y="155.8059286540059"/>
      <point x="222.35785743738876" y="0.0"/>
      <point x="414.2670623145401" y="0.0" type="curve" smooth="yes"/>
      <point x="606.1762671916914" y="0.0"/>
      <point x="761.9821958456973" y="155.80592865400592"/>
      <point x="761.9821958456973" y="347.7151335311573" type="curve"/>
      <point x="761.9821929931641" y="1080" type="line"/>
      <point x="707.5014801025391" y="1080" type="line"/>
      <point x="707.5014801025391" y="347.7151336669922" type="line"/>
      <point x="707.5014836795252" y="185.87465199881305"/>
      <point x="576.1075438468843" y="54.48071216617211"/>
      <point x="414.2670623145401" y="54.48071216617211" type="curve" smooth="yes"/>
      <point x="252.4265807821959" y="54.48071216617211"/>
      <point x="121.0326409495549" y="185.87465199881302"/>
      <point x="121.0326409495549" y="347.7151335311572" type="curve"/>
    </contour>
  </outline>
</glyph>
<glyph name="K" format="2">
  <advance width="949.7804154303353"/>
  <unicode hex="004B"/>
  <outline>
    <contour>
      <point x="114.62315368652344" y="0" type="line"/>
      <point x="169.1038589477539" y="0" type="line"/>
      <point x="169.1038589477539" y="514.8961334228516" type="line"/>
      <point x="814.0661010742188" y="0" type="line"/>
      <point x="901.3887176513672" y="0" type="line"/>
      <point x="222.30503463745117" y="542.1364974975586" type="line"/>
      <point x="896.0363388061523" y="1080" type="line"/>
      <point x="808.7137222290039" y="1080" type="line"/>
      <point x="169.1038589477539" y="569.3768615722656" type="line"/>
      <point x="169.1038589477539" y="1080" type="line"/>
      <point x="114.62315368652344" y="1080" type="line"/>
    </contour>
  </outline>
</glyph>
<glyph name="L" format="2">
  <advance width="872.2522255192879"/>
  <unicode hex="004C"/>
  <anchor x="143.0919881305638" y="1203.5830860534124" name="above" identifier="above"/>
  <anchor x="468.173590504451" y="-128.1899109792285" name="below" identifier="below"/>
  <anchor x="298.52225519287833" y="1075.393175074184" name="caron" identifier="caron"/>
  <anchor x="115.85163204747775" y="537.696587537092" name="stroke" identifier="stroke"/>
  <anchor x="468.173590504451" y="537.696587537092" name="dotmiddle" identifier="dotmiddle"/>
  <outline>
    <contour>
      <point x="115.85163116455078" y="0" type="line"/>
      <point x="820.4955520629883" y="0" type="line"/>
      <point x="820.4955520629883" y="54.480712890625" type="line"/>
      <point x="170.33233642578125" y="54.480712890625" type="line"/>
      <point x="170.33233642578125" y="1075.393180847168" type="line"/>
      <point x="115.85163116455078" y="1075.393180847168" type="line"/>
    </contour>
  </outline>
</glyph>
<glyph name="M" format="2">
  <advance width="1197.066765578635"/>
  <unicode hex="004D"/>
  <anchor x="598.5333827893176" y="1203.5830860534124" name="above" identifier="above"/>
  <anchor x="598.5333827893176" y="-128.1899109792285" name="below" identifier="below"/>
  <outline>
    <contour>
      <point x="115.85163116455078" y="0" type="line"/>
      <point x="170.33233642578125" y="0" type="line"/>
      <point x="170.33233642578125" y="983.3833618164062" type="line"/>
      <point x="571.2930297851562" y="306.22032928466797" type="line"/>
      <point x="625.7737426757812" y="306.22032928466797" type="line"/>
      <point x="1026.7344207763672" y="983.3833465576172" type="line"/>
      <point x="1026.7344207763672" y="0" type="line"/>
      <point x="1081.2151336669922" y="0" type="line"/>
      <point x="1081.2151336669922" y="1075.393180847168" type="line"/>
      <point x="1017.9001007080078" y="1075.393180847168" type="line"/>
      <point x="598.5333786010742" y="367.1450881958008" type="line"/>
      <point x="179.16665649414062" y="1075.393180847168" type="line"/>
      <point x="115.85163116455078" y="1075.393180847168" type="line"/>
    </contour>
  </outline>
</glyph>
<glyph name="N" format="2">
  <advance width="1068.9436201780416"/>
  <unicode hex="004E"/>
  <anchor x="534.4718100890208" y="1203.5830860534124" name="above" identifier="above"/>
  <anchor x="534.4718100890208" y="-128.1899109792285" name="below" identifier="below"/>
  <anchor x="115.85163204747775" y="0" name="hookleft" identifier="hookleft"/>
  <outline>
    <contour>
      <point x="115.85163116455078" y="0" type="line"/>
      <point x="170.33233642578125" y="0" type="line"/>
      <point x="170.33233642578125" y="983.8249664306641" type="line"/>
      <point x="898.6112823486328" y="0" type="line"/>
      <point x="953.0919876098633" y="0" type="line"/>
      <point x="953.0919876098633" y="1075.393180847168" type="line"/>
      <point x="898.6112823486328" y="1075.393180847168" type="line"/>
      <point x="898.6112823486328" y="91.56819915771484" type="line"/>
      <point x="170.33233642578125" y="1075.393180847168" type="line"/>
      <point x="115.85163116455078" y="1075.393180847168" type="line"/>
    </contour>
  </outline>
</glyph>
<glyph name="O" format="2">
  <advance width="1264.4688427299702"/>
  <unicode hex="004F"/>
  <outline>
    <contour>
      <point x="1187.234421364985" y="540.0" type="curve" smooth="yes"/>
      <point x="1187.234421364985" y="846.3128361"/>
      <point x="938.5472574649853" y="1094.9999999999998"/>
      <point x="632.2344213649851" y="1094.9999999999998" type="curve" smooth="yes"/>
      <point x="325.9215852649852" y="1094.9999999999998"/>
      <point x="77.23442136498517" y="846.3128361"/>
      <point x="77.23442136498517" y="540.0" type="curve" smooth="yes"/>
      <point x="77.23442136498517" y="233.68716390000006"/>
      <point x="325.9215852649851" y="-15.0"/>
      <point x="632.2344213649851" y="-15.0" type="curve" smooth="yes"/>
      <point x="938.547257464985" y="-15.0"/>
      <point x="1187.234421364985" y="233.6871638999999"/>
    </contour>
    <contour>
      <point x="1132.7537091988129" y="540.0" type="curve" smooth="yes"/>
      <point x="1132.7537091988129" y="263.75588724480696"/>
      <point x="908.478534120178" y="39.48071216617205"/>
      <point x="632.2344213649851" y="39.48071216617211" type="curve" smooth="yes"/>
      <point x="355.9903086097922" y="39.48071216617217"/>
      <point x="131.71513353115722" y="263.7558872448071"/>
      <point x="131.71513353115728" y="540.0" type="curve" smooth="yes"/>
      <point x="131.71513353115728" y="816.244112755193"/>
      <point x="355.9903086097923" y="1040.5192878338278"/>
      <point x="632.2344213649851" y="1040.5192878338278" type="curve" smooth="yes"/>
      <point x="908.478534120178" y="1040.5192878338278"/>
      <point x="1132.7537091988129" y="816.2441127551929"/>
    </contour>
  </outline>
</glyph>
<glyph name="P" format="2">
  <advance width="972.7477744807121"/>
  <unicode hex="0050"/>
  <anchor x="487.39762611275967" y="1208.1899109792284" name="above" identifier="above"/>
  <outline>
    <contour>
      <point x="114.62315368652344" y="0" type="line"/>
      <point x="169.1038589477539" y="0" type="line"/>
      <point x="169.1038589477539" y="412.03900146484375" type="line"/>
      <point x="536.1916122436523" y="412.03900146484375" type="line"/>
      <point x="772.7296456885197" y="412.03900146484375"/>
      <point x="890.17211" y="586.1893216704266"/>
      <point x="890.17211" y="746.0195" type="curve" smooth="yes"/>
      <point x="890.17211" y="905.8496783295734"/>
      <point x="772.7296445666935" y="1080.0"/>
      <point x="536.19161" y="1080.0" type="curve"/>
      <point x="114.62315368652344" y="1080" type="line"/>
    </contour>
    <contour>
      <point x="536.1916122436523" y="1025.519287109375" type="line"/>
      <point x="741.2934615745041" y="1025.519287109375"/>
      <point x="835.69139" y="877.2155636514678"/>
      <point x="835.69139" y="746.0195" type="curve" smooth="yes"/>
      <point x="835.69139" y="614.8234363485321"/>
      <point x="741.293460452678" y="466.5197115655616"/>
      <point x="536.19161" y="466.5197098308432" type="curve"/>
      <point x="169.1038589477539" y="466.5197067260742" type="line"/>
      <point x="169.1038589477539" y="1025.519287109375" type="line"/>
    </contour>
  </outline>
</glyph>
<glyph name="Q" format="2">
  <advance width="1267.798318496538"/>
  <unicode hex="0051"/>
  <anchor x="629.626162215628" y="1203.5830860534124" name="above" identifier="above"/>
  <anchor x="629.626162215628" y="-128.1899109792285" name="below" identifier="below"/>
  <anchor x="629.626162215628" y="0" name="ogonek" identifier="ogonek"/>
  <anchor x="629.626162215628" y="537.6965875370919" name="stroke" identifier="stroke"/>
  <anchor x="629.626162215628" y="1088.8598417408507" name="horn" identifier="horn"/>
  <outline>
    <contour>
      <point x="1158.8124313354492" y="0" type="line"/>
      <point x="1022.5443496704102" y="151.3410415649414" type="line"/>
      <point x="1120.3921716709447" y="250.8274692725846"/>
      <point x="1180.78942" y="387.26441915800007"/>
      <point x="1180.78942" y="537.6965900000001" type="curve" smooth="yes"/>
      <point x="1180.78942" y="841.89187"/>
      <point x="933.82144" y="1088.85984"/>
      <point x="629.62616" y="1088.85984" type="curve" smooth="yes"/>
      <point x="325.43088" y="1088.85984"/>
      <point x="78.46291" y="841.89187"/>
      <point x="78.46291" y="537.69659" type="curve" smooth="yes"/>
      <point x="78.46291" y="233.50131"/>
      <point x="325.43088" y="-13.46667"/>
      <point x="629.62616" y="-13.46667" type="curve" smooth="yes"/>
      <point x="763.80943576552" y="-13.46667"/>
      <point x="886.857586601655" y="34.5876556602678"/>
      <point x="982.4850463867188" y="114.4112548828125" type="curve"/>
      <point x="1085.5014038085938" y="0" type="line"/>
    </contour>
    <contour>
      <point x="1126.3087" y="537.69659" type="curve" smooth="yes"/>
      <point x="1126.3087" y="403.326603452"/>
      <point x="1072.834834035653" y="281.34755909581895"/>
      <point x="986.024787902832" y="191.9001235961914" type="curve"/>
      <point x="795.708740234375" y="403.2675018310547" type="line"/>
      <point x="722.3977127075195" y="403.2675018310547" type="line"/>
      <point x="946.0037612915039" y="154.92782592773438" type="line"/>
      <point x="860.0586821346178" y="83.78419599882591"/>
      <point x="749.7977613728" y="41.01405000000002"/>
      <point x="629.62616" y="41.01405000000001" type="curve" smooth="yes"/>
      <point x="355.49961" y="41.01405"/>
      <point x="132.94362" y="263.57003"/>
      <point x="132.94362" y="537.69659" type="curve" smooth="yes"/>
      <point x="132.94362" y="811.82314"/>
      <point x="355.49961" y="1034.37913"/>
      <point x="629.62616" y="1034.37913" type="curve" smooth="yes"/>
      <point x="903.75272" y="1034.37913"/>
      <point x="1126.3087" y="811.82314"/>
    </contour>
  </outline>
</glyph>
<glyph name="R" format="2">
  <advance width="977.1243893614113"/>
  <unicode hex="0052"/>
  <outline>
    <contour>
      <point x="114.6231460571289" y="0" type="line"/>
      <point x="169.1038589477539" y="0" type="line"/>
      <point x="169.1038589477539" y="412.03900146484375" type="line"/>
      <point x="542.9813613891602" y="412.03900146484375" type="line"/>
      <point x="867.8971176147461" y="0" type="line"/>
      <point x="937.278694152832" y="0" type="line"/>
      <point x="609.0666732788086" y="416.21912384033203" type="line"/>
      <point x="768.3077269304268" y="441.5822458126967"/>
      <point x="890.1721068249258" y="579.6816945152377"/>
      <point x="890.1721068249258" y="746.0194997880458" type="curve" smooth="yes"/>
      <point x="890.1721068249258" y="930.3483542421366"/>
      <point x="740.5204610670622" y="1080.0"/>
      <point x="556.1916066129716" y="1080.0" type="curve"/>
      <point x="114.6231460571289" y="1080" type="line"/>
    </contour>
    <contour>
      <point x="556.1916046142578" y="1025.519287109375" type="line"/>
      <point x="710.4517377222552" y="1025.519287833828"/>
      <point x="835.6913946587537" y="900.2796308973295"/>
      <point x="835.6913946587537" y="746.0194997880458" type="curve" smooth="yes"/>
      <point x="835.6913946587537" y="591.7593686787621"/>
      <point x="710.4517377222553" y="466.51971174226367"/>
      <point x="556.1916066129716" y="466.51971174226367" type="curve"/>
      <point x="169.1038589477539" y="466.51971435546875" type="line"/>
      <point x="169.1038589477539" y="1025.519287109375" type="line"/>
    </contour>
  </outline>
</glyph>
<glyph name="S" format="2">
  <advance width="967.4065281899109"/>
  <unicode hex="0053"/>
  <anchor x="483.7032640949555" y="1208.1899109792284" name="above" identifier="above"/>
  <anchor x="483.7032640949555" y="-128.1899109792285" name="below" identifier="below"/>
  <anchor x="483.7032640949555" y="0" name="cedilla" identifier="cedilla"/>
  <outline>
    <contour>
      <point x="61.21067810058594" y="279.3249282836914" type="line"/>
      <point x="61.21068" y="117.19214"/>
      <point x="250.07837" y="-15.0"/>
      <point x="483.70326" y="-15.0" type="curve" smooth="yes"/>
      <point x="717.3281600000001" y="-15.0"/>
      <point x="906.19585" y="117.19213999999991"/>
      <point x="906.19585" y="279.32493" type="curve"/>
      <point x="906.19585" y="401.3566454637899"/>
      <point x="789.0837244037091" y="526.6327679602915"/>
      <point x="534.3469048156783" y="571.5497328496598" type="curve"/>
      <point x="447.49680673461467" y="586.8637452191879" type="line"/>
      <point x="330.9300737548848" y="607.4176010025271"/>
      <point x="149.30564" y="674.9702949231489"/>
      <point x="149.30564" y="813.49407" type="curve"/>
      <point x="149.30564" y="938.53711"/>
      <point x="298.76736" y="1040.51929"/>
      <point x="483.70326" y="1040.51929" type="curve" smooth="yes"/>
      <point x="668.63916" y="1040.51929"/>
      <point x="818.10089" y="938.53711"/>
      <point x="818.10089" y="813.49407" type="curve"/>
      <point x="874.1483688354492" y="813.4940719604492" type="line"/>
      <point x="874.14837" y="968.59298"/>
      <point x="699.56853" y="1095.0"/>
      <point x="483.70326" y="1095.0" type="curve" smooth="yes"/>
      <point x="267.8379999999999" y="1095.0"/>
      <point x="93.25816000000002" y="968.5929800000001"/>
      <point x="93.25816" y="813.49407" type="curve"/>
      <point x="93.25816" y="697.9308365027198"/>
      <point x="198.19077651019094" y="575.5019835360637"/>
      <point x="438.0363248203861" y="533.2107250863587" type="curve"/>
      <point x="524.8864333754148" y="517.8967014859069" type="line"/>
      <point x="650.8252486343063" y="495.69028146899205"/>
      <point x="850.14837" y="423.72319489149874"/>
      <point x="850.14837" y="279.32493" type="curve"/>
      <point x="850.14837" y="147.24722999999994"/>
      <point x="686.4022500000001" y="39.48071"/>
      <point x="483.70326" y="39.48071" type="curve" smooth="yes"/>
      <point x="281.00428" y="39.48071"/>
      <point x="117.25816" y="147.24723"/>
      <point x="117.25816" y="279.32493" type="curve"/>
    </contour>
  </outline>
</glyph>
<glyph name="T" format="2">
  <advance width="959.1810089020772"/>
  <unicode hex="0054"/>
  <anchor x="479.59050445103856" y="1203.5830860534124" name="above" identifier="above"/>
  <anchor x="479.59050445103856" y="-128.1899109792285" name="below" identifier="below"/>
  <anchor x="479.59050445103856" y="0" name="cedilla" identifier="cedilla"/>
  <anchor x="479.59050445103856" y="537.696587537092" name="stroke" identifier="stroke"/>
  <outline>
    <contour>
      <point x="452.3501510620117" y="0" type="line"/>
      <point x="506.8308563232422" y="0" type="line"/>
      <point x="506.8308563232422" y="1020.9124603271484" type="line"/>
      <point x="891.4005889892578" y="1020.9124603271484" type="line"/>
      <point x="891.4005889892578" y="1075.393180847168" type="line"/>
      <point x="67.7804183959961" y="1075.393180847168" type="line"/>
      <point x="67.7804183959961" y="1020.9124603271484" type="line"/>
      <point x="452.3501510620117" y="1020.9124603271484" type="line"/>
    </contour>
  </outline>
</glyph>
<glyph name="U" format="2">
  <advance width="1042.1839762611276"/>
  <unicode hex="0055"/>
  <anchor x="521.0919881305638" y="1208.1899109792284" name="above" identifier="above"/>
  <anchor x="521.0919881305638" y="-128.1899109792285" name="below" identifier="below"/>
  <anchor x="521.0919881305638" y="0" name="ogonek" identifier="ogonek"/>
  <anchor x="943.5845697329377" y="1080.0" name="horn" identifier="horn"/>
  <outline>
    <contour>
      <point x="98.59941101074219" y="427.4925765991211" type="line"/>
      <point x="98.5994110107422" y="139.43940263977225"/>
      <point x="315.3240916373403" y="-14.999999999999975"/>
      <point x="521.09199" y="-15.0" type="curve" smooth="yes"/>
      <point x="726.8598883626597" y="-15.0"/>
      <point x="943.5845692672448" y="139.4394043402117"/>
      <point x="943.5845700546723" y="427.49258" type="curve"/>
      <point x="943.5845718383789" y="1080" type="line"/>
      <point x="889.1038589477539" y="1080" type="line"/>
      <point x="889.1038589477539" y="427.4925765991211" type="line"/>
      <point x="889.1038589477539" y="171.12788778983133"/>
      <point x="698.5671800322635" y="39.48071"/>
      <point x="521.09199" y="39.48071" type="curve" smooth="yes"/>
      <point x="343.6167999677365" y="39.48071000000002"/>
      <point x="153.0801213102815" y="171.12788949027077"/>
      <point x="153.08011988913051" y="427.49258" type="curve"/>
      <point x="153.08011627197266" y="1080" type="line"/>
      <point x="98.59941101074219" y="1080" type="line"/>
    </contour>
  </outline>
</glyph>
<glyph name="V" format="2">
  <advance width="1017.7344213649667"/>
  <unicode hex="0056"/>
  <anchor x="508.86721068249255" y="1203.5830860534124" name="above" identifier="above"/>
  <anchor x="508.86721068249255" y="-128.1899109792285" name="below" identifier="below"/>
  <outline>
    <contour>
      <point x="479.2964096069336" y="0" type="line"/>
      <point x="538.4380187988281" y="0" type="line"/>
      <point x="992.6839828491211" y="1075.393180847168" type="line"/>
      <point x="933.5423736572266" y="1075.393180847168" type="line"/>
      <point x="508.8672103881836" y="70.00666046142578" type="line"/>
      <point x="84.19204711914062" y="1075.393180847168" type="line"/>
      <point x="25.050453186035156" y="1075.393180847168" type="line"/>
    </contour>
  </outline>
</glyph>
<glyph name="W" format="2">
  <advance width="1483.8916913946796"/>
  <unicode hex="0057"/>
  <anchor x="741.9458456973294" y="1203.5830860534124" name="above" identifier="above"/>
  <anchor x="741.9458456973294" y="-128.1899109792285" name="below" identifier="below"/>
  <outline>
    <contour>
      <point x="371.87837982177734" y="0" type="line"/>
      <point x="429.03993225097656" y="0" type="line"/>
      <point x="741.9458465576172" y="985.3880004882812" type="line"/>
      <point x="1054.8517608642578" y="0" type="line"/>
      <point x="1112.013313293457" y="0" type="line"/>
      <point x="1453.5" y="1075.393180847168" type="line"/>
      <point x="1396.3384475708008" y="1075.393180847168" type="line"/>
      <point x="1083.4325332641602" y="90.00518035888672" type="line"/>
      <point x="770.5266189575195" y="1075.393180847168" type="line"/>
      <point x="713.3650665283203" y="1075.393180847168" type="line"/>
      <point x="400.4591522216797" y="90.00518035888672" type="line"/>
      <point x="87.55323791503906" y="1075.393180847168" type="line"/>
      <point x="30.391693115234375" y="1075.393180847168" type="line"/>
    </contour>
  </outline>
</glyph>
<glyph name="X" format="2">
  <advance width="983.964391691383"/>
  <unicode hex="0058"/>
  <outline>
    <contour>
      <point x="50.52819061279297" y="0" type="line"/>
      <point x="118.77056121826172" y="0" type="line"/>
      <point x="491.9822006225586" y="494.76564025878906" type="line"/>
      <point x="865.1938400268555" y="0" type="line"/>
      <point x="933.4362030029297" y="0" type="line"/>
      <point x="526.103385925293" y="540" type="line"/>
      <point x="933.4362030029297" y="1080" type="line"/>
      <point x="865.1938400268555" y="1080" type="line"/>
      <point x="491.9822006225586" y="585.2343597412109" type="line"/>
      <point x="118.77056121826172" y="1080" type="line"/>
      <point x="50.52819061279297" y="1080" type="line"/>
      <point x="457.8610153198242" y="540" type="line"/>
    </contour>
  </outline>
</glyph>
<glyph name="Y" format="2">
  <advance width="950.6350148367953"/>
  <unicode hex="0059"/>
  <anchor x="475.31750741839767" y="1203.5830860534124" name="above" identifier="above"/>
  <anchor x="475.31750741839767" y="-128.1899109792285" name="below" identifier="below"/>
  <outline>
    <contour>
      <point x="448.0771484375" y="0" type="line"/>
      <point x="502.557861328125" y="0" type="line"/>
      <point x="502.557861328125" y="418.8872375488281" type="line"/>
      <point x="914.9020767211914" y="1075.393180847168" type="line"/>
      <point x="850.5664672851562" y="1075.393180847168" type="line"/>
      <point x="475.31751251220703" y="477.9477310180664" type="line"/>
      <point x="100.06854248046875" y="1075.393180847168" type="line"/>
      <point x="35.732940673828125" y="1075.393180847168" type="line"/>
      <point x="448.0771484375" y="418.8872375488281" type="line"/>
    </contour>
  </outline>
</glyph>
<glyph name="Z" format="2">
  <advance width="936.3471810089022"/>
  <unicode hex="005A"/>
  <anchor x="468.17359050445106" y="1203.5830860534124" name="above" identifier="above"/>
  <anchor x="468.17359050445106" y="-128.1899109792285" name="below" identifier="below"/>
  <anchor x="468.17359050445106" y="544.4299208704253" name="stroke" identifier="stroke"/>
  <outline>
    <contour>
      <point x="83.80415344238281" y="0" type="line"/>
      <point x="852.5430297851562" y="0" type="line"/>
      <point x="852.5430297851562" y="54.480712890625" type="line"/>
      <point x="151.1217498779297" y="54.480712890625" type="line"/>
      <point x="852.5430297851562" y="1020.9124603271484" type="line"/>
      <point x="852.5430297851562" y="1075.393180847168" type="line"/>
      <point x="83.80415344238281" y="1075.393180847168" type="line"/>
      <point x="83.80415344238281" y="1020.9124603271484" type="line"/>
      <point x="785.2254333496094" y="1020.9124603271484" type="line"/>
      <point x="83.80415344238281" y="54.480712890625" type="line"/>
    </contour>
  </outline>
</glyph>
<glyph name="bracketleft" format="2">
  <advance width="461.5853899308984"/>
  <unicode hex="005B"/>
  <outline>
    <contour>
      <point x="179.48470306396484" y="-28.012039184570312" type="line"/>
      <point x="410.03751373291016" y="-28.012039184570312" type="line"/>
      <point x="410.03751373291016" y="28.012039184570312" type="line"/>
      <point x="235.99012756347656" y="28.012039184570312" type="line"/>
      <point x="235.99012756347656" y="1047.5234909057617" type="line"/>
      <point x="410.03751373291016" y="1047.5234909057617" type="line"/>
      <point x="410.03751373291016" y="1103.5475769042969" type="line"/>
      <point x="179.48470306396484" y="1103.5475769042969" type="line"/>
    </contour>
  </outline>
</glyph>
<glyph name="backslash" format="2">
  <advance width="706.7380911504998"/>
  <unicode hex="005C"/>
  <outline>
    <contour>
      <point x="591.2218" y="-69.41757" type="line"/>
      <point x="127.56936" y="1204.45706" type="line"/>
      <point x="67.53998" y="1204.45706" type="line"/>
      <point x="531.19243" y="-69.41757" type="line"/>
    </contour>
  </outline>
</glyph>
<glyph name="bracketright" format="2">
  <advance width="461.5853899308984"/>
  <unicode hex="005D"/>
  <outline>
    <contour>
      <point x="282.10069274902344" y="-28.012039184570312" type="line"/>
      <point x="282.10069274902344" y="1103.5475769042969" type="line"/>
      <point x="51.547882080078125" y="1103.5475769042969" type="line"/>
      <point x="51.547882080078125" y="1047.5234909057617" type="line"/>
      <point x="225.5952606201172" y="1047.5234909057617" type="line"/>
      <point x="225.5952606201172" y="28.012039184570312" type="line"/>
      <point x="51.547882080078125" y="28.012039184570312" type="line"/>
      <point x="51.547882080078125" y="-28.012039184570312" type="line"/>
    </contour>
  </outline>
</glyph>
<glyph name="asciicircum" format="2">
  <advance width="720.3944304953994"/>
  <unicode hex="005E"/>
  <outline>
    <contour>
      <point x="71.89318084716797" y="640.9495468139648" type="line"/>
      <point x="135.00543975830078" y="640.9495468139648" type="line"/>
      <point x="360.1972198486328" y="1026.03759765625" type="line"/>
      <point x="585.3889923095703" y="640.9495468139648" type="line"/>
      <point x="648.5012588500977" y="640.9495468139648" type="line"/>
      <point x="391.7533493041992" y="1080" type="line"/>
      <point x="328.6410827636719" y="1080" type="line"/>
    </contour>
  </outline>
</glyph>
<glyph name="power" format="2">
  <advance width="720.3944304953786"/>
  <unicode hex="005E"/>
  <outline>
    <contour>
      <point x="71.89318084716797" y="640.9495468139648" type="line"/>
      <point x="134.5293731689453" y="640.9495468139648" type="line"/>
      <point x="360.1972198486328" y="1026.494255065918" type="line"/>
      <point x="585.8650588989258" y="640.9495468139648" type="line"/>
      <point x="648.5012588500977" y="640.9495468139648" type="line"/>
      <point x="391.5153121948242" y="1080" type="line"/>
      <point x="328.8791198730469" y="1080" type="line"/>
    </contour>
  </outline>
</glyph>
<glyph name="underscore" format="2">
  <advance width="759.5252225519288"/>
  <unicode hex="005F"/>
  <outline>
    <contour>
      <point x="0.0" y="-150.79941" type="line"/>
      <point x="759.52522" y="-150.79941" type="line"/>
      <point x="759.52522" y="-100.94955" type="line"/>
      <point x="0.0" y="-100.94955" type="line"/>
    </contour>
  </outline>
</glyph>
<glyph name="grave" format="2">
  <advance width="475.6576774272056"/>
  <unicode hex="0060"/>
  <outline>
    <contour>
      <point x="360.14139" y="1203.47236" type="line"/>
      <point x="182.16654" y="1478.18115" type="line"/>
      <point x="115.51629" y="1478.18115" type="line"/>
      <point x="294.33738" y="1203.47236" type="line"/>
    </contour>
  </outline>
</glyph>
<glyph name="a" format="2">
  <advance width="981.3827893175074"/>
  <unicode hex="0061"/>
  <outline>
    <contour>
      <point x="812.2789306640625" y="0" type="line"/>
      <point x="866.7596435546875" y="0" type="line"/>
      <point x="866.7596435546875" y="759.5252227783203" type="line"/>
      <point x="812.2789306640625" y="759.5252227783203" type="line"/>
      <point x="812.2789306640625" y="579.8707580566406" type="line"/>
      <point x="743.6007133573524" y="696.3288053964772"/>
      <point x="616.85869287586" y="774.52522"/>
      <point x="471.99702999999994" y="774.5252200000001" type="curve" smooth="yes"/>
      <point x="254.12162" y="774.52522"/>
      <point x="77.23442" y="597.63803"/>
      <point x="77.23442" y="379.76261" type="curve" smooth="yes"/>
      <point x="77.23442" y="161.8872"/>
      <point x="254.12162" y="-15.0"/>
      <point x="471.99703" y="-15.0" type="curve" smooth="yes"/>
      <point x="616.85869287586" y="-15.0"/>
      <point x="743.6007133573524" y="63.19641902421688"/>
      <point x="812.2789306640625" y="179.65882110595703" type="curve"/>
    </contour>
    <contour>
      <point x="812.27893" y="379.76261" type="curve" smooth="yes"/>
      <point x="812.27893" y="191.95592"/>
      <point x="659.80372" y="39.48071"/>
      <point x="471.99703" y="39.48071" type="curve" smooth="yes"/>
      <point x="284.19034" y="39.48071"/>
      <point x="131.71513" y="191.95592"/>
      <point x="131.71513" y="379.76261" type="curve" smooth="yes"/>
      <point x="131.71513" y="567.5693"/>
      <point x="284.19034" y="720.04451"/>
      <point x="471.99703" y="720.04451" type="curve" smooth="yes"/>
      <point x="659.80372" y="720.04451"/>
      <point x="812.27893" y="567.5693"/>
    </contour>
  </outline>
</glyph>
<glyph name="b" format="2">
  <advance width="981.3827893175076"/>
  <unicode hex="0062"/>
  <anchor x="509.3857566765579" y="887.7151335311573" name="above" identifier="above"/>
  <anchor x="509.3857566765579" y="-128.1899109792285" name="below" identifier="below"/>
  <outline>
    <contour>
      <point x="114.62315368652344" y="0" type="line"/>
      <point x="168.93435668945312" y="0" type="line"/>
      <point x="168.93435668945312" y="179.93901824951172" type="line"/>
      <point x="237.57354729801074" y="63.325136516123266"/>
      <point x="364.4049192694" y="-15.000000000000043"/>
      <point x="509.38576" y="-15.000000000000085" type="curve" smooth="yes"/>
      <point x="727.26117" y="-15.0"/>
      <point x="904.14837" y="161.8872"/>
      <point x="904.14837" y="379.76261" type="curve" smooth="yes"/>
      <point x="904.14837" y="597.63803"/>
      <point x="727.26117" y="774.52522"/>
      <point x="509.38576" y="774.52522" type="curve" smooth="yes"/>
      <point x="364.4049192694" y="774.52522"/>
      <point x="237.57354729801074" y="696.2000879118475"/>
      <point x="168.93435668945312" y="579.5808410644531" type="curve"/>
      <point x="168.93435668945312" y="1144.0949630737305" type="line"/>
      <point x="114.62315368652344" y="1144.0949630737305" type="line"/>
    </contour>
    <contour>
      <point x="849.83715" y="379.76261" type="curve" smooth="yes"/>
      <point x="849.83715" y="191.86237"/>
      <point x="697.28599" y="39.31122"/>
      <point x="509.38576" y="39.31122" type="curve" smooth="yes"/>
      <point x="321.48552" y="39.31122"/>
      <point x="168.93436" y="191.86237"/>
      <point x="168.93436" y="379.76261" type="curve" smooth="yes"/>
      <point x="168.93436" y="567.66285"/>
      <point x="321.48552" y="720.21401"/>
      <point x="509.38576" y="720.21401" type="curve" smooth="yes"/>
      <point x="697.28599" y="720.21401"/>
      <point x="849.83715" y="567.66285"/>
    </contour>
  </outline>
</glyph>
<glyph name="c" format="2">
  <advance width="915.4018882502434"/>
  <unicode hex="0063"/>
  <outline>
    <contour>
      <point x="471.9970326409496" y="39.48071216617212" type="curve" smooth="yes"/>
      <point x="284.19034148813057" y="39.48071216617209"/>
      <point x="131.71513353115728" y="191.95592012314543"/>
      <point x="131.71513353115728" y="379.7626112759644" type="curve" smooth="yes"/>
      <point x="131.71513353115728" y="567.5693024287835"/>
      <point x="284.19034148813057" y="720.0445103857568"/>
      <point x="471.9970326409496" y="720.0445103857568" type="curve" smooth="yes"/>
      <point x="601.878881654887" y="720.0445103857568"/>
      <point x="714.8626775023004" y="647.1199134660138"/>
      <point x="772.2020075314124" y="540.0" type="curve"/>
      <point x="832.8238407667029" y="540.0" type="line"/>
      <point x="771.3273283196979" y="678.135842975262"/>
      <point x="632.8298312427087" y="774.5252225519289"/>
      <point x="471.99703264094956" y="774.5252225519289" type="curve" smooth="yes"/>
      <point x="254.12161814332347" y="774.5252225519289"/>
      <point x="77.23442136498517" y="597.6380257735906"/>
      <point x="77.23442136498517" y="379.7626112759644" type="curve" smooth="yes"/>
      <point x="77.23442136498517" y="161.88719677833834"/>
      <point x="254.1216181433234" y="-15.000000000000021"/>
      <point x="471.99703264094956" y="-15.000000000000021" type="curve" smooth="yes"/>
      <point x="632.8320099968537" y="-15.000000000000066"/>
      <point x="771.3310806844995" y="81.39199111093804"/>
      <point x="832.826220594457" y="219.52522255192878" type="curve"/>
      <point x="772.2070850406274" y="219.52522255192878" type="line"/>
      <point x="714.869212385234" y="112.40952705028567"/>
      <point x="601.8826377887099" y="39.48071216617209"/>
    </contour>
  </outline>
</glyph>
<glyph name="d" format="2">
  <advance width="1016.2756923837785"/>
  <unicode hex="0064"/>
  <anchor x="489.4434841740851" y="923.2177299703264" name="above" identifier="above"/>
  <anchor x="492.81015084075176" y="-128.1899109792285" name="below" identifier="below"/>
  <anchor x="873.2578585558853" y="964.9545623145401" name="stroke" identifier="stroke"/>
  <anchor x="1028.6139713155294" y="1134.8813056379822" name="caron" identifier="caron"/>
  <outline>
    <contour>
      <point x="846.0916595458984" y="0" type="line"/>
      <point x="900.4240570068359" y="0" type="line"/>
      <point x="900.4240570068359" y="1134.8813095092773" type="line"/>
      <point x="846.0916595458984" y="1134.8813095092773" type="line"/>
      <point x="846.0916595458984" y="601.744873046875" type="line"/>
      <point x="775.1671486916975" y="725.2464898586176"/>
      <point x="641.95040997236" y="808.49449"/>
      <point x="489.44348" y="808.4944900000002" type="curve" smooth="yes"/>
      <point x="262.61713" y="808.49449"/>
      <point x="78.46291" y="624.34026"/>
      <point x="78.46291" y="397.51391" type="curve" smooth="yes"/>
      <point x="78.46291" y="170.68756"/>
      <point x="262.61713" y="-13.46667"/>
      <point x="489.44348" y="-13.46667" type="curve" smooth="yes"/>
      <point x="641.95040997236" y="-13.46667"/>
      <point x="775.1671486916975" y="69.7813301413824"/>
      <point x="846.0916595458984" y="193.28531646728516" type="curve"/>
    </contour>
    <contour>
      <point x="846.09166" y="397.51391" type="curve" smooth="yes"/>
      <point x="846.09166" y="200.67443"/>
      <point x="686.28297" y="40.86574"/>
      <point x="489.44348" y="40.86574" type="curve" smooth="yes"/>
      <point x="292.604" y="40.86574"/>
      <point x="132.79531" y="200.67443"/>
      <point x="132.79531" y="397.51391" type="curve" smooth="yes"/>
      <point x="132.79531" y="594.35339"/>
      <point x="292.604" y="754.16208"/>
      <point x="489.44348" y="754.16208" type="curve" smooth="yes"/>
      <point x="686.28297" y="754.16208"/>
      <point x="846.09166" y="594.35339"/>
    </contour>
  </outline>
</glyph>
<glyph name="f" format="2">
  <advance width="490.4948641862589"/>
  <unicode hex="0066"/>
  <anchor x="300.9008217301986" y="1272.2848664688427" name="above" identifier="above"/>
  <outline>
    <contour>
      <point x="166.78736114501953" y="0" type="line"/>
      <point x="221.09857940673828" y="0" type="line"/>
      <point x="221.09857940673828" y="705.2140121459961" type="line"/>
      <point x="429.2841796875" y="705.2140121459961" type="line"/>
      <point x="429.2841796875" y="759.5252227783203" type="line"/>
      <point x="221.09857940673828" y="759.5252227783203" type="line"/>
      <point x="221.09857940673828" y="934.0514404345937" type="line"/>
      <point x="221.09857940673828" y="1088.4820995510445"/>
      <point x="349.7670627509899" y="1089.783740380337"/>
      <point x="379.22483" y="1089.7837391957155" type="curve"/>
      <point x="429.2841796875" y="1089.7837371826172" type="line"/>
      <point x="429.2841796875" y="1144.0949630737305" type="line"/>
      <point x="379.2248306274414" y="1144.0949630737305" type="line"/>
      <point x="167.82929633818412" y="1144.0949630737305"/>
      <point x="166.78735996240007" y="957.9666815362682"/>
      <point x="166.78736011919077" y="931.65748" type="curve"/>
      <point x="166.78736114501953" y="759.5252227783203" type="line"/>
      <point x="55.86943817138672" y="759.5252227783203" type="line"/>
      <point x="55.86943817138672" y="705.2140121459961" type="line"/>
      <point x="166.78736114501953" y="705.2140121459961" type="line"/>
    </contour>
  </outline>
</glyph>
<glyph name="g" format="2">
  <advance width="981.3827893175074"/>
  <unicode hex="0067"/>
  <outline>
    <contour>
      <point x="87.91691589355469" y="-37.38872528076172" type="line"/>
      <point x="87.91691394658754" y="-252.3162244798219"/>
      <point x="262.4107784875371" y="-426.81008902077156"/>
      <point x="477.3382789317507" y="-426.81008902077156" type="curve" smooth="yes"/>
      <point x="692.2657793759643" y="-426.81008902077156"/>
      <point x="866.759643916914" y="-252.31622447982204"/>
      <point x="866.759643916914" y="-37.388724035608355" type="curve"/>
      <point x="866.7596435546875" y="759.5252227783203" type="line"/>
      <point x="812.2789306640625" y="759.5252227783203" type="line"/>
      <point x="812.2789306640625" y="579.8707580566406" type="line"/>
      <point x="743.6007141103594" y="696.3288049519101"/>
      <point x="616.8586918583748" y="774.525222551929"/>
      <point x="471.99703264094967" y="774.525222551929" type="curve" smooth="yes"/>
      <point x="254.12161814332347" y="774.5252225519289"/>
      <point x="77.23442136498517" y="597.6380257735906"/>
      <point x="77.23442136498517" y="379.7626112759644" type="curve" smooth="yes"/>
      <point x="77.23442136498517" y="161.88719677833834"/>
      <point x="254.1216181433234" y="-15.000000000000021"/>
      <point x="471.99703264094956" y="-15.000000000000021" type="curve" smooth="yes"/>
      <point x="616.8586918583748" y="-15.000000000000062"/>
      <point x="743.6007141103594" y="63.19641760001873"/>
      <point x="812.2789306640625" y="179.6588134765625" type="curve"/>
      <point x="812.2789306640625" y="-37.38872528076172" type="line"/>
      <point x="812.278931750742" y="-222.2475011350149"/>
      <point x="662.1970560311572" y="-372.32937685459945"/>
      <point x="477.3382789317507" y="-372.32937685459945" type="curve" smooth="yes"/>
      <point x="292.4795018323442" y="-372.32937685459945"/>
      <point x="142.39762611275967" y="-222.2475011350148"/>
      <point x="142.39762611275967" y="-37.38872403560825" type="curve"/>
    </contour>
    <contour>
      <point x="812.278931750742" y="379.7626112759644" type="curve" smooth="yes"/>
      <point x="812.2789317507418" y="191.95592012314532"/>
      <point x="659.8037237937685" y="39.480712166172026"/>
      <point x="471.99703264094956" y="39.48071216617209" type="curve" smooth="yes"/>
      <point x="284.19034148813057" y="39.48071216617209"/>
      <point x="131.71513353115728" y="191.95592012314543"/>
      <point x="131.71513353115728" y="379.7626112759644" type="curve" smooth="yes"/>
      <point x="131.71513353115728" y="567.5693024287835"/>
      <point x="284.19034148813057" y="720.0445103857568"/>
      <point x="471.9970326409496" y="720.0445103857568" type="curve" smooth="yes"/>
      <point x="659.8037237937685" y="720.0445103857568"/>
      <point x="812.278931750742" y="567.5693024287834"/>
    </contour>
  </outline>
</glyph>
<glyph name="h" format="2">
  <advance width="890.2255192878338"/>
  <unicode hex="0068"/>
  <anchor x="453.12462908011867" y="1272.2848664688427" name="above" identifier="above"/>
  <anchor x="453.12462908011867" y="-128.1899109792285" name="below" identifier="below"/>
  <anchor x="141.7787537091988" y="1272.2848664688427" name="stem" identifier="stem"/>
  <anchor x="141.7787537091988" y="0" name="cedilla" identifier="cedilla"/>
  <anchor x="141.7787537091988" y="951.8100890207716" name="stroke" identifier="stroke"/>
  <outline>
    <contour>
      <point x="114.62315368652344" y="0" type="line"/>
      <point x="168.93435668945312" y="0" type="line"/>
      <point x="168.93435668945312" y="416.02374267578125" type="line"/>
      <point x="168.93435668945312" y="623.670789413288"/>
      <point x="319.2686564166806" y="720.21401"/>
      <point x="453.12463" y="720.21401" type="curve" smooth="yes"/>
      <point x="586.9806035833194" y="720.21401"/>
      <point x="737.3148985973384" y="623.6707880753972"/>
      <point x="737.3149001495" y="416.02374" type="curve"/>
      <point x="737.3149032592773" y="0" type="line"/>
      <point x="791.626106262207" y="0" type="line"/>
      <point x="791.626106262207" y="416.02374267578125" type="line"/>
      <point x="791.626106262207" y="655.2669749327657"/>
      <point x="615.2144357280223" y="774.52522"/>
      <point x="453.12463" y="774.52522" type="curve" smooth="yes"/>
      <point x="334.06913589699997" y="774.52522"/>
      <point x="229.28669498710033" y="712.9289690210226"/>
      <point x="168.93435668945312" y="619.8851623535156" type="curve"/>
      <point x="168.93435668945312" y="1144.0949630737305" type="line"/>
      <point x="114.62315368652344" y="1144.0949630737305" type="line"/>
    </contour>
  </outline>
</glyph>
<glyph name="i" format="2">
  <advance width="279.6754446321494"/>
  <unicode hex="0069"/>
  <outline>
    <contour>
      <point x="196.76014707232733" y="979.482831708351" type="curve" smooth="yes"/>
      <point x="196.76014707232733" y="1010.8991729061466"/>
      <point x="171.25406351387036" y="1036.4052564646036"/>
      <point x="139.8377223160747" y="1036.4052564646036" type="curve" smooth="yes"/>
      <point x="108.421381118279" y="1036.4052564646036"/>
      <point x="82.91529755982202" y="1010.8991729061466"/>
      <point x="82.91529755982202" y="979.482831708351" type="curve" smooth="yes"/>
      <point x="82.91529755982202" y="948.0664905105554"/>
      <point x="108.42138111827899" y="922.5604069520983"/>
      <point x="139.83772231607466" y="922.5604069520983" type="curve" smooth="yes"/>
      <point x="171.25406351387034" y="922.5604069520983"/>
      <point x="196.7601470723273" y="948.0664905105554"/>
    </contour>
    <contour>
      <point x="112.59736623298863" y="0.0" type="line"/>
      <point x="167.07807839916074" y="0.0" type="line"/>
      <point x="167.07807839916074" y="759.5252225519288" type="line"/>
      <point x="112.59736623298863" y="759.5252225519288" type="line"/>
    </contour>
  </outline>
</glyph>
<glyph name="j" format="2">
  <advance width="274.9520983467571"/>
  <unicode hex="006A"/>
  <outline>
    <contour>
      <point x="190.01102" y="979.48283" type="curve" smooth="yes"/>
      <point x="190.01102" y="1010.89917"/>
      <point x="164.50494" y="1036.40526"/>
      <point x="133.0886" y="1036.40526" type="curve" smooth="yes"/>
      <point x="101.67226" y="1036.40526"/>
      <point x="76.16617" y="1010.89917"/>
      <point x="76.16617" y="979.48283" type="curve" smooth="yes"/>
      <point x="76.16617" y="948.06649"/>
      <point x="101.67226" y="922.56041"/>
      <point x="133.0886" y="922.56041" type="curve" smooth="yes"/>
      <point x="164.50494" y="922.56041"/>
      <point x="190.01102" y="948.06649"/>
    </contour>
    <contour>
      <point x="-108.25942993164062" y="-411.8100891113281" type="line"/>
      <point x="-88.97160339355469" y="-411.8100891113281" type="line"/>
      <point x="151.31279452965427" y="-411.8100891113281"/>
      <point x="160.32895005498796" y="-254.0999664636014"/>
      <point x="160.32894995736575" y="-162.50954" type="curve"/>
      <point x="160.32894897460938" y="759.5252227783203" type="line"/>
      <point x="105.8482437133789" y="759.5252227783203" type="line"/>
      <point x="105.8482437133789" y="-163.0418245020691" type="line"/>
      <point x="105.8482437133789" y="-233.90807209437543"/>
      <point x="98.32147222752779" y="-357.3293893891825"/>
      <point x="-88.97159999999992" y="-357.32937745020394" type="curve"/>
      <point x="-108.25942993164062" y="-357.3293762207031" type="line"/>
    </contour>
  </outline>
</glyph>
<glyph name="k" format="2">
  <advance width="767.1097922848072"/>
  <unicode hex="006B"/>
  <anchor x="353.3005510809665" y="1272.2848664688427" name="above" identifier="above"/>
  <anchor x="353.3005510809665" y="-128.1899109792285" name="below" identifier="below"/>
  <anchor x="141.7787537091988" y="1272.2848664688427" name="stem" identifier="stem"/>
  <anchor x="420.3872403560831" y="-128.1899109792285" name="macronbelow" identifier="macronbelow"/>
  <outline>
    <contour>
      <point x="114.62315368652344" y="0" type="line"/>
      <point x="168.93435668945312" y="0" type="line"/>
      <point x="168.93435668945312" y="354.26304626464844" type="line"/>
      <point x="649.6085891723633" y="0" type="line"/>
      <point x="741.1513366699219" y="0" type="line"/>
      <point x="223.70440673828125" y="381.364990234375" type="line"/>
      <point x="736.8030395507812" y="759.5252227783203" type="line"/>
      <point x="645.2602996826172" y="759.5252227783203" type="line"/>
      <point x="168.93435668945312" y="408.46693420410156" type="line"/>
      <point x="168.93435668945312" y="1144.0949630737305" type="line"/>
      <point x="114.62315368652344" y="1144.0949630737305" type="line"/>
    </contour>
  </outline>
</glyph>
<glyph name="l" format="2">
  <advance width="283.72700296735906"/>
  <unicode hex="006C"/>
  <outline>
    <contour>
      <point x="114.62315" y="0.0" type="line"/>
      <point x="169.10386" y="0.0" type="line"/>
      <point x="169.10386" y="1144.09496" type="line"/>
      <point x="114.62315" y="1144.09496" type="line"/>
    </contour>
  </outline>
</glyph>
<glyph name="m" format="2">
  <advance width="1384.5578635014838"/>
  <unicode hex="006D"/>
  <outline>
    <contour>
      <point x="114.62315368652344" y="0" type="line"/>
      <point x="169.1038589477539" y="0" type="line"/>
      <point x="169.1038589477539" y="428.0712203979492" type="line"/>
      <point x="169.10385894775393" y="667.4905211303287"/>
      <point x="326.77944893219626" y="720.04451"/>
      <point x="421.07715" y="720.04451" type="curve" smooth="yes"/>
      <point x="515.3748510678037" y="720.04451"/>
      <point x="673.0504486426063" y="667.4905207323794"/>
      <point x="673.0504502722692" y="428.07122" type="curve"/>
      <point x="673.0504531860352" y="0" type="line"/>
      <point x="727.5311584472656" y="0" type="line"/>
      <point x="727.5311584472656" y="428.0712203979492" type="line"/>
      <point x="727.5311584472656" y="667.4905211303287"/>
      <point x="885.2067489321963" y="720.04451"/>
      <point x="979.50445" y="720.04451" type="curve" smooth="yes"/>
      <point x="1073.8024706964763" y="720.04451"/>
      <point x="1231.477741096315" y="667.4902650043409"/>
      <point x="1231.4777397800983" y="428.07122" type="curve"/>
      <point x="1231.4777374267578" y="0" type="line"/>
      <point x="1285.9584579467773" y="0" type="line"/>
      <point x="1285.9584579467773" y="428.0712203979492" type="line"/>
      <point x="1285.9584579467773" y="700.3141439802333"/>
      <point x="1101.0185342680957" y="774.52522"/>
      <point x="979.50445" y="774.52522" type="curve" smooth="yes"/>
      <point x="855.4273844771299" y="774.52522"/>
      <point x="748.4739722733518" y="700.6270547451041"/>
      <point x="700.2934341430664" y="594.4530181884766" type="curve"/>
      <point x="652.1155059795101" y="700.621614964137"/>
      <point x="545.1587822102599" y="774.52522"/>
      <point x="421.07715" y="774.52522" type="curve" smooth="yes"/>
      <point x="316.70669365754003" y="774.52522"/>
      <point x="224.45249675199096" y="722.2367669780184"/>
      <point x="169.1038589477539" y="642.4484558105469" type="curve"/>
      <point x="169.1038589477539" y="759.5252227783203" type="line"/>
      <point x="114.62315368652344" y="759.5252227783203" type="line"/>
    </contour>
  </outline>
</glyph>
<glyph name="o" format="2">
  <advance width="943.9940652818991"/>
  <unicode hex="006F"/>
  <anchor x="471.9970326409496" y="887.7151335311573" name="above" identifier="above"/>
  <anchor x="471.9970326409496" y="-128.1899109792285" name="below" identifier="below"/>
  <anchor x="471.9970326409496" y="0" name="ogonek" identifier="ogonek"/>
  <anchor x="471.9970326409496" y="379.7626112759644" name="stroke" identifier="stroke"/>
  <anchor x="471.9970326409496" y="774.5252225519289" name="horn" identifier="horn"/>
  <outline>
    <contour>
      <point x="866.75964" y="379.76261" type="curve" smooth="yes"/>
      <point x="866.75964" y="597.63803"/>
      <point x="689.87245" y="774.52522"/>
      <point x="471.99703" y="774.52522" type="curve" smooth="yes"/>
      <point x="254.12162" y="774.52522"/>
      <point x="77.23442" y="597.63803"/>
      <point x="77.23442" y="379.76261" type="curve" smooth="yes"/>
      <point x="77.23442" y="161.8872"/>
      <point x="254.12162" y="-15.0"/>
      <point x="471.99703" y="-15.0" type="curve" smooth="yes"/>
      <point x="689.87245" y="-15.0"/>
      <point x="866.75964" y="161.8872"/>
    </contour>
    <contour>
      <point x="812.44843" y="379.76261" type="curve" smooth="yes"/>
      <point x="812.44843" y="191.86237"/>
      <point x="659.89727" y="39.31122"/>
      <point x="471.99703" y="39.31122" type="curve" smooth="yes"/>
      <point x="284.09679" y="39.31122"/>
      <point x="131.54564" y="191.86237"/>
      <point x="131.54564" y="379.76261" type="curve" smooth="yes"/>
      <point x="131.54564" y="567.66285"/>
      <point x="284.09679" y="720.21401"/>
      <point x="471.99703" y="720.21401" type="curve" smooth="yes"/>
      <point x="659.89727" y="720.21401"/>
      <point x="812.44843" y="567.66285"/>
    </contour>
  </outline>
</glyph>
<glyph name="p" format="2">
  <advance width="1017.429647069577"/>
  <unicode hex="0070"/>
  <anchor x="526.7726486234507" y="923.4273198420534" name="above" identifier="above"/>
  <outline>
    <contour>
      <point x="115.51628875732422" y="-313.8783264160156" type="line"/>
      <point x="171.8291778564453" y="-313.8783264160156" type="line"/>
      <point x="171.8291778564453" y="197.27711486816406" type="line"/>
      <point x="241.43831725985297" y="71.55014276188989"/>
      <point x="374.72071446464" y="-13.511109999999945"/>
      <point x="528.93131" y="-13.511109999999945" type="curve" smooth="yes"/>
      <point x="755.90987" y="-13.51111"/>
      <point x="939.22827" y="170.76669"/>
      <point x="939.22827" y="397.74525" type="curve"/>
      <point x="939.22827" y="624.72381"/>
      <point x="755.90987" y="809.00161"/>
      <point x="528.93131" y="809.00161" type="curve" smooth="yes"/>
      <point x="374.45469559232" y="809.00161"/>
      <point x="240.97854559516412" y="723.6466366227114"/>
      <point x="171.46939849853516" y="597.5509262084961" type="curve"/>
      <point x="171.46939849853516" y="795.4905014038086" type="line"/>
      <point x="115.51628875732422" y="795.4905014038086" type="line"/>
    </contour>
    <contour>
      <point x="527.25235" y="753.16842" type="curve" smooth="yes"/>
      <point x="723.41574" y="753.16842"/>
      <point x="882.67552" y="593.90864"/>
      <point x="882.67552" y="397.74525" type="curve"/>
      <point x="882.67552" y="201.58186"/>
      <point x="723.41574" y="42.32208"/>
      <point x="527.25235" y="42.32208" type="curve" smooth="yes"/>
      <point x="331.08896" y="42.32208"/>
      <point x="171.82918" y="201.58186"/>
      <point x="171.82918" y="397.74525" type="curve"/>
      <point x="171.82918" y="593.90864"/>
      <point x="331.08896" y="753.16842"/>
    </contour>
  </outline>
</glyph>
<glyph name="r" format="2">
  <advance width="553.727002967359"/>
  <unicode hex="0072"/>
  <outline>
    <contour>
      <point x="114.6231460571289" y="0" type="line"/>
      <point x="169.1038589477539" y="0" type="line"/>
      <point x="169.1038589477539" y="416.6172103881836" type="line"/>
      <point x="169.10385756676558" y="575.8045695667656"/>
      <point x="298.3437983857567" y="705.0445103857567"/>
      <point x="457.53115727002967" y="705.0445103857567" type="curve"/>
      <point x="503.19881439208984" y="705.0445098876953" type="line"/>
      <point x="503.19881439208984" y="759.5252227783203" type="line"/>
      <point x="457.5311584472656" y="759.5252227783203" type="line"/>
      <point x="336.57153892279325" y="759.5252225519288"/>
      <point x="230.15585066322905" y="696.7599898460951"/>
      <point x="169.1038589477539" y="602.0422515869141" type="curve"/>
      <point x="169.1038589477539" y="759.5252227783203" type="line"/>
      <point x="114.6231460571289" y="759.5252227783203" type="line"/>
    </contour>
  </outline>
</glyph>
<glyph name="s" format="2">
  <advance width="855.240356083086"/>
  <unicode hex="0073"/>
  <outline>
    <contour>
      <point x="82.57566833496094" y="197.51483917236328" type="line"/>
      <point x="82.57566765578635" y="79.53685978264099"/>
      <point x="237.18493019109792" y="-16.246290801186912"/>
      <point x="427.620178041543" y="-16.246290801186944" type="curve" smooth="yes"/>
      <point x="618.0554258919881" y="-16.246290801186973"/>
      <point x="772.6646884272997" y="79.53685978264089"/>
      <point x="772.6646884272997" y="197.51483679525214" type="curve"/>
      <point x="772.6646884272997" y="300.6858698249187"/>
      <point x="654.4254322536924" y="386.85691619488756"/>
      <point x="497.3945680159843" y="406.8895560697561" type="curve"/>
      <point x="365.3247528076172" y="423.7378845214844" type="line"/>
      <point x="243.77069088684232" y="439.2446973272413"/>
      <point x="153.080118694362" y="499.12655549206823"/>
      <point x="153.080118694362" y="570.5563825386567" type="curve"/>
      <point x="153.080118694362" y="653.7489710043027"/>
      <point x="276.0973956961425" y="721.2908011869436"/>
      <point x="427.620178041543" y="721.2908011869436" type="curve" smooth="yes"/>
      <point x="579.1429603869436" y="721.2908011869436"/>
      <point x="702.160237388724" y="653.7489710043027"/>
      <point x="702.160237388724" y="570.5563798219584" type="curve"/>
      <point x="756.6409530639648" y="570.5563812255859" type="line"/>
      <point x="756.6409495548961" y="683.8176943491097"/>
      <point x="609.2116837317508" y="775.7715133531157"/>
      <point x="427.620178041543" y="775.7715133531157" type="curve" smooth="yes"/>
      <point x="246.02867235133533" y="775.7715133531157"/>
      <point x="98.59940652818992" y="683.8176943491097"/>
      <point x="98.59940652818992" y="570.5563798219584" type="curve"/>
      <point x="98.59940652818992" y="471.4115024922131"/>
      <point x="211.5737063317726" y="388.6316988107416"/>
      <point x="361.53274436520536" y="369.5006282817716" type="curve"/>
      <point x="493.63391876220703" y="352.6477813720703" type="line"/>
      <point x="622.2406321079955" y="336.2407390928711"/>
      <point x="718.1839762611276" y="272.97833787503697"/>
      <point x="718.1839762611276" y="197.51483679525222" type="curve"/>
      <point x="718.1839762611276" y="109.60558312744804"/>
      <point x="587.9867025471809" y="38.23442136498514"/>
      <point x="427.620178041543" y="38.23442136498517" type="curve" smooth="yes"/>
      <point x="267.253653535905" y="38.2344213649852"/>
      <point x="137.05637982195844" y="109.60558312744811"/>
      <point x="137.05637982195844" y="197.51483679525225" type="curve"/>
    </contour>
  </outline>
</glyph>
<glyph name="t" format="2">
  <advance width="480.45383474092677"/>
  <unicode hex="0074"/>
  <anchor x="234.8856710796622" y="1069.5082662144978" name="above" identifier="above"/>
  <anchor x="278.4878126324714" y="-128.1899109792285" name="below" identifier="below"/>
  <anchor x="191.20937522418237" y="1069.5082662144978" name="stem" identifier="stem"/>
  <anchor x="226.16524276910033" y="414.004194573972" name="stroke" identifier="stroke"/>
  <anchor x="278.4878126324714" y="0" name="cedilla" identifier="cedilla"/>
  <anchor x="346.5654879838263" y="923.2177299703264" name="t_caron" identifier="t_caron"/>
  <outline>
    <contour>
      <point x="164.0431671142578" y="205.03125762939453" type="line"/>
      <point x="164.0431671142578" y="1.112549868592538"/>
      <point x="341.8489202522285" y="8.848709631284349e-16"/>
      <point x="369.07444" y="-2.4492935982947065e-15" type="curve"/>
      <point x="418.0146713256836" y="0" type="line"/>
      <point x="418.0146713256836" y="54.3323974609375" type="line"/>
      <point x="365.73375618722946" y="54.3323974609375" type="line"/>
      <point x="219.63617470727323" y="54.33239746093752"/>
      <point x="218.3755800026858" y="176.0417152772004"/>
      <point x="218.3755799940246" y="205.03126" type="curve"/>
      <point x="218.37557983398438" y="740.6954193115234" type="line"/>
      <point x="418.0146713256836" y="740.6954193115234" type="line"/>
      <point x="418.0146713256836" y="795.0278167724609" type="line"/>
      <point x="218.37557983398438" y="795.0278167724609" type="line"/>
      <point x="218.37557983398438" y="1005.4133071899414" type="line"/>
      <point x="164.0431671142578" y="1005.4133071899414" type="line"/>
      <point x="164.0431671142578" y="795.0278167724609" type="line"/>
      <point x="51.756683349609375" y="795.0278167724609" type="line"/>
      <point x="51.756683349609375" y="740.6954193115234" type="line"/>
      <point x="164.0431671142578" y="740.6954193115234" type="line"/>
    </contour>
  </outline>
</glyph>
<glyph name="u" format="2">
  <advance width="892.6824925816024"/>
  <unicode hex="0075"/>
  <anchor x="438.32937685459945" y="923.2177299703264" name="above" identifier="above"/>
  <anchor x="438.32937685459945" y="-128.1899109792285" name="below" identifier="below"/>
  <anchor x="776.8308605341247" y="0" name="ogonek" identifier="ogonek"/>
  <anchor x="776.8308605341247" y="795.0278189910979" name="horn" identifier="horn"/>
  <outline>
    <contour>
      <point x="99.82788848876953" y="345.0348205566406" type="line"/>
      <point x="99.82788848876955" y="105.79158829965615"/>
      <point x="276.23957427197774" y="-13.466669999999981"/>
      <point x="438.32938" y="-13.46667" type="curve" smooth="yes"/>
      <point x="557.3710554951601" y="-13.46667"/>
      <point x="662.1429828320873" y="48.11528126492546"/>
      <point x="722.4984588623047" y="141.14112091064453" type="curve"/>
      <point x="722.4984588623047" y="0" type="line"/>
      <point x="776.8308563232422" y="0" type="line"/>
      <point x="776.8308563232422" y="795.0278167724609" type="line"/>
      <point x="722.4984588623047" y="795.0278167724609" type="line"/>
      <point x="722.4984588623047" y="345.0348205566406" type="line"/>
      <point x="722.4984588623047" y="137.40042633206318"/>
      <point x="572.1747400211391" y="40.86574"/>
      <point x="438.32938" y="40.86574" type="curve" smooth="yes"/>
      <point x="304.4840249788609" y="40.86574000000002"/>
      <point x="154.16029951753444" y="137.40042766751242"/>
      <point x="154.16030005142613" y="345.03482" type="curve"/>
      <point x="154.1603012084961" y="795.0278167724609" type="line"/>
      <point x="99.82788848876953" y="795.0278167724609" type="line"/>
    </contour>
  </outline>
</glyph>
<glyph name="v" format="2">
  <advance width="893.7340504450557"/>
  <unicode hex="0076"/>
  <anchor x="446.86702522255194" y="923.2177299703264" name="above" identifier="above"/>
  <anchor x="446.86702522255194" y="-128.1899109792285" name="below" identifier="below"/>
  <outline>
    <contour>
      <point x="416.9715576171875" y="0" type="line"/>
      <point x="476.76248931884766" y="0" type="line"/>
      <point x="841.9773712158203" y="795.0278167724609" type="line"/>
      <point x="782.1864395141602" y="795.0278167724609" type="line"/>
      <point x="446.86702728271484" y="65.07875061035156" type="line"/>
      <point x="111.547607421875" y="795.0278167724609" type="line"/>
      <point x="51.756683349609375" y="795.0278167724609" type="line"/>
    </contour>
  </outline>
</glyph>
<glyph name="w" format="2">
  <advance width="1370.9910979228657"/>
  <unicode hex="0077"/>
  <anchor x="685.4955489614244" y="923.2177299703264" name="above" identifier="above"/>
  <anchor x="685.4955489614244" y="-128.1899109792285" name="below" identifier="below"/>
  <outline>
    <contour>
      <point x="362.15367126464844" y="0" type="line"/>
      <point x="420.0909194946289" y="0" type="line"/>
      <point x="685.4955444335938" y="716.7908554077148" type="line"/>
      <point x="950.9001693725586" y="0" type="line"/>
      <point x="1008.8374328613281" y="0" type="line"/>
      <point x="1303.210678100586" y="795.0278167724609" type="line"/>
      <point x="1245.2734298706055" y="795.0278167724609" type="line"/>
      <point x="979.8688049316406" y="78.2369613647461" type="line"/>
      <point x="714.4641799926758" y="795.0278167724609" type="line"/>
      <point x="656.5269165039062" y="795.0278167724609" type="line"/>
      <point x="391.1222915649414" y="78.2369384765625" type="line"/>
      <point x="125.71766662597656" y="795.0278167724609" type="line"/>
      <point x="67.7804183959961" y="795.0278167724609" type="line"/>
    </contour>
  </outline>
</glyph>
<glyph name="x" format="2">
  <advance width="859.5222112537019"/>
  <unicode hex="0078"/>
  <anchor x="429.76110562685096" y="923.4273198420534" name="above" identifier="above"/>
  <outline>
    <contour>
      <point x="67.53997802734375" y="0" type="line"/>
      <point x="139.8878631591797" y="0" type="line"/>
      <point x="429.7611083984375" y="357.3144989013672" type="line"/>
      <point x="719.6343536376953" y="0" type="line"/>
      <point x="791.9822311401367" y="0" type="line"/>
      <point x="466.08911895751953" y="401.2161331176758" type="line"/>
      <point x="784.7448120117188" y="795.4905014038086" type="line"/>
      <point x="712.6519927978516" y="795.4905014038086" type="line"/>
      <point x="429.7611083984375" y="445.2065887451172" type="line"/>
      <point x="146.8702163696289" y="795.4905014038086" type="line"/>
      <point x="74.77741241455078" y="795.4905014038086" type="line"/>
      <point x="393.43309020996094" y="401.2161331176758" type="line"/>
    </contour>
  </outline>
</glyph>
<glyph name="y" format="2">
  <advance width="855.7744807121662"/>
  <unicode hex="0079"/>
  <outline>
    <contour>
      <point x="209.57199096679688" y="-411.8100891113281" type="line"/>
      <point x="269.4812469482422" y="-411.8100891113281" type="line"/>
      <point x="805.2462921142578" y="759.5252227783203" type="line"/>
      <point x="745.337028503418" y="759.5252227783203" type="line"/>
      <point x="427.88724517822266" y="65.48937225341797" type="line"/>
      <point x="110.43744659423828" y="759.5252227783203" type="line"/>
      <point x="50.52819061279297" y="759.5252227783203" type="line"/>
      <point x="397.93260955810547" y="0" type="line"/>
    </contour>
  </outline>
</glyph>
<glyph name="z" format="2">
  <advance width="860.5816023739582"/>
  <unicode hex="007A"/>
  <outline>
    <contour>
      <point x="98.59940338134766" y="0" type="line"/>
      <point x="761.9821929931641" y="0" type="line"/>
      <point x="761.9821929931641" y="54.480712890625" type="line"/>
      <point x="172.13909912109375" y="54.480712890625" type="line"/>
      <point x="761.9821929931641" y="705.0445098876953" type="line"/>
      <point x="761.9821929931641" y="759.5252227783203" type="line"/>
      <point x="98.59940338134766" y="759.5252227783203" type="line"/>
      <point x="98.59940338134766" y="705.0445098876953" type="line"/>
      <point x="688.4425048828125" y="705.0445098876953" type="line"/>
      <point x="98.59940338134766" y="54.480712890625" type="line"/>
    </contour>
  </outline>
</glyph>
<glyph name="braceleft" format="2">
  <advance width="547.9050445103858"/>
  <unicode hex="007B"/>
  <outline>
    <contour>
      <point x="265.4065320670432" y="200.0" type="line"/>
      <point x="265.40653342946814" y="76.45454229658591"/>
      <point x="344.1112654129037" y="-27.24037155980432"/>
      <point x="489.90949575561524" y="-27.240358447492852" type="curve"/>
      <point x="512.1721115112305" y="-27.2403564453125" type="line"/>
      <point x="512.1721115112305" y="27.2403564453125" type="line"/>
      <point x="489.90949630737305" y="27.240356445312496" type="line"/>
      <point x="321.04915987453614" y="27.240356445312518"/>
      <point x="319.8872400925381" y="172.16857812143505"/>
      <point x="319.88723976367487" y="200.0" type="curve"/>
      <point x="319.8872377851533" y="367.4406509399414" type="line"/>
      <point x="319.88723742451225" y="397.96140183287844"/>
      <point x="318.4897676199854" y="508.4454798196276"/>
      <point x="215.34469604492188" y="567.4338989257812" type="curve"/>
      <point x="318.4889267758271" y="626.4441584949307"/>
      <point x="319.8872401244215" y="736.9109556947076"/>
      <point x="319.88723976367487" y="767.44065" type="curve"/>
      <point x="319.88723777890544" y="935.4100538125772" type="line"/>
      <point x="319.88723575673436" y="1106.5447282963617"/>
      <point x="462.87658321066283" y="1107.6409492426142"/>
      <point x="489.90949575561524" y="1107.6409513381843" type="curve"/>
      <point x="512.1721115112305" y="1107.6409530639648" type="line"/>
      <point x="512.1721115112305" y="1162.1216583251953" type="line"/>
      <point x="489.90949630737305" y="1162.1216583251953" type="line"/>
      <point x="302.8569131095704" y="1162.1216583251953"/>
      <point x="265.4065293306901" y="1015.5747122578466"/>
      <point x="265.4065302205544" y="934.88131" type="curve"/>
      <point x="265.40653207287403" y="766.9119108006297" type="line"/>
      <point x="265.40653396009935" y="595.7772556347801"/>
      <point x="122.41723546015189" y="594.6810106463467"/>
      <point x="95.38426916259765" y="594.6810088580116" type="curve"/>
      <point x="73.12165832519531" y="594.6810073852539" type="line"/>
      <point x="73.12165832519531" y="540.2003021240234" type="line"/>
      <point x="95.38426971435547" y="540.2003021240234" type="line"/>
      <point x="122.41728017874364" y="540.2003021240234"/>
      <point x="265.40652832749856" y="539.1040237194858"/>
      <point x="265.40653021472355" y="367.96939367722103" type="curve"/>
    </contour>
  </outline>
</glyph>
<glyph name="bar" format="2">
  <advance width="390.55192878338283"/>
  <unicode hex="007C"/>
  <outline>
    <contour>
      <point x="168.03561" y="-54.48071" type="line"/>
      <point x="222.51632" y="-54.48071" type="line"/>
      <point x="222.51632" y="1198.57567" type="line"/>
      <point x="168.03561" y="1198.57567" type="line"/>
    </contour>
  </outline>
</glyph>
<glyph name="braceright" format="2">
  <advance width="473.8297517750723"/>
  <unicode hex="007D"/>
  <outline>
    <contour>
      <point x="51.04750061035156" y="-27.964317321777344" type="line"/>
      <point x="212.06138267328586" y="-27.964317321777344"/>
      <point x="246.4620005023518" y="100.46749889028484"/>
      <point x="246.46199982062203" y="176.47793" type="curve"/>
      <point x="246.46199813275737" y="364.6688051602374" type="line"/>
      <point x="246.46199709880898" y="479.9503536067891"/>
      <point x="324.54394324271277" y="509.5631965107859"/>
      <point x="385.46734414916995" y="509.5631886455067" type="curve"/>
      <point x="400.95906829833984" y="509.5631866455078" type="line"/>
      <point x="400.95906829833984" y="565.9723510742188" type="line"/>
      <point x="385.467342376709" y="565.9723510742188" type="line"/>
      <point x="247.09393761989304" y="565.9723510742188"/>
      <point x="246.4620000040566" y="694.033662472033"/>
      <point x="246.46199982062203" y="714.48596" type="curve"/>
      <point x="246.4619981652178" y="899.0576095581055" type="line"/>
      <point x="246.4619966272445" y="1070.536132949629"/>
      <point x="122.22255677432176" y="1103.4998537622237"/>
      <point x="51.047500437011706" y="1103.4998610784685" type="curve"/>
      <point x="35.55577087402344" y="1103.4998626708984" type="line"/>
      <point x="35.55577087402344" y="1047.5712203979492" type="line"/>
      <point x="51.04750061035156" y="1047.5712203979492" type="line"/>
      <point x="189.4209053671675" y="1047.5712203979492"/>
      <point x="190.0528399976103" y="919.5099075279669"/>
      <point x="190.05284010566993" y="899.05761" type="curve"/>
      <point x="190.0528410808535" y="714.4859619140625" type="line"/>
      <point x="190.05284141770645" y="650.7302777035999"/>
      <point x="207.57535922149196" y="580.9563150559806"/>
      <point x="277.6779022216797" y="537.7740936279297" type="curve"/>
      <point x="207.57535643214857" y="494.57500847660015"/>
      <point x="190.05283976879784" y="424.80890097797214"/>
      <point x="190.05284010566996" y="361.04958" type="curve"/>
      <point x="190.0528410999757" y="172.85870160602084" type="line"/>
      <point x="190.0528417090653" y="57.57715315946915"/>
      <point x="111.97090134346908" y="27.96432519820106"/>
      <point x="51.047500437011706" y="27.96431891857402" type="curve"/>
      <point x="35.55577087402344" y="27.964317321777344" type="line"/>
      <point x="35.55577087402344" y="-27.964317321777344" type="line"/>
    </contour>
  </outline>
</glyph>
<glyph name="tilde" format="2">
  <advance width="1004.5413460039105"/>
  <unicode hex="007E"/>
  <outline>
    <contour>
      <point x="553.6302996935599" y="425.4805896366585" type="line"/>
      <point x="598.4135128943158" y="399.6249914802979"/>
      <point x="634.9362558500412" y="378.53858"/>
      <point x="688.82028" y="378.53858" type="curve"/>
      <point x="799.80924" y="378.53858"/>
      <point x="889.9182" y="468.64753"/>
      <point x="889.9182" y="579.6365" type="curve"/>
      <point x="835.4374923706055" y="579.6364974975586" type="line"/>
      <point x="835.43749" y="498.7162603881836"/>
      <point x="769.74052" y="433.01929"/>
      <point x="688.82028" y="433.01929" type="curve"/>
      <point x="656.7624662655157" y="433.01929"/>
      <point x="630.522629390046" y="443.99568837467285"/>
      <point x="583.7588706603166" y="470.9947576285042" type="curve"/>
      <point x="450.9110431314645" y="547.6944882126558" type="line"/>
      <point x="406.1278310475936" y="573.5500883035179"/>
      <point x="369.60509414995886" y="594.6365"/>
      <point x="315.72107" y="594.6365" type="curve"/>
      <point x="204.7321" y="594.6365"/>
      <point x="114.62315" y="504.52754"/>
      <point x="114.62315" y="393.53858" type="curve"/>
      <point x="169.1038589477539" y="393.53858184814453" type="line"/>
      <point x="169.10386" y="474.45881895751955"/>
      <point x="234.80083000000002" y="540.15579"/>
      <point x="315.72107" y="540.15579" type="curve"/>
      <point x="347.77888373448434" y="540.15579"/>
      <point x="374.0186870217105" y="529.179394379433"/>
      <point x="420.7824469177193" y="502.180327145657" type="curve"/>
    </contour>
  </outline>
</glyph>
<glyph name="inv_exclamation" format="2">
  <advance width="363.09792284866467"/>
  <unicode hex="00A1"/>
  <outline>
    <contour>
      <point x="115.85163" y="742.79716" type="curve" smooth="yes"/>
      <point x="115.85163" y="706.53781"/>
      <point x="145.28962" y="677.09983"/>
      <point x="181.54896" y="677.09983" type="curve" smooth="yes"/>
      <point x="217.8083" y="677.09983"/>
      <point x="247.24629" y="706.53781"/>
      <point x="247.24629" y="742.79716" type="curve" smooth="yes"/>
      <point x="247.24629" y="779.0565"/>
      <point x="217.8083" y="808.49449"/>
      <point x="181.54896" y="808.49449" type="curve" smooth="yes"/>
      <point x="145.28962" y="808.49449"/>
      <point x="115.85163" y="779.0565"/>
    </contour>
    <contour>
      <point x="208.78932" y="524.34018" type="line"/>
      <point x="154.30861" y="524.34018" type="line"/>
      <point x="154.30861" y="-280.36536" type="line"/>
      <point x="208.78932" y="-280.36536" type="line"/>
    </contour>
  </outline>
</glyph>
<glyph name="invertedexclam" format="2">
  <advance width="360.6409495548961"/>
  <unicode hex="00A1"/>
  <outline>
    <contour>
      <point x="114.62314540059347" y="708.8278931750743" type="curve" smooth="yes"/>
      <point x="114.62314540059347" y="672.568550318101"/>
      <point x="144.06113192047476" y="643.1305637982197"/>
      <point x="180.32047477744806" y="643.1305637982197" type="curve" smooth="yes"/>
      <point x="216.57981763442137" y="643.1305637982197"/>
      <point x="246.01780415430267" y="672.568550318101"/>
      <point x="246.01780415430267" y="708.8278931750743" type="curve" smooth="yes"/>
      <point x="246.01780415430267" y="745.0872360320476"/>
      <point x="216.57981763442137" y="774.5252225519289"/>
      <point x="180.3204747774481" y="774.5252225519289" type="curve" smooth="yes"/>
      <point x="144.0611319204748" y="774.5252225519289"/>
      <point x="114.62314540059347" y="745.0872360320476"/>
    </contour>
    <contour>
      <point x="207.5608308605341" y="490.37091988130567" type="line"/>
      <point x="153.080118694362" y="490.37091988130567" type="line"/>
      <point x="153.0801186943619" y="-335.4747774480713" type="line"/>
      <point x="207.560830860534" y="-335.4747774480713" type="line"/>
    </contour>
  </outline>
</glyph>
<glyph name="cent" format="2">
  <advance width="934.9491347495428"/>
  <unicode hex="00A2"/>
  <outline>
    <contour>
      <point x="463.7679901123047" y="0" type="line"/>
      <point x="515.7209320068359" y="0" type="line"/>
      <point x="515.7209320068359" y="117.96726989746094" type="line"/>
      <point x="676.8672406430427" y="128.0147419492884"/>
      <point x="812.9988624039601" y="230.92100922582995"/>
      <point x="871.10511" y="373.75708999999995" type="curve"/>
      <point x="809.7661209106445" y="373.75708770751953" type="line"/>
      <point x="755.75330368912" y="262.29285136408004"/>
      <point x="645.2164783870965" y="183.2378407482031"/>
      <point x="515.5015182495117" y="173.94003295898438" type="curve"/>
      <point x="515.5015182495117" y="882.8739013671875" type="line"/>
      <point x="645.2145860649398" y="873.5755553009097"/>
      <point x="755.7500246354499" y="794.5224789238"/>
      <point x="809.7637499999998" y="683.0562099999999" type="curve"/>
      <point x="871.1030426025391" y="683.0562133789062" type="line"/>
      <point x="812.9958662752" y="825.8942668856"/>
      <point x="676.8655827526196" y="928.7985566387189"/>
      <point x="515.7209320068359" y="938.8465423583984" type="curve"/>
      <point x="515.7209320068359" y="1056.8133010864258" type="line"/>
      <point x="463.7679901123047" y="1056.8133010864258" type="line"/>
      <point x="463.7679901123047" y="938.8484191894531" type="line"/>
      <point x="248.7144746668772" y="925.4543593557465"/>
      <point x="78.20137999999994" y="746.70766546323"/>
      <point x="78.20137999999994" y="528.40665" type="curve"/>
      <point x="78.20138" y="310.10564415288"/>
      <point x="248.71447466687727" y="131.35894138255912"/>
      <point x="463.7679901123047" y="117.96102905273438" type="curve"/>
    </contour>
    <contour>
      <point x="134.34617000000014" y="528.40665" type="curve"/>
      <point x="134.34617" y="715.8951160546"/>
      <point x="279.84173951216485" y="869.6694262738717"/>
      <point x="463.9873962402344" y="882.873649597168" type="curve"/>
      <point x="463.9873962402344" y="173.93901824951172" type="line"/>
      <point x="279.84173951216485" y="187.14387372612825"/>
      <point x="134.34617000000006" y="340.91818394539996"/>
    </contour>
  </outline>
</glyph>
<glyph name="pound" format="2">
  <advance width="976.5607107601186"/>
  <unicode hex="00A3"/>
  <outline>
    <contour>
      <point x="99.5241928100586" y="0" type="line"/>
      <point x="861.0444183349609" y="0" type="line"/>
      <point x="861.0444183349609" y="56.14441680908203" type="line"/>
      <point x="286.4503479003906" y="56.14441680908203" type="line"/>
      <point x="286.4503479003906" y="449.3458786010742" type="line"/>
      <point x="670.5014801025391" y="449.3458786010742" type="line"/>
      <point x="670.5014801025391" y="500.86000061035156" type="line"/>
      <point x="286.4503479003906" y="500.86000061035156" type="line"/>
      <point x="286.4503479003906" y="754.2983779907227" type="line"/>
      <point x="286.4503479003906" y="947.352538064379"/>
      <point x="424.8896256692216" y="1032.78189"/>
      <point x="544.93386" y="1032.78189" type="curve" smooth="yes"/>
      <point x="678.9703776369897" y="1032.78189"/>
      <point x="803.4173349316059" y="927.6434683038212"/>
      <point x="803.4173712568899" y="768.8023233923338" type="curve"/>
      <point x="803.4173736572266" y="758.306266784668" type="line"/>
      <point x="859.9227981567383" y="758.306266784668" type="line"/>
      <point x="859.9227981567383" y="768.8023223876953" type="line"/>
      <point x="859.9227981567383" y="959.6465628376498"/>
      <point x="709.2403649119784" y="1089.04665"/>
      <point x="544.93386" y="1089.04665" type="curve" smooth="yes"/>
      <point x="395.2331344466409" y="1089.04665"/>
      <point x="229.94491744178782" y="979.9844403264827"/>
      <point x="229.94492024874918" y="754.29838" type="curve"/>
      <point x="229.9449234008789" y="500.86000061035156" type="line"/>
      <point x="99.5241928100586" y="500.86000061035156" type="line"/>
      <point x="99.5241928100586" y="449.3458786010742" type="line"/>
      <point x="229.9449234008789" y="449.3458786010742" type="line"/>
      <point x="229.9449234008789" y="56.14441680908203" type="line"/>
      <point x="99.5241928100586" y="56.14441680908203" type="line"/>
    </contour>
  </outline>
</glyph>
<glyph name="currency" format="2">
  <advance width="883.7425291399081"/>
  <unicode hex="00A4"/>
  <outline>
    <contour>
      <point x="715.4766099999999" y="537.69659" type="curve" smooth="yes"/>
      <point x="715.47661" y="604.2377760785"/>
      <point x="691.6713719687549" y="665.262826542754"/>
      <point x="652.1201171875" y="712.6962738037109" type="curve"/>
      <point x="831.9858474731445" y="892.56201171875" type="line"/>
      <point x="796.7366790771484" y="927.8111801147461" type="line"/>
      <point x="616.8708267211914" y="747.9453125" type="line"/>
      <point x="569.4233774910557" y="787.5022019965895"/>
      <point x="508.4047491331" y="811.30193"/>
      <point x="441.87126" y="811.30193" type="curve" smooth="yes"/>
      <point x="375.33777527289" y="811.30193"/>
      <point x="314.31914937964945" y="787.5022019965895"/>
      <point x="266.87157440185547" y="747.945442199707" type="curve"/>
      <point x="87.0058364868164" y="927.8111801147461" type="line"/>
      <point x="51.756683349609375" y="892.56201171875" type="line"/>
      <point x="231.62254333496094" y="712.6961441040039" type="line"/>
      <point x="192.07115803124512" y="665.262826542754"/>
      <point x="168.26592" y="604.2377760785"/>
      <point x="168.26592" y="537.6965899999999" type="curve" smooth="yes"/>
      <point x="168.26592" y="471.155399515"/>
      <point x="192.07115803124512" y="410.13034852769437"/>
      <point x="231.6224136352539" y="362.69690704345703" type="curve"/>
      <point x="51.756683349609375" y="182.83116912841797" type="line"/>
      <point x="87.0058364868164" y="147.58200073242188" type="line"/>
      <point x="266.87171173095703" y="327.44786071777344" type="line"/>
      <point x="314.3191493796495" y="287.8909760621357"/>
      <point x="375.33777527289" y="264.09125"/>
      <point x="441.87125999999995" y="264.09124999999995" type="curve" smooth="yes"/>
      <point x="508.4047491331" y="264.09125"/>
      <point x="569.4233774910557" y="287.8909760621357"/>
      <point x="616.8709487915039" y="327.4477310180664" type="curve"/>
      <point x="796.7366790771484" y="147.58200073242188" type="line"/>
      <point x="831.9858474731445" y="182.83116912841797" type="line"/>
      <point x="652.119987487793" y="362.69703674316406" type="line"/>
      <point x="691.6713719687549" y="410.13034852769437"/>
      <point x="715.47661" y="471.155399515"/>
    </contour>
    <contour>
      <point x="660.99589" y="537.69659" type="curve" smooth="yes"/>
      <point x="660.99589" y="416.75841"/>
      <point x="562.80944" y="318.57196"/>
      <point x="441.87126" y="318.57196" type="curve" smooth="yes"/>
      <point x="320.93309" y="318.57196"/>
      <point x="222.74664" y="416.75841"/>
      <point x="222.74664" y="537.69659" type="curve" smooth="yes"/>
      <point x="222.74664" y="658.63476"/>
      <point x="320.93309" y="756.82122"/>
      <point x="441.87126" y="756.82122" type="curve" smooth="yes"/>
      <point x="562.80944" y="756.82122"/>
      <point x="660.99589" y="658.63476"/>
    </contour>
  </outline>
</glyph>
<glyph name="yen" format="2">
  <advance width="1016.2226061204344"/>
  <unicode hex="00A5"/>
  <outline>
    <contour>
      <point x="128.03233337402344" y="221.34796142578125" type="line"/>
      <point x="479.9548568725586" y="221.34796142578125" type="line"/>
      <point x="479.9548568725586" y="0" type="line"/>
      <point x="536.2677536010742" y="0" type="line"/>
      <point x="536.2677536010742" y="221.34796142578125" type="line"/>
      <point x="888.1902770996094" y="221.34796142578125" type="line"/>
      <point x="888.1902770996094" y="272.8620834350586" type="line"/>
      <point x="536.2677536010742" y="272.8620834350586" type="line"/>
      <point x="536.2677536010742" y="418.65675354003906" type="line"/>
      <point x="888.1902770996094" y="418.65675354003906" type="line"/>
      <point x="888.1902770996094" y="470.17086029052734" type="line"/>
      <point x="571.1186599731445" y="470.17086029052734" type="line"/>
      <point x="980.6668319702148" y="1075.5355377197266" type="line"/>
      <point x="912.97412109375" y="1075.5355377197266" type="line"/>
      <point x="508.1113052368164" y="477.0318069458008" type="line"/>
      <point x="103.24848937988281" y="1075.5355377197266" type="line"/>
      <point x="35.55577087402344" y="1075.5355377197266" type="line"/>
      <point x="445.1039505004883" y="470.17086029052734" type="line"/>
      <point x="128.03233337402344" y="470.17086029052734" type="line"/>
      <point x="128.03233337402344" y="418.65675354003906" type="line"/>
      <point x="479.9548568725586" y="418.65675354003906" type="line"/>
      <point x="479.9548568725586" y="272.8620834350586" type="line"/>
      <point x="128.03233337402344" y="272.8620834350586" type="line"/>
    </contour>
  </outline>
</glyph>
<glyph name="brokenbar" format="2">
  <advance width="390.55192878338283"/>
  <unicode hex="00A6"/>
  <outline>
    <contour>
      <point x="168.03561" y="668.18991" type="line"/>
      <point x="222.51632" y="668.18991" type="line"/>
      <point x="222.51632" y="1198.57567" type="line"/>
      <point x="168.03561" y="1198.57567" type="line"/>
    </contour>
    <contour>
      <point x="168.03561" y="-54.48071" type="line"/>
      <point x="222.51632" y="-54.48071" type="line"/>
      <point x="222.51632" y="475.90504" type="line"/>
      <point x="168.03561" y="475.90504" type="line"/>
    </contour>
  </outline>
</glyph>
<glyph name="section" format="2">
  <advance width="804.818991097923"/>
  <unicode hex="00A7"/>
  <outline>
    <contour>
      <point x="107.14540100097656" y="73.11276245117188" type="line"/>
      <point x="107.1454" y="-36.39194"/>
      <point x="239.11931" y="-125.70979"/>
      <point x="402.4095" y="-125.70979" type="curve" smooth="yes"/>
      <point x="565.69968" y="-125.70979"/>
      <point x="697.67359" y="-36.39194"/>
      <point x="697.67359" y="73.11276" type="curve"/>
      <point x="697.67359" y="153.78257"/>
      <point x="626.07896" y="223.58683"/>
      <point x="523.05073" y="254.61153" type="curve"/>
      <point x="495.6875686645508" y="262.8513412475586" type="line"/>
      <point x="617.9004411209285" y="293.07991037465143"/>
      <point x="706.2195800000001" y="381.11859075071004"/>
      <point x="706.21958" y="484.64510000000007" type="curve"/>
      <point x="706.21958" y="486.30735346496"/>
      <point x="706.1968108870702" y="487.9656140889899"/>
      <point x="706.151496887207" y="489.56849670410156" type="curve"/>
      <point x="706.21958" y="486.9801643617"/>
      <point x="706.1746630613202" y="489.30739665390405"/>
      <point x="706.0854568481445" y="491.2293167114258" type="curve"/>
      <point x="706.048332096331" y="492.58980787419017"/>
      <point x="706.0035354848646" y="493.5532186872334"/>
      <point x="705.9511184692383" y="494.4654541015625" type="curve"/>
      <point x="705.9112619995385" y="495.2483456737726"/>
      <point x="705.8670013622994" y="495.97892606726714"/>
      <point x="705.8183441162109" y="496.4680404663086" type="curve"/>
      <point x="705.7587864719876" y="497.5996452031292"/>
      <point x="705.6926491791965" y="498.491526621664"/>
      <point x="705.6199569702148" y="499.3343734741211" type="curve"/>
      <point x="705.5578810910321" y="500.1459134703594"/>
      <point x="705.4910258473055" y="500.9058293676212"/>
      <point x="705.4194259643555" y="501.4937744140625" type="curve"/>
      <point x="705.3388435821622" y="502.51519601946956"/>
      <point x="705.2522265065418" y="503.3679981138397"/>
      <point x="705.1596298217773" y="504.1734924316406" type="curve"/>
      <point x="705.0747130097328" y="505.00450581434325"/>
      <point x="704.9847462401356" y="505.78460647985645"/>
      <point x="704.8897857666016" y="506.4319305419922" type="curve"/>
      <point x="704.7893936564346" y="507.38210199522007"/>
      <point x="704.6833906175447" y="508.20418645035943"/>
      <point x="704.5718154907227" y="508.98094940185547" type="curve"/>
      <point x="704.4633628598898" y="509.8283519930402"/>
      <point x="704.3496505298981" y="510.6252395384291"/>
      <point x="704.2306976318359" y="511.3147201538086" type="curve"/>
      <point x="704.1117951394731" y="512.2102620656872"/>
      <point x="703.9876367894967" y="513.0043808770347"/>
      <point x="703.858268737793" y="513.7551193237305" type="curve"/>
      <point x="703.72542813755" y="514.6182528096858"/>
      <point x="703.5870946123929" y="515.4314096685673"/>
      <point x="703.4433135986328" y="516.1546630859375" type="curve"/>
      <point x="703.307433407783" y="517.002903572332"/>
      <point x="703.1666526645862" y="517.768805002447"/>
      <point x="703.0210266113281" y="518.4932403564453" type="curve"/>
      <point x="702.8626780175839" y="519.3730892181918"/>
      <point x="702.698573408606" y="520.2034931505851"/>
      <point x="702.5287399291992" y="520.957145690918" type="curve"/>
      <point x="702.3777432930949" y="521.7608257279396"/>
      <point x="702.2222139511489" y="522.4966816088445"/>
      <point x="702.0621719360352" y="523.193229675293" type="curve"/>
      <point x="701.8769105142279" y="524.0916597603276"/>
      <point x="701.6856023716512" y="524.9410896376576"/>
      <point x="701.4882888793945" y="525.7236938476562" type="curve"/>
      <point x="701.3243206004578" y="526.4833241686362"/>
      <point x="701.1562530459801" y="527.1865069230245"/>
      <point x="700.9840545654297" y="527.8523864746094" type="curve"/>
      <point x="700.7701518696429" y="528.7719406024652"/>
      <point x="700.5499153466667" y="529.642674043068"/>
      <point x="700.3233642578125" y="530.4543991088867" type="curve"/>
      <point x="700.1490511777993" y="531.1684807256901"/>
      <point x="699.9710166442768" y="531.8358332137668"/>
      <point x="699.7892684936523" y="532.4679412841797" type="curve"/>
      <point x="699.5445884037435" y="533.411763151984"/>
      <point x="699.2931709489059" y="534.3072037596766"/>
      <point x="699.0350341796875" y="535.1500701904297" type="curve"/>
      <point x="698.8536636853656" y="535.8152519783678"/>
      <point x="698.6690398797244" y="536.441784646246"/>
      <point x="698.4811477661133" y="537.0352554321289" type="curve"/>
      <point x="698.2028917889845" y="538.007814264338"/>
      <point x="697.917429877465" y="538.9323633513512"/>
      <point x="697.6247863769531" y="539.8095779418945" type="curve"/>
      <point x="697.4403954807988" y="540.4210528440951"/>
      <point x="697.2531354766447" y="541.0013200793042"/>
      <point x="697.0630187988281" y="541.5510482788086" type="curve"/>
      <point x="696.7477289624835" y="542.5575940185519"/>
      <point x="696.4246712038091" y="543.5165209869795"/>
      <point x="696.093864440918" y="544.4324569702148" type="curve"/>
      <point x="695.9115590781387" y="544.9835925409985"/>
      <point x="695.7269071534182" y="545.5098219595178"/>
      <point x="695.539924621582" y="546.0080032348633" type="curve"/>
      <point x="695.1830095319376" y="547.0556949814546"/>
      <point x="694.8175446576212" y="548.0564567922962"/>
      <point x="694.4436264038086" y="549.0178451538086" type="curve"/>
      <point x="694.2700487076412" y="549.4994600260903"/>
      <point x="694.0946907246974" y="549.9618744659876"/>
      <point x="693.9175262451172" y="550.3992385864258" type="curve"/>
      <point x="693.5129883727876" y="551.4971461780425"/>
      <point x="693.0989283421367" y="552.5490372871215"/>
      <point x="692.6754150390625" y="553.5647964477539" type="curve"/>
      <point x="692.519670487377" y="553.9637084716144"/>
      <point x="692.3626059648005" y="554.3489776778101"/>
      <point x="692.2042694091797" y="554.7128295898438" type="curve"/>
      <point x="691.7437525890534" y="555.8737760190892"/>
      <point x="691.2725390332583" y="556.9898082033534"/>
      <point x="690.7906723022461" y="558.0721282958984" type="curve"/>
      <point x="690.6650921857328" y="558.3705103972455"/>
      <point x="690.5387419861091" y="558.6601572034008"/>
      <point x="690.4116973876953" y="558.9329299926758" type="curve"/>
      <point x="689.8838176170358" y="560.1739251025451"/>
      <point x="689.3435033421459" y="561.3721852038457"/>
      <point x="688.7908935546875" y="562.5386123657227" type="curve"/>
      <point x="688.7135597541986" y="562.7097764158144"/>
      <point x="688.6360226164484" y="562.8765992548068"/>
      <point x="688.5583190917969" y="563.0329513549805" type="curve"/>
      <point x="687.9461929773527" y="564.3792296490027"/>
      <point x="687.3191579025666" y="565.686530475732"/>
      <point x="686.6773910522461" y="566.9634094238281" type="curve"/>
      <point x="686.6767372335617" y="566.9647636583068"/>
      <point x="686.6760650970194" y="566.9661264131487"/>
      <point x="686.6753158569336" y="566.9675445556641" type="curve"/>
      <point x="658.6506031486024" y="623.8321024956683"/>
      <point x="602.4692069329311" y="670.1485324702139"/>
      <point x="531.123420715332" y="695.7406768798828" type="curve"/>
      <point x="530.9105483125658" y="695.8199945908156"/>
      <point x="530.697430435867" y="695.8964012442102"/>
      <point x="530.4842758178711" y="695.969856262207" type="curve"/>
      <point x="529.0343034196927" y="696.4999765740366"/>
      <point x="527.5780310587575" y="697.008671287216"/>
      <point x="526.1157684326172" y="697.4962005615234" type="curve"/>
      <point x="525.6007035774347" y="697.6782436355736"/>
      <point x="525.0848760709739" y="697.8536897242509"/>
      <point x="524.5684585571289" y="698.021614074707" type="curve"/>
      <point x="523.3858008682913" y="698.4321089934946"/>
      <point x="522.1992681180274" y="698.8247629731876"/>
      <point x="521.0087127685547" y="699.2012405395508" type="curve"/>
      <point x="520.1579213992945" y="699.4859874104849"/>
      <point x="519.3051393529" y="699.7603362328323"/>
      <point x="518.4505462646484" y="700.0220336914062" type="curve"/>
      <point x="517.2159118766323" y="700.4238173169542"/>
      <point x="515.9772303466125" y="700.8088048550158"/>
      <point x="514.7345352172852" y="701.1874618530273" type="curve"/>
      <point x="514.5605330431233" y="701.242876318475"/>
      <point x="514.3864348499235" y="701.295951958384"/>
      <point x="514.2121887207031" y="701.3468017578125" type="curve"/>
      <point x="300.1057434082031" y="766.5795516967773" type="line"/>
      <point x="223.04833" y="790.05697"/>
      <point x="170.17211" y="839.43316"/>
      <point x="170.17211" y="896.17745" type="curve"/>
      <point x="170.17211" y="975.64333"/>
      <point x="273.9145" y="1040.51929"/>
      <point x="402.4095" y="1040.51929" type="curve" smooth="yes"/>
      <point x="530.90449" y="1040.51929"/>
      <point x="634.64688" y="975.64333"/>
      <point x="634.64688" y="896.17745" type="curve"/>
      <point x="689.1276016235352" y="896.1774520874023" type="line"/>
      <point x="689.1276" y="1005.69887"/>
      <point x="560.9592" y="1095.0"/>
      <point x="402.4095" y="1095.0" type="curve" smooth="yes"/>
      <point x="243.85979" y="1095.0"/>
      <point x="115.69139" y="1005.69887"/>
      <point x="115.69139" y="896.17745" type="curve"/>
      <point x="115.69139" y="815.15098"/>
      <point x="185.8152" y="745.10168"/>
      <point x="286.54857" y="714.27534" type="curve"/>
      <point x="310.8025207519531" y="706.8531646728516" type="line"/>
      <point x="187.72451251657435" y="677.0115580071341"/>
      <point x="98.59941000000002" y="588.6429144537201"/>
      <point x="98.59941000000008" y="484.64510000000007" type="curve"/>
      <point x="98.59941" y="482.98361717746"/>
      <point x="98.62215800925003" y="481.3261234933892"/>
      <point x="98.66742706298828" y="479.72340393066406" type="curve"/>
      <point x="98.59941" y="482.31173259526"/>
      <point x="98.64426364007548" y="479.9861915757111"/>
      <point x="98.73335266113281" y="478.0655822753906" type="curve"/>
      <point x="98.77046678768686" y="476.70472402186044"/>
      <point x="98.81525300019693" y="475.7410543450938"/>
      <point x="98.86767578125" y="474.82775115966797" type="curve"/>
      <point x="98.90740296745346" y="474.04782063072224"/>
      <point x="98.95150493964121" y="473.3194256345432"/>
      <point x="98.99996185302734" y="472.8323974609375" type="curve"/>
      <point x="99.05959505678405" y="471.69891705688656"/>
      <point x="99.12583686493323" y="470.80512856112466"/>
      <point x="99.19866180419922" y="469.95977783203125" type="curve"/>
      <point x="99.26043369474203" y="469.15273828789054"/>
      <point x="99.32692767328605" y="468.39647672544834"/>
      <point x="99.39813232421875" y="467.8117980957031" type="curve"/>
      <point x="99.47896862935295" y="466.7867210836096"/>
      <point x="99.56588399455794" y="465.93050839121844"/>
      <point x="99.65885162353516" y="465.1209411621094" type="curve"/>
      <point x="99.74317641313563" y="464.2961961091348"/>
      <point x="99.83245222905329" y="463.5216303647698"/>
      <point x="99.92668151855469" y="462.87933349609375" type="curve"/>
      <point x="100.02763724669076" y="461.9233791810874"/>
      <point x="100.13427732075552" y="461.09589742463777"/>
      <point x="100.24658203125" y="460.31329345703125" type="curve"/>
      <point x="100.35408713926611" y="459.4737517477759"/>
      <point x="100.46677663118676" y="458.68360113126613"/>
      <point x="100.58463287353516" y="458.00050354003906" type="curve"/>
      <point x="100.70446067358525" y="457.09749247284685"/>
      <point x="100.82960729944412" y="456.29663768357113"/>
      <point x="100.96007537841797" y="455.53885650634766" type="curve"/>
      <point x="101.09153055359819" y="454.6851783308032"/>
      <point x="101.22836380777755" y="453.88042049851833"/>
      <point x="101.37055206298828" y="453.16517639160156" type="curve"/>
      <point x="101.50790092573807" y="452.3072143637158"/>
      <point x="101.65027554481404" y="451.532267324252"/>
      <point x="101.79761505126953" y="450.79871368408203" type="curve"/>
      <point x="101.95387532733108" y="449.9309332015986"/>
      <point x="102.1157300247646" y="449.11150677080434"/>
      <point x="102.28313446044922" y="448.36869049072266" type="curve"/>
      <point x="102.43646558853715" y="447.5519879127195"/>
      <point x="102.59447173598872" y="446.804071424237"/>
      <point x="102.75711822509766" y="446.0956573486328" type="curve"/>
      <point x="102.9393787818336" y="445.2122315882326"/>
      <point x="103.12747232592578" y="444.37668633454894"/>
      <point x="103.32134246826172" y="443.60777282714844" type="curve"/>
      <point x="103.48873606344331" y="442.8316538958528"/>
      <point x="103.66044082043138" y="442.1129514927146"/>
      <point x="103.8364028930664" y="441.43202209472656" type="curve"/>
      <point x="104.04611730618029" y="440.530929978616"/>
      <point x="104.26191127709508" y="439.6773986409131"/>
      <point x="104.48377990722656" y="438.8824462890625" type="curve"/>
      <point x="104.66290073766847" y="438.14801808014874"/>
      <point x="104.84598035209358" y="437.4614974335975"/>
      <point x="105.03299713134766" y="436.8106231689453" type="curve"/>
      <point x="105.27199909862485" y="435.88912955185657"/>
      <point x="105.51740011454208" y="435.0147869267673"/>
      <point x="105.76921081542969" y="434.1925506591797" type="curve"/>
      <point x="105.95731151587256" y="433.50201418497323"/>
      <point x="106.14900786910356" y="432.8512802965688"/>
      <point x="106.34425354003906" y="432.2341766357422" type="curve"/>
      <point x="106.61479199943247" y="431.2889809129093"/>
      <point x="106.89213713171226" y="430.3904443644892"/>
      <point x="107.1762924194336" y="429.5386657714844" type="curve"/>
      <point x="107.36994662495846" y="428.8957659622642"/>
      <point x="107.56672404058335" y="428.28586994348905"/>
      <point x="107.7665786743164" y="427.70762634277344" type="curve"/>
      <point x="108.07171216890636" y="426.7338644616347"/>
      <point x="108.38413163179808" y="425.80630274350943"/>
      <point x="108.70375061035156" y="424.92127990722656" type="curve"/>
      <point x="108.89854220838478" y="424.3317093335274"/>
      <point x="109.09606247212389" y="423.76874002398876"/>
      <point x="109.29631805419922" y="423.2348175048828" type="curve"/>
      <point x="109.6397667199338" y="422.22697949283105"/>
      <point x="109.9910672175899" y="421.26489034671664"/>
      <point x="110.35018157958984" y="420.3415069580078" type="curve"/>
      <point x="110.54059906596046" y="419.812459023067"/>
      <point x="110.73325555363" y="419.30443860778786"/>
      <point x="110.92805480957031" y="418.82320404052734" type="curve"/>
      <point x="111.3148467489922" y="417.7736771980541"/>
      <point x="111.71028170559235" y="416.76911960600074"/>
      <point x="112.11429595947266" y="415.80003356933594" type="curve"/>
      <point x="112.29292930282321" y="415.3418444937315"/>
      <point x="112.47326616425045" y="414.8995826354361"/>
      <point x="112.65531158447266" y="414.48091888427734" type="curve"/>
      <point x="113.09206291704959" y="413.3799375840903"/>
      <point x="113.53846011040126" y="412.32289031790276"/>
      <point x="113.99441528320312" y="411.29862213134766" type="curve"/>
      <point x="114.15134675520584" y="410.92519694961936"/>
      <point x="114.30937378590488" y="410.56310266343297"/>
      <point x="114.4685287475586" y="410.22103118896484" type="curve"/>
      <point x="114.9646560899854" y="409.05453094758377"/>
      <point x="115.47176951015986" y="407.9304138465655"/>
      <point x="115.98970794677734" y="406.8369827270508" type="curve"/>
      <point x="116.11010359361967" y="406.5700738015299"/>
      <point x="116.2310214436172" y="406.3101312893689"/>
      <point x="116.35260009765625" y="406.0651397705078" type="curve"/>
      <point x="116.92168775057021" y="404.81299450369255"/>
      <point x="117.50360973730406" y="403.6007308682834"/>
      <point x="118.09822082519531" y="402.4174346923828" type="curve"/>
      <point x="118.16030221365354" y="402.2887450587599"/>
      <point x="118.22249132624053" y="402.1628308751691"/>
      <point x="118.28488159179688" y="402.04466247558594" type="curve"/>
      <point x="145.6305827990742" y="346.7759078748877"/>
      <point x="199.58476065017553" y="301.5056620254302"/>
      <point x="268.1952590942383" y="275.5810546875" type="curve"/>
      <point x="268.47093325486856" y="275.4725292616377"/>
      <point x="268.74677953937004" y="275.3684735328505"/>
      <point x="269.02306365966797" y="275.2676010131836" type="curve"/>
      <point x="270.38067370864167" y="274.7466036419563"/>
      <point x="271.74397449171147" y="274.2448736833676"/>
      <point x="273.11297607421875" y="273.7637481689453" type="curve"/>
      <point x="273.6663614668032" y="273.5567477750294"/>
      <point x="274.2207619487903" y="273.3578497038927"/>
      <point x="274.7761459350586" y="273.16612243652344" type="curve"/>
      <point x="275.8959388559225" y="272.757353503873"/>
      <point x="277.0194878237691" y="272.36461423105953"/>
      <point x="278.1466064453125" y="271.98848724365234" type="curve"/>
      <point x="278.98937748773176" y="271.6893641189863"/>
      <point x="279.8343818995834" y="271.40177532895893"/>
      <point x="280.6814956665039" y="271.1257858276367" type="curve"/>
      <point x="281.54606292210565" y="270.82609849323734"/>
      <point x="282.4126803784976" y="270.5391287469531"/>
      <point x="283.2814178466797" y="270.2642288208008" type="curve"/>
      <point x="284.43914942778264" y="269.8749959215984"/>
      <point x="285.6007730706711" y="269.5010342465847"/>
      <point x="286.76595306396484" y="269.14351654052734" type="curve"/>
      <point x="287.4310247974964" y="268.9261180915057"/>
      <point x="288.0972173772538" y="268.71804331441285"/>
      <point x="288.7644958496094" y="268.51673126220703" type="curve"/>
      <point x="289.7122182880124" y="268.2131028183532"/>
      <point x="290.6622988754597" y="267.9229828225806"/>
      <point x="291.6146240234375" y="267.64498138427734" type="curve"/>
      <point x="291.83409118652344" y="267.5778579711914" type="line"/>
      <point x="510.0753936767578" y="202.2405776977539" type="line"/>
      <point x="589.10945" y="178.5793"/>
      <point x="643.19288" y="129.47021"/>
      <point x="643.19288" y="73.11276" type="curve"/>
      <point x="643.19288" y="-6.33868"/>
      <point x="535.65709" y="-71.22908"/>
      <point x="402.4095" y="-71.22908" type="curve" smooth="yes"/>
      <point x="269.1619" y="-71.22908"/>
      <point x="161.62611" y="-6.33868"/>
      <point x="161.62611" y="73.11276" type="curve"/>
    </contour>
    <contour>
      <point x="500.4823532104492" y="648.807487487793" type="line"/>
      <point x="506.04351806640625" y="647.0438613891602" type="line"/>
      <point x="508.17618560791016" y="646.326774597168" type="line"/>
      <point x="511.4402084350586" y="645.2179489135742" type="line"/>
      <point x="514.9145736694336" y="643.9745559692383" type="line"/>
      <point x="516.7519912719727" y="643.307975769043" type="line"/>
      <point x="520.9947967529297" y="641.6957550048828" type="line"/>
      <point x="521.9726943969727" y="641.3179016113281" type="line"/>
      <point x="526.7267150878906" y="639.4038391113281" type="line"/>
      <point x="527.0964889526367" y="639.2520065307617" type="line"/>
      <point x="582.4157822102703" y="616.3117880647918"/>
      <point x="624.267979051528" y="578.590087222009"/>
      <point x="642.1791076660156" y="533.679328918457" type="curve"/>
      <point x="642.6591949462891" y="532.4900817871094" type="line"/>
      <point x="643.6814193725586" y="529.7339477539062" type="line"/>
      <point x="644.2921752929688" y="528.0562973022461" type="line"/>
      <point x="645.1376724243164" y="525.5228958129883" type="line"/>
      <point x="645.7690887451172" y="523.5791625976562" type="line"/>
      <point x="646.4826202392578" y="521.1761169433594" type="line"/>
      <point x="647.0877914428711" y="519.0601654052734" type="line"/>
      <point x="647.6919937133789" y="516.7400207519531" type="line"/>
      <point x="648.2460327148438" y="514.501335144043" type="line"/>
      <point x="648.7538909912109" y="512.2357025146484" type="line"/>
      <point x="649.2416915893555" y="509.90431213378906" type="line"/>
      <point x="649.6608734130859" y="507.6759033203125" type="line"/>
      <point x="650.07275390625" y="505.2700653076172" type="line"/>
      <point x="650.4079284667969" y="503.0684127807617" type="line"/>
      <point x="650.7370758056641" y="500.59984588623047" type="line"/>
      <point x="650.9912338256836" y="498.4182434082031" type="line"/>
      <point x="651.232536315918" y="495.89427185058594" type="line"/>
      <point x="651.4075469970703" y="493.7299270629883" type="line"/>
      <point x="651.556884765625" y="491.15332794189453" type="line"/>
      <point x="651.6541137695312" y="489.00634765625" type="line"/>
      <point x="651.7304840087891" y="485.25475311279297" type="line"/>
      <point x="651.7388687133789" y="484.64510345458984" type="line"/>
      <point x="651.73887" y="386.28778"/>
      <point x="540.26108" y="306.11929"/>
      <point x="402.4095" y="306.11929" type="curve" smooth="yes"/>
      <point x="367.99457485332" y="306.11929"/>
      <point x="335.22342635941266" y="311.1158810164648"/>
      <point x="305.4203109741211" y="320.14886474609375" type="curve"/>
      <point x="302.195556640625" y="321.15557861328125" type="line"/>
      <point x="299.4091110229492" y="322.0333938598633" type="line"/>
      <point x="299.3512268066406" y="322.0527648925781" type="line"/>
      <point x="247.7338262666543" y="338.8687679243593"/>
      <point x="205.5495855296504" y="367.9186444379596"/>
      <point x="179.97161102294922" y="403.9809799194336" type="curve"/>
      <point x="179.82833099365234" y="404.18285369873047" type="line"/>
      <point x="177.358154296875" y="407.7793960571289" type="line"/>
      <point x="177.07132720947266" y="408.210693359375" type="line"/>
      <point x="174.83838653564453" y="411.6729507446289" type="line"/>
      <point x="174.45263671875" y="412.2938690185547" type="line"/>
      <point x="172.42596435546875" y="415.6499481201172" type="line"/>
      <point x="171.9747772216797" y="416.4300994873047" type="line"/>
      <point x="170.13065338134766" y="419.7023391723633" type="line"/>
      <point x="169.64071655273438" y="420.6160430908203" type="line"/>
      <point x="167.95999908447266" y="423.82398223876953" type="line"/>
      <point x="167.4542999267578" y="424.8460159301758" type="line"/>
      <point x="165.9198455810547" y="428.01051330566406" type="line"/>
      <point x="165.42035675048828" y="429.11071014404297" type="line"/>
      <point x="164.01581573486328" y="432.25694274902344" type="line"/>
      <point x="163.54638671875" y="433.3914108276367" type="line"/>
      <point x="162.251953125" y="436.56068420410156" type="line"/>
      <point x="161.8573455810547" y="437.61559295654297" type="line"/>
      <point x="160.63253784179688" y="440.9179000854492" type="line"/>
      <point x="160.5466766357422" y="441.1743621826172" type="line"/>
      <point x="159.72088427272516" y="443.5197576112829"/>
      <point x="158.960711823792" y="445.8958715746337"/>
      <point x="158.2675552368164" y="448.3458480834961" type="curve"/>
      <point x="157.88655853271484" y="449.6334762573242" type="line"/>
      <point x="157.27440643310547" y="451.984130859375" type="line"/>
      <point x="156.71006774902344" y="454.1772003173828" type="line"/>
      <point x="156.21680450439453" y="456.3777313232422" type="line"/>
      <point x="155.69538116455078" y="458.7581481933594" type="line"/>
      <point x="155.29032135009766" y="460.91148376464844" type="line"/>
      <point x="154.84453582763672" y="463.3744659423828" type="line"/>
      <point x="154.51866912841797" y="465.5149688720703" type="line"/>
      <point x="154.1594467163086" y="468.0248336791992" type="line"/>
      <point x="153.90984344482422" y="470.16737365722656" type="line"/>
      <point x="153.64212799072266" y="472.7074661254883" type="line"/>
      <point x="153.46807861328125" y="474.8598937988281" type="line"/>
      <point x="153.29452514648438" y="477.42100524902344" type="line"/>
      <point x="153.19640350341797" y="479.5877227783203" type="line"/>
      <point x="153.1105728149414" y="482.4308395385742" type="line"/>
      <point x="153.08011627197266" y="484.64510345458984" type="line"/>
      <point x="153.08011627197266" y="484.6451110839844" type="line"/>
      <point x="153.08012" y="583.00243"/>
      <point x="264.55791" y="663.17092"/>
      <point x="402.4095" y="663.17092" type="curve" smooth="yes"/>
      <point x="436.75149916434" y="663.17092"/>
      <point x="469.45668107574824" y="658.1954815979544"/>
      <point x="499.2093200683594" y="649.1970596313477" type="curve"/>
    </contour>
  </outline>
</glyph>
<glyph name="diaeresis" format="2">
  <advance width="578.4478168715557"/>
  <unicode hex="00A8"/>
  <outline>
    <contour>
      <point x="228.46799491309878" y="1059.0674014412887" type="curve" smooth="yes"/>
      <point x="228.46799491309878" y="1090.4837426390843"/>
      <point x="202.9619113546418" y="1115.9898261975413"/>
      <point x="171.5455701568461" y="1115.9898261975413" type="curve" smooth="yes"/>
      <point x="140.12922895905044" y="1115.9898261975413"/>
      <point x="114.62314540059347" y="1090.4837426390843"/>
      <point x="114.62314540059347" y="1059.0674014412887" type="curve" smooth="yes"/>
      <point x="114.62314540059347" y="1027.651060243493"/>
      <point x="140.1292289590504" y="1002.144976685036"/>
      <point x="171.5455701568461" y="1002.144976685036" type="curve" smooth="yes"/>
      <point x="202.9619113546418" y="1002.144976685036"/>
      <point x="228.46799491309872" y="1027.651060243493"/>
    </contour>
    <contour>
      <point x="463.8246714709623" y="1059.0674014412887" type="curve" smooth="yes"/>
      <point x="463.8246714709623" y="1090.4837426390843"/>
      <point x="438.3185879125053" y="1115.9898261975413"/>
      <point x="406.9022467147096" y="1115.9898261975413" type="curve" smooth="yes"/>
      <point x="375.48590551691393" y="1115.9898261975413"/>
      <point x="349.97982195845697" y="1090.4837426390843"/>
      <point x="349.97982195845697" y="1059.0674014412887" type="curve" smooth="yes"/>
      <point x="349.97982195845697" y="1027.651060243493"/>
      <point x="375.48590551691393" y="1002.144976685036"/>
      <point x="406.9022467147096" y="1002.144976685036" type="curve" smooth="yes"/>
      <point x="438.3185879125053" y="1002.144976685036"/>
      <point x="463.8246714709623" y="1027.651060243493"/>
    </contour>
  </outline>
</glyph>
<glyph name="copyright" format="2">
  <advance width="1245.151335311573"/>
  <unicode hex="00A9"/>
  <outline>
    <contour>
      <point x="1162.5756676557864" y="540.0000000000001" type="curve" smooth="yes"/>
      <point x="1162.5756676557864" y="838.0341108"/>
      <point x="920.6097784557863" y="1080.0"/>
      <point x="622.5756676557863" y="1080.0" type="curve" smooth="yes"/>
      <point x="324.5415568557864" y="1080.0"/>
      <point x="82.57566765578635" y="838.0341108000002"/>
      <point x="82.57566765578635" y="540.0000000000001" type="curve" smooth="yes"/>
      <point x="82.57566765578629" y="241.9658892000001"/>
      <point x="324.54155685578627" y="1.2144588005869962e-13"/>
      <point x="622.5756676557863" y="6.072294002934981e-14" type="curve" smooth="yes"/>
      <point x="920.6097784557863" y="0.0"/>
      <point x="1162.5756676557864" y="241.9658891999999"/>
    </contour>
    <contour>
      <point x="1115.4498516320475" y="540.0000000000001" type="curve" smooth="yes"/>
      <point x="1115.4498516320475" y="267.97533489325815"/>
      <point x="894.6003327625281" y="47.125816023738885"/>
      <point x="622.5756676557863" y="47.12581602373894" type="curve" smooth="yes"/>
      <point x="350.5510025490444" y="47.125816023739006"/>
      <point x="129.70148367952515" y="267.97533489325826"/>
      <point x="129.70148367952524" y="540.0000000000001" type="curve" smooth="yes"/>
      <point x="129.70148367952524" y="812.0246651067418"/>
      <point x="350.55100254904454" y="1032.874183976261"/>
      <point x="622.5756676557863" y="1032.874183976261" type="curve" smooth="yes"/>
      <point x="894.6003327625282" y="1032.874183976261"/>
      <point x="1115.4498516320475" y="812.0246651067418"/>
    </contour>
    <contour>
      <point x="622.5756676557863" y="305.1339948071217" type="curve" smooth="yes"/>
      <point x="492.9495917024388" y="305.1339948071217"/>
      <point x="387.70966246290794" y="410.3739240466526"/>
      <point x="387.70966246290794" y="540.0000000000001" type="curve" smooth="yes"/>
      <point x="387.70966246290794" y="669.6260759533476"/>
      <point x="492.9495917024388" y="774.8660051928786"/>
      <point x="622.5756676557863" y="774.8660051928786" type="curve" smooth="yes"/>
      <point x="708.2966139272793" y="774.8660051928786"/>
      <point x="783.3532603677129" y="728.8435575802771"/>
      <point x="824.3634286761637" y="660.1780434447157" type="curve"/>
      <point x="890.6847741554328" y="660.1780434447157" type="line"/>
      <point x="844.7170398274112" y="762.4686537300528"/>
      <point x="741.9076903543" y="833.7732752225521"/>
      <point x="622.5756676557863" y="833.7732752225518" type="curve" smooth="yes"/>
      <point x="460.4377845858661" y="833.7732752225521"/>
      <point x="328.80239243323444" y="702.1378830699203"/>
      <point x="328.80239243323444" y="540.0000000000001" type="curve" smooth="yes"/>
      <point x="328.80239243323444" y="377.8621169300798"/>
      <point x="460.43778458586604" y="246.22672477744814"/>
      <point x="622.5756676557862" y="246.22672477744814" type="curve" smooth="yes"/>
      <point x="741.9062311133523" y="246.22672477744814"/>
      <point x="844.7145254351034" y="317.5296023962595"/>
      <point x="890.68303411014" y="419.82196035866224" type="curve"/>
      <point x="824.3634409013064" y="419.82196035866224" type="line"/>
      <point x="783.3532603677129" y="351.1564424197229"/>
      <point x="708.2966139272793" y="305.13399480712167"/>
    </contour>
  </outline>
</glyph>
<glyph name="ordinal_a" format="2">
  <advance width="647.7129821958458"/>
  <unicode hex="00AA"/>
  <anchor x="535.6954747774481" y="975.1446587537092" name="above" identifier="above"/>
  <anchor x="535.6954747774481" y="-128.1899109792285" name="below" identifier="below"/>
  <anchor x="970.6752225519289" y="0" name="ogonek" identifier="ogonek"/>
  <outline>
    <contour>
      <point x="477.88912200927734" y="657.7142181396484" type="line"/>
      <point x="531.8613510131836" y="657.7142181396484" type="line"/>
      <point x="531.8613510131836" y="1081.1915893554688" type="line"/>
      <point x="477.88912200927734" y="1081.1915893554688" type="line"/>
      <point x="477.88912200927734" y="1013.4911804199219" type="line"/>
      <point x="437.6535854818385" y="1059.6716153560799"/>
      <point x="378.43573998923006" y="1088.85984"/>
      <point x="312.45441000000005" y="1088.85984" type="curve" smooth="yes"/>
      <point x="191.36043" y="1088.85984"/>
      <point x="93.04748" y="990.54689"/>
      <point x="93.04748" y="869.45291" type="curve" smooth="yes"/>
      <point x="93.04748" y="748.35892"/>
      <point x="191.36043" y="650.04597"/>
      <point x="312.45441" y="650.04597" type="curve" smooth="yes"/>
      <point x="378.43573998923" y="650.04597"/>
      <point x="437.65358548183843" y="679.2341946439201"/>
      <point x="477.88912200927734" y="725.4140701293945" type="curve"/>
    </contour>
    <contour>
      <point x="477.88912" y="869.45291" type="curve" smooth="yes"/>
      <point x="477.88912" y="778.147"/>
      <point x="403.76032" y="704.01819"/>
      <point x="312.45441" y="704.01819" type="curve" smooth="yes"/>
      <point x="221.14851" y="704.01819"/>
      <point x="147.0197" y="778.147"/>
      <point x="147.0197" y="869.45291" type="curve" smooth="yes"/>
      <point x="147.0197" y="960.75881"/>
      <point x="221.14851" y="1034.88762"/>
      <point x="312.45441" y="1034.88762" type="curve" smooth="yes"/>
      <point x="403.76032" y="1034.88762"/>
      <point x="477.88912" y="960.75881"/>
    </contour>
    <contour>
      <point x="93.04748" y="494.97204" type="line"/>
      <point x="531.86135" y="494.97204" type="line"/>
      <point x="531.86135" y="547.49404" type="line"/>
      <point x="93.04748" y="547.49404" type="line"/>
    </contour>
  </outline>
</glyph>
<glyph name="ordinalfeminine" format="2">
  <advance width="628.860534124629"/>
  <unicode hex="00AA"/>
  <outline>
    <contour>
      <point x="459.7566833496094" y="680.1186904907227" type="line"/>
      <point x="514.2373886108398" y="680.1186904907227" type="line"/>
      <point x="514.2373886108398" y="1087.1216583251953" type="line"/>
      <point x="459.7566833496094" y="1087.1216583251953" type="line"/>
      <point x="459.7566833496094" y="1025.1939697265625" type="line"/>
      <point x="421.06095081504293" y="1068.056134757786"/>
      <point x="365.0809710409" y="1095.0000000000002"/>
      <point x="302.85757" y="1095.0000000000002" type="curve" smooth="yes"/>
      <point x="186.19387" y="1095.0"/>
      <point x="91.47774" y="1000.28388"/>
      <point x="91.47774" y="883.62018" type="curve" smooth="yes"/>
      <point x="91.47774" y="766.95648"/>
      <point x="186.19387" y="672.24036"/>
      <point x="302.85757" y="672.24036" type="curve" smooth="yes"/>
      <point x="365.0809710409" y="672.24036"/>
      <point x="421.06095081504293" y="699.1842252422142"/>
      <point x="459.7566833496094" y="742.0534286499023" type="curve"/>
    </contour>
    <contour>
      <point x="459.75668" y="883.62018" type="curve" smooth="yes"/>
      <point x="459.75668" y="797.0252"/>
      <point x="389.45254" y="726.72107"/>
      <point x="302.85757" y="726.72107" type="curve" smooth="yes"/>
      <point x="216.26259" y="726.72107"/>
      <point x="145.95846" y="797.0252"/>
      <point x="145.95846" y="883.62018" type="curve" smooth="yes"/>
      <point x="145.95846" y="970.21515"/>
      <point x="216.26259" y="1040.51929"/>
      <point x="302.85757" y="1040.51929" type="curve" smooth="yes"/>
      <point x="389.45254" y="1040.51929"/>
      <point x="459.75668" y="970.21515"/>
    </contour>
    <contour>
      <point x="91.47774" y="517.16643" type="line"/>
      <point x="514.23739" y="517.16643" type="line"/>
      <point x="514.23739" y="569.68843" type="line"/>
      <point x="91.47774" y="569.68843" type="line"/>
    </contour>
  </outline>
</glyph>
<glyph name="angledblleft" format="2">
  <advance width="850.9673590504433"/>
  <unicode hex="00AB"/>
  <outline>
    <contour>
      <point x="736.3442153930664" y="233.41246032714844" type="line"/>
      <point x="472.17433166503906" y="486.58753967285156" type="line"/>
      <point x="736.3442153930664" y="739.7626113891602" type="line"/>
      <point x="657.6060791015625" y="739.7626113891602" type="line"/>
      <point x="393.4362030029297" y="486.58753967285156" type="line"/>
      <point x="657.6060791015625" y="233.41246032714844" type="line"/>
    </contour>
    <contour>
      <point x="457.5311584472656" y="233.41246032714844" type="line"/>
      <point x="193.36127471923828" y="486.58753967285156" type="line"/>
      <point x="457.5311584472656" y="739.7626113891602" type="line"/>
      <point x="378.7930221557617" y="739.7626113891602" type="line"/>
      <point x="114.6231460571289" y="486.58753967285156" type="line"/>
      <point x="378.7930221557617" y="233.41246032714844" type="line"/>
    </contour>
  </outline>
</glyph>
<glyph name="angleleft_dbl" format="2">
  <advance width="853.4243323442504"/>
  <unicode hex="00AB"/>
  <outline>
    <contour>
      <point x="737.5727005004883" y="221.57826232910156" type="line"/>
      <point x="471.8201675415039" y="486.58753967285156" type="line"/>
      <point x="737.5727005004883" y="751.596809387207" type="line"/>
      <point x="660.4172210693359" y="751.596809387207" type="line"/>
      <point x="394.66468811035156" y="486.58753967285156" type="line"/>
      <point x="660.4172210693359" y="221.57826232910156" type="line"/>
    </contour>
    <contour>
      <point x="458.7596435546875" y="221.57826232910156" type="line"/>
      <point x="193.00711059570312" y="486.58753967285156" type="line"/>
      <point x="458.7596435546875" y="751.596809387207" type="line"/>
      <point x="381.6041564941406" y="751.596809387207" type="line"/>
      <point x="115.85163116455078" y="486.58753967285156" type="line"/>
      <point x="381.6041564941406" y="221.57826232910156" type="line"/>
    </contour>
  </outline>
</glyph>
<glyph name="logicalnot" format="2">
  <advance width="991.2284866468843"/>
  <unicode hex="00AC"/>
  <outline>
    <contour>
      <point x="115.85163116455078" y="459.34718322753906" type="line"/>
      <point x="820.8961410522461" y="459.34718322753906" type="line"/>
      <point x="820.8961410522461" y="0" type="line"/>
      <point x="875.3768463134766" y="0" type="line"/>
      <point x="875.3768463134766" y="513.8278884887695" type="line"/>
      <point x="115.85163116455078" y="513.8278884887695" type="line"/>
    </contour>
  </outline>
</glyph>
<glyph name="registered" format="2">
  <advance width="1245.151335311573"/>
  <unicode hex="00AE"/>
  <outline>
    <contour>
      <point x="1162.5756676557864" y="540.0000000000001" type="curve" smooth="yes"/>
      <point x="1162.5756676557864" y="838.0341108"/>
      <point x="920.6097784557863" y="1080.0"/>
      <point x="622.5756676557863" y="1080.0" type="curve" smooth="yes"/>
      <point x="324.5415568557864" y="1080.0"/>
      <point x="82.57566765578635" y="838.0341108000002"/>
      <point x="82.57566765578635" y="540.0000000000001" type="curve" smooth="yes"/>
      <point x="82.57566765578629" y="241.9658892000001"/>
      <point x="324.54155685578627" y="1.2144588005869962e-13"/>
      <point x="622.5756676557863" y="6.072294002934981e-14" type="curve" smooth="yes"/>
      <point x="920.6097784557863" y="0.0"/>
      <point x="1162.5756676557864" y="241.9658891999999"/>
    </contour>
    <contour>
      <point x="1115.4498516320475" y="540.0000000000001" type="curve" smooth="yes"/>
      <point x="1115.4498516320475" y="267.97533489325815"/>
      <point x="894.6003327625281" y="47.125816023738885"/>
      <point x="622.5756676557863" y="47.12581602373894" type="curve" smooth="yes"/>
      <point x="350.5510025490444" y="47.125816023739006"/>
      <point x="129.70148367952515" y="267.97533489325826"/>
      <point x="129.70148367952524" y="540.0000000000001" type="curve" smooth="yes"/>
      <point x="129.70148367952524" y="812.0246651067418"/>
      <point x="350.55100254904454" y="1032.874183976261"/>
      <point x="622.5756676557863" y="1032.874183976261" type="curve" smooth="yes"/>
      <point x="894.6003327625282" y="1032.874183976261"/>
      <point x="1115.4498516320475" y="812.0246651067418"/>
    </contour>
    <contour>
      <point x="431.8392105102539" y="254.16654205322266" type="line"/>
      <point x="490.7464828491211" y="254.16654205322266" type="line"/>
      <point x="490.7464828491211" y="460.18604278564453" type="line"/>
      <point x="653.4239120483398" y="460.18604278564453" type="line"/>
      <point x="802.6718444824219" y="254.16654205322266" type="line"/>
      <point x="875.4123611450195" y="254.16654205322266" type="line"/>
      <point x="720.6648712158203" y="467.7775573730469" type="line"/>
      <point x="796.1643051797739" y="490.25066519068776"/>
      <point x="851.280608391217" y="560.2444456639988"/>
      <point x="851.280608391217" y="643.0097498940228" type="curve" smooth="yes"/>
      <point x="851.280608391217" y="743.9128998431528"/>
      <point x="769.360051261076" y="825.8334569732939"/>
      <point x="668.4569013119461" y="825.8334569732939" type="curve"/>
      <point x="431.8392105102539" y="825.8334579467773" type="line"/>
    </contour>
    <contour>
      <point x="668.456901550293" y="766.9261856079102" type="line"/>
      <point x="736.8482441445034" y="766.9261869436203"/>
      <point x="792.3733383615433" y="711.40109272658"/>
      <point x="792.3733383615433" y="643.0097498940228" type="curve" smooth="yes"/>
      <point x="792.3733383615433" y="574.6184070614655"/>
      <point x="736.8482441445034" y="519.0933128444256"/>
      <point x="668.4569013119461" y="519.0933128444256" type="curve"/>
      <point x="490.7464828491211" y="519.0933151245117" type="line"/>
      <point x="490.7464828491211" y="766.9261856079102" type="line"/>
    </contour>
  </outline>
</glyph>
<glyph name="macron" format="2">
  <advance width="724.8672106824927"/>
  <unicode hex="00AF"/>
  <outline>
    <contour>
      <point x="115.85163" y="1268.11043" type="line"/>
      <point x="609.01558" y="1268.11043" type="line"/>
      <point x="609.01558" y="1322.59114" type="line"/>
      <point x="115.85163" y="1322.59114" type="line"/>
    </contour>
  </outline>
</glyph>
<glyph name="degree" format="2">
  <advance width="642.8456973293769"/>
  <unicode hex="00B0"/>
  <outline>
    <contour>
      <point x="559.04154" y="851.24115" type="curve" smooth="yes"/>
      <point x="559.04154" y="982.38647"/>
      <point x="452.56818" y="1088.85984"/>
      <point x="321.42285" y="1088.85984" type="curve" smooth="yes"/>
      <point x="190.27752" y="1088.85984"/>
      <point x="83.80415" y="982.38647"/>
      <point x="83.80415" y="851.24115" type="curve" smooth="yes"/>
      <point x="83.80415" y="720.09582"/>
      <point x="190.27752" y="613.62245"/>
      <point x="321.42285" y="613.62245" type="curve" smooth="yes"/>
      <point x="452.56818" y="613.62245"/>
      <point x="559.04154" y="720.09582"/>
    </contour>
    <contour>
      <point x="504.98457" y="851.24115" type="curve" smooth="yes"/>
      <point x="504.98457" y="749.93068"/>
      <point x="422.73332" y="667.67943"/>
      <point x="321.42285" y="667.67943" type="curve" smooth="yes"/>
      <point x="220.11238" y="667.67943"/>
      <point x="137.86113" y="749.93068"/>
      <point x="137.86113" y="851.24115" type="curve" smooth="yes"/>
      <point x="137.86113" y="952.55162"/>
      <point x="220.11238" y="1034.80287"/>
      <point x="321.42285" y="1034.80287" type="curve" smooth="yes"/>
      <point x="422.73332" y="1034.80287"/>
      <point x="504.98457" y="952.55162"/>
    </contour>
  </outline>
</glyph>
<glyph name="plusminus" format="2">
  <advance width="895.086053412463"/>
  <unicode hex="00B1"/>
  <outline>
    <contour>
      <point x="420.30267333984375" y="226.46884155273438" type="line"/>
      <point x="474.7833786010742" y="226.46884155273438" type="line"/>
      <point x="474.7833786010742" y="530.9198837280273" type="line"/>
      <point x="779.2344207763672" y="530.9198837280273" type="line"/>
      <point x="779.2344207763672" y="585.4005889892578" type="line"/>
      <point x="474.7833786010742" y="585.4005889892578" type="line"/>
      <point x="474.7833786010742" y="889.8516311645508" type="line"/>
      <point x="420.30267333984375" y="889.8516311645508" type="line"/>
      <point x="420.30267333984375" y="585.4005889892578" type="line"/>
      <point x="115.85163116455078" y="585.4005889892578" type="line"/>
      <point x="115.85163116455078" y="530.9198837280273" type="line"/>
      <point x="420.30267333984375" y="530.9198837280273" type="line"/>
    </contour>
    <contour>
      <point x="115.85163" y="83.32344" type="line"/>
      <point x="779.23442" y="83.32344" type="line"/>
      <point x="779.23442" y="137.80415" type="line"/>
      <point x="115.85163" y="137.80415" type="line"/>
    </contour>
  </outline>
</glyph>
<glyph name="sup_two" format="2">
  <advance width="660.6663840610429"/>
  <unicode hex="00B2"/>
  <outline>
    <contour>
      <point x="111.31665802001953" y="392" type="line"/>
      <point x="552.6562118530273" y="392" type="line"/>
      <point x="552.6562118530273" y="446.480712890625" type="line"/>
      <point x="192.52326202392578" y="446.480712890625" type="line"/>
      <point x="480.03162384033203" y="706.5910339355469" type="line"/>
      <point x="526.2732767584534" y="748.4260959322908"/>
      <point x="552.6562102585842" y="807.8726437206216"/>
      <point x="552.6562102585842" y="870.2301822806274" type="curve"/>
      <point x="552.6562102585842" y="992.021145744468"/>
      <point x="453.77739839389574" y="1090.8999576091564"/>
      <point x="331.9864349300551" y="1090.8999576091564" type="curve" smooth="yes"/>
      <point x="210.1954714662145" y="1090.8999576091564"/>
      <point x="111.31665960152607" y="992.021145744468"/>
      <point x="111.31665960152607" y="870.2301822806274" type="curve"/>
      <point x="165.79737091064453" y="870.2301788330078" type="line"/>
      <point x="165.79737176769817" y="961.9524223996609"/>
      <point x="240.26419481102164" y="1036.4192454429842"/>
      <point x="331.9864349300551" y="1036.4192454429842" type="curve" smooth="yes"/>
      <point x="423.70867504908864" y="1036.4192454429842"/>
      <point x="498.17549809241206" y="961.9524223996609"/>
      <point x="498.17549809241206" y="870.2301822806274" type="curve"/>
      <point x="498.17549809241206" y="823.2679696306645"/>
      <point x="478.30619340247955" y="778.4980591593696"/>
      <point x="443.48105037167915" y="746.9915704647432" type="curve"/>
      <point x="111.31665802001953" y="446.480712890625" type="line"/>
    </contour>
  </outline>
</glyph>
<glyph name="sup_three" format="2">
  <advance width="667.2793556591777"/>
  <unicode hex="00B3"/>
  <outline>
    <contour>
      <point x="104.70368957519531" y="578.6604309082031" type="line"/>
      <point x="104.70368800339126" y="470.3557159715345"/>
      <point x="208.02725973751586" y="382.4260279779566"/>
      <point x="335.2929207291225" y="382.4260279779566" type="curve" smooth="yes"/>
      <point x="462.5585817207291" y="382.4260279779566"/>
      <point x="565.8821534548538" y="470.3557159715344"/>
      <point x="565.8821534548538" y="578.6604297505352" type="curve"/>
      <point x="565.8821534548538" y="651.2465738393628"/>
      <point x="519.4720917675611" y="714.6808255989654"/>
      <point x="450.5485382080078" y="748.6104049682617" type="curve"/>
      <point x="511.8581320340201" y="781.373975797015"/>
      <point x="552.6562102585841" y="839.4871518818927"/>
      <point x="552.6562102585841" y="905.6570384830492" type="curve"/>
      <point x="552.6562102585841" y="1007.895387897393"/>
      <point x="455.25898501704114" y="1090.8999576091562"/>
      <point x="335.2929207291225" y="1090.8999576091562" type="curve" smooth="yes"/>
      <point x="215.32685644120392" y="1090.8999576091562"/>
      <point x="117.92963119966088" y="1007.895387897393"/>
      <point x="117.92963119966088" y="905.6570384830491" type="curve"/>
      <point x="172.41034698486328" y="905.6570358276367" type="line"/>
      <point x="172.410343365833" y="977.8266645525858"/>
      <point x="245.395579786011" y="1036.4192454429842"/>
      <point x="335.2929207291225" y="1036.4192454429842" type="curve" smooth="yes"/>
      <point x="425.19026167223404" y="1036.4192454429842"/>
      <point x="498.1754980924121" y="977.8266645525858"/>
      <point x="498.1754980924121" y="905.6570384830491" type="curve"/>
      <point x="498.1754980924121" y="833.4874124135121"/>
      <point x="425.19026167223404" y="774.8948315231136"/>
      <point x="335.2929207291225" y="774.8948315231136" type="curve"/>
      <point x="295.6150894165039" y="774.8948287963867" type="line"/>
      <point x="295.6150894165039" y="720.4141159057617" type="line"/>
      <point x="335.2929229736328" y="720.4141159057617" type="line"/>
      <point x="432.489858375922" y="720.4141193569415"/>
      <point x="511.40144128868167" y="656.8964201847288"/>
      <point x="511.40144128868167" y="578.6604297505352" type="curve"/>
      <point x="511.40144128868167" y="500.4244393163416"/>
      <point x="432.489858375922" y="436.9067401441287"/>
      <point x="335.2929207291225" y="436.9067401441287" type="curve" smooth="yes"/>
      <point x="238.09598308232302" y="436.9067401441287"/>
      <point x="159.1844001695634" y="500.4244393163416"/>
      <point x="159.1844001695634" y="578.6604297505352" type="curve"/>
    </contour>
  </outline>
</glyph>
<glyph name="acute" format="2">
  <advance width="428.1313290112141"/>
  <unicode hex="00B4"/>
  <outline>
    <contour>
      <point x="114.62314540059347" y="967.299703264095" type="line"/>
      <point x="177.21906155340062" y="967.299703264095" type="line"/>
      <point x="313.5081836106207" y="1208.1899109792284" type="line"/>
      <point x="250.9122674578136" y="1208.1899109792284" type="line"/>
    </contour>
  </outline>
</glyph>
